<svg width="120" height="46" viewBox="0 0 120 46" fill="none" xmlns="http://www.w3.org/2000/svg">
<path d="M36.6467 27.0201C36.8135 27.187 36.8691 28.0771 36.6467 29.0784C36.8135 30.1353 36.9248 30.9141 36.7023 31.1366H36.5911C36.3131 31.1366 35.3121 31.1366 34.0887 31.1366C32.8653 31.1922 31.9756 31.1366 31.5307 31.1366C31.0858 31.081 30.9746 31.2479 30.3629 31.1366C29.918 31.0254 28.5834 31.1366 27.4712 31.1366C26.8039 31.1366 26.3035 31.2479 25.4693 31.1366C24.9132 30.9141 24.4684 31.2479 23.3006 31.1366C22.4664 31.2479 21.7435 31.2479 20.965 31.1366C19.5748 31.081 19.4636 31.2479 18.5182 31.1366C17.5729 31.1366 17.0168 31.6373 16.0714 31.1366C15.1261 30.6916 14.4588 31.3591 13.7359 31.1366C13.0685 31.0254 12.3456 30.7472 11.5671 31.1366C10.8998 31.1366 9.95445 31.1366 9.62079 31.1366C8.3974 30.8028 7.61887 31.1366 6.67352 31.1366C5.895 31.1366 5.61696 31.1366 5.56135 31.1366C5.39452 31.0254 4.72721 31.3591 3.50382 31.1366C2.72529 31.2479 1.83555 31.2479 1.55751 31.1922C1.5019 31.1922 1.44629 31.1922 1.44629 31.081C1.44629 30.8585 1.44629 29.9684 1.44629 29.0227C1.5019 28.0771 1.44629 27.3539 1.44629 27.0757C1.44629 26.7976 1.5019 26.9645 1.55751 26.9645C2.22481 27.0757 5.33891 26.6863 5.33891 26.9645C5.56135 27.1314 6.22865 25.2956 7.174 23.6268C7.67448 22.3473 8.3974 21.2904 9.0091 20.2335C9.12031 19.5659 9.84323 18.7315 10.0657 18.3421C10.3437 18.0083 10.3437 17.007 11.1222 16.3951C11.5671 15.7276 11.7339 15.1713 12.1788 14.4481C12.1788 14.4481 12.1788 14.4481 12.2344 14.4481C12.9017 14.17 13.291 13.0574 13.2354 12.5568C13.2354 12.5568 13.2354 12.5568 13.2354 12.5011C14.0139 11.3886 14.57 10.0535 15.0705 9.16343C16.0714 7.55021 16.6831 6.04825 16.8499 5.88136C16.8499 5.88136 16.8499 5.82573 16.8499 5.77011C16.7943 5.43634 16.2939 4.26814 15.5709 3.26683C15.1817 2.20989 14.6256 1.37547 14.4032 0.930444C14.4032 0.874815 14.4032 0.763559 14.5144 0.763559C14.848 0.763559 15.5709 0.652302 16.7943 0.763559C17.6285 0.930444 18.6294 0.763559 19.0743 0.763559C19.1855 0.763559 19.1855 0.819187 19.1855 0.930444C19.1299 1.31984 19.7416 2.09864 20.687 3.48935C20.687 4.43503 21.7435 5.32508 22.1884 6.38202C22.4108 7.10519 22.3552 7.27207 23.0225 8.05087C23.0225 8.05087 23.0225 8.05087 23.0225 8.10649C23.0225 8.82966 23.523 9.4972 23.9679 9.8866C24.3571 10.3316 24.5796 11.2217 24.9688 11.8336C24.9688 12.6124 25.6918 13.113 25.9698 13.7806C26.3591 14.8375 26.9708 14.9488 26.9708 15.7276C27.1932 16.7289 27.6381 17.2295 27.9717 17.6746C28.4166 18.2308 28.7503 18.7315 28.9171 19.5103C29.0283 20.1222 29.0283 20.6785 29.7512 21.2348C29.7512 21.2348 29.7512 21.2348 29.7512 21.2904C30.0849 22.5142 31.0302 22.7924 31.2527 24.1831C32.1424 25.7407 32.476 26.3526 32.5873 26.6863C32.5873 26.742 32.6985 26.7976 32.7541 26.742C32.9765 26.6863 33.6438 26.6863 34.6448 26.8532C35.4233 26.6307 36.1462 26.9089 36.5911 26.8532C36.5911 26.8532 36.6467 26.8532 36.7023 26.8532M27.5825 26.9645C28.0273 26.7976 27.1932 26.3526 26.9152 25.7407C26.4147 24.795 25.6918 24.35 25.3581 22.5699C25.0245 21.9579 24.7464 21.1791 24.3571 20.5672C23.6342 20.1222 23.7455 19.0653 23.3006 18.4534C23.0781 17.8414 22.5777 17.2295 22.244 16.3395C21.5767 15.6163 21.4655 14.5037 21.2431 14.3369C21.0762 13.2799 19.8528 12.223 19.6304 11.1661C19.0187 10.3316 19.1855 9.94223 18.9631 9.8866C18.9631 9.8866 18.2958 9.99786 18.2958 11.1661C17.9065 11.778 17.2948 12.9462 16.6275 14.3369C16.4051 14.7263 16.0158 15.6719 15.5709 16.3395C15.1261 17.1183 14.6812 17.8971 14.4588 18.4534C13.6802 19.2878 13.5134 20.1778 13.3466 20.5672C13.3466 21.5685 12.7349 22.0692 12.29 22.5699C11.6227 23.6824 11.0666 24.8506 10.6218 25.7407C10.2881 26.2413 10.0101 26.6307 9.95445 26.9089C9.95445 26.9089 9.95445 27.0201 10.0101 27.0201C10.2325 27.0201 10.6774 27.0201 11.2335 27.0201C12.0676 27.1314 13.1242 27.0201 14.5144 27.0201C15.0149 26.7976 15.9046 27.0201 16.5719 27.0201C17.128 27.2983 18.4626 27.5764 18.7963 27.0201C19.3523 27.0201 19.964 27.4651 21.0206 27.0201C21.7435 27.187 22.4664 27.4095 23.0781 27.0201C24.4684 26.6863 25.6918 27.187 26.3591 27.0201C27.36 27.187 27.1376 26.9089 27.6937 27.0201" fill="#808060"/>
<path d="M51.2712 20.011C52.2166 20.2892 52.9395 21.2349 53.8292 21.4574C54.4965 21.6243 55.1082 22.5699 55.8311 23.4044C56.4428 24.0719 56.7209 25.0732 57.1101 25.7964C57.4438 26.4639 57.4994 27.354 57.555 28.5222C57.555 28.8003 57.555 30.0241 57.555 30.6917C57.555 30.9142 57.3882 31.0811 57.1658 31.0811C56.3872 31.0811 54.6634 30.9698 53.996 31.0811C53.8292 31.0811 53.6068 30.9698 53.5512 30.8029C53.4956 30.4135 53.44 29.8016 53.5512 29.5791C53.5512 29.4678 53.6624 29.4122 53.6624 29.301C53.6624 28.7447 53.6624 27.9659 53.3287 27.354C53.3287 26.9089 52.6614 26.1858 52.3278 25.6295C52.3278 25.6295 52.3278 25.6295 52.2722 25.5739C51.9385 25.2957 50.882 24.4613 50.6039 24.2388C49.6029 23.6825 49.1025 23.46 48.2683 23.2931C47.3786 22.9037 46.7669 22.4587 45.2655 22.6812C45.2655 22.6812 45.2098 22.6812 45.1542 22.6812C43.9308 22.5143 43.0411 22.2362 41.5397 22.4587H41.4284C41.1504 22.3474 39.2597 22.4587 38.648 22.4587C38.5368 22.4587 38.4812 22.4031 38.4812 22.2918C38.4812 21.6243 38.1475 19.6773 38.4812 19.4548C38.8704 19.0097 39.2041 18.6203 40.5387 17.1184C40.928 16.6177 41.5953 15.7277 42.5962 14.782C43.3747 13.725 44.4869 12.9462 44.9874 12.0562C45.8215 10.9993 46.7669 10.1648 47.3786 9.3304C47.9903 8.71849 48.7688 7.77281 49.4361 6.99401C50.3815 5.99271 50.9376 5.26954 51.2712 4.93577C51.3824 4.82451 51.2712 4.65763 51.1044 4.65763C50.4927 4.65763 49.1581 4.93577 47.6566 4.65763C46.4888 4.65763 45.1542 4.88014 44.0977 4.65763C42.8743 4.65763 41.8733 4.37949 40.5387 4.65763C40.5387 4.65763 40.5387 4.65763 40.4831 4.65763C38.648 4.65763 37.1466 4.65763 36.7017 4.65763C36.2568 4.65763 36.2568 6.04833 36.7017 6.93839C36.7017 6.99402 36.7017 7.04964 36.7017 7.1609C36.5349 7.9397 36.5905 8.71849 36.5905 9.16352C36.5905 9.3304 36.4793 9.44166 36.3124 9.44166C35.3671 9.44166 33.3652 9.3304 32.9759 9.44166C32.9759 9.44166 32.9759 9.44166 32.9203 9.44166C32.8091 9.3304 33.2539 8.99663 32.9203 8.10658C32.8647 7.5503 32.9203 5.60331 32.9203 5.10265C32.9203 4.15697 32.8091 3.21129 32.9203 2.09873C32.9203 1.6537 33.0315 1.37556 32.9759 1.15304C32.9759 0.930531 33.1427 0.763647 33.3652 0.763647C33.81 0.763647 34.5329 0.763647 35.7563 0.763647C36.7017 0.596762 37.5914 0.819275 38.7592 0.763647C39.7602 0.65239 40.8723 0.374249 42.3182 0.763647C42.3182 0.763647 42.3182 0.763647 42.3738 0.763647C43.1523 0.874903 43.9308 0.541133 44.4869 0.763647C44.9874 1.04179 45.7659 0.98616 46.6557 0.763647C47.2674 0.98616 48.2683 0.596762 48.7688 0.763647C50.159 0.262992 51.6049 1.15304 52.4946 0.763647C54.2741 0.596762 55.4419 0.541133 55.8868 0.65239C55.998 0.65239 56.1092 0.819275 56.1092 0.930531C56.1092 1.2643 56.1092 1.87621 56.1092 2.76626C56.0536 3.32255 55.998 3.93446 56.1092 4.602C56.1092 4.71326 56.1092 4.82451 55.998 4.93577C55.7755 5.10265 55.6087 5.32517 55.2194 5.82582C54.6077 6.32648 54.1073 7.21653 52.9395 8.44035C52.8283 8.88538 51.5493 9.7198 51.4936 10.1092C51.3268 10.6099 50.5483 11.2774 49.9922 11.8337C49.6029 12.1118 48.5464 13.0575 48.4908 13.5582C47.9347 14.1701 47.8791 14.6707 47.1005 15.1714C47.1005 15.1714 46.9893 15.227 46.9893 15.2826C46.0996 16.5065 45.1542 17.1184 44.765 17.8415C44.2645 18.5647 43.9308 18.4534 43.8752 18.8985C44.0421 19.1766 44.765 19.0654 44.8762 18.8985C44.8762 18.8985 44.8762 18.8428 44.9874 18.8428C46.1552 18.7316 47.4342 19.121 48.2683 19.121C48.88 19.1766 50.0478 19.2879 51.3268 20.011" fill="#808060"/>
<path d="M114.275 31.1923C114.108 30.7473 114.275 30.0797 114.275 28.9116C114.219 28.0771 114.386 27.2983 114.275 26.742C114.275 26.6864 114.275 26.6308 114.219 26.5752C113.775 25.9633 113.163 25.6851 111.717 24.2388C110.716 23.6825 109.771 22.5143 109.103 21.7355C108.547 20.9567 108.214 21.0123 107.602 20.2892C107.101 19.3435 106.267 19.4547 106.045 18.7872C105.6 18.1753 105.1 17.6746 104.488 17.3409C103.709 17.0071 103.487 16.2839 102.986 15.8945C102.263 14.9489 101.151 13.6694 100.373 13.3913C100.373 13.3913 100.373 13.3913 100.317 13.3913C99.0381 12.0006 98.204 11.2774 97.8704 11.0549C97.8148 11.0549 97.7035 11.0549 97.7035 11.1105C97.5367 11.5555 97.5367 12.3343 97.7591 14.1701C97.5367 15.0601 97.7591 16.6177 97.7591 17.4521C97.9816 18.1753 97.7591 19.8998 97.7591 21.1792C97.926 22.5143 97.6479 23.1818 97.7591 24.9619C97.7591 26.3527 97.7591 27.0202 97.7591 28.1884C97.7591 28.1884 97.7591 28.1884 97.7591 28.244C98.2596 29.8572 98.204 31.5261 97.7591 31.4148C97.3699 30.9142 95.9797 31.4705 95.5904 31.4148C94.367 31.3036 93.9777 31.3592 93.5885 31.4148C93.4773 31.4148 93.366 31.4148 93.366 31.2479C93.3104 30.8585 93.7553 30.4135 93.4217 28.244C93.366 26.9089 93.2548 25.852 93.4217 24.7951C93.5885 24.1275 93.5329 23.2931 93.4217 22.7924C92.9212 21.4574 93.4217 21.5686 93.4217 20.6786C93.4217 19.5104 93.2548 18.2309 93.4217 17.2852C93.4773 16.0058 93.1436 15.227 93.4217 13.8919C93.4217 13.8919 93.4217 13.8919 93.4217 13.8363C93.3104 12.5012 93.3104 11.4443 93.4217 10.5542C93.1992 9.66417 93.3104 8.5516 93.4217 7.43903C93.5329 6.32647 93.1992 5.43641 93.4217 4.76888C93.4217 4.10134 93.9221 3.4338 93.4217 2.655C93.1992 1.82058 93.3104 1.15304 93.4217 0.874895C93.4217 0.874895 93.4773 0.763639 93.5329 0.763639C93.8665 0.652382 94.7007 0.763639 95.5904 0.763639C95.5904 0.763639 95.5904 0.763639 95.646 0.763639C96.7026 0.485497 97.3699 0.541126 97.8148 0.763639C98.3708 0.819267 97.8148 1.82058 97.8148 3.0444C97.8704 4.88013 97.7591 5.15827 97.8148 5.32516C98.0372 5.82581 98.8157 6.49335 100.373 7.7728C101.151 8.38471 102.43 9.21914 102.986 10.2761C102.986 10.2761 102.986 10.2761 103.042 10.3317C103.542 10.6098 104.043 11.1105 104.488 11.7224C105.155 12.39 105.489 12.7793 106.045 13.1687C106.434 13.7807 107.101 14.0032 107.546 14.6151C108.714 15.4495 109.437 16.2839 110.049 17.0071C110.049 17.0071 110.049 17.0071 110.049 17.0627C110.382 18.1753 111.661 18.2866 112.162 19.0653C113.052 19.7329 113.552 20.6229 113.886 20.9011C113.997 21.0123 114.164 20.9011 114.164 20.7898C114.164 20.2335 114.053 19.1766 114.164 17.8415C114.108 16.8402 114.219 15.8389 114.164 14.5595C114.275 13.4469 113.941 12.39 114.164 10.8324C114.164 9.66417 114.497 8.32909 114.164 7.04964C113.941 6.32647 114.053 4.21259 114.164 3.82319C114.219 2.37686 113.997 1.31992 113.997 0.874895C113.997 0.763639 114.108 0.652382 114.275 0.708011C114.609 0.819267 115.776 1.04178 116.277 0.708011C116.277 0.708011 116.388 0.708011 116.444 0.708011C117.5 0.986152 118.112 0.485497 118.446 0.652382C118.446 0.652382 118.501 0.708011 118.501 0.763639C118.501 1.15304 118.779 2.15435 118.501 3.82319V3.93445C118.835 5.26953 118.501 6.54898 118.501 7.27215C118.501 7.27215 118.501 7.27215 118.501 7.32778C118.779 8.27346 118.724 8.82974 118.501 9.21914C118.501 9.21914 118.501 9.27477 118.501 9.33039C118.668 10.1092 118.557 10.8324 118.501 11.3886C118.446 11.9449 118.39 12.8906 118.501 13.5581C118.501 13.5581 118.501 13.6138 118.501 13.6694C118.223 14.1701 118.334 15.1157 118.501 15.8389C118.501 15.8389 118.501 15.9502 118.501 16.0058C118.334 16.7846 118.501 17.4521 118.501 18.2309C118.39 18.9541 118.557 19.566 118.501 20.4561C118.557 20.9567 118.612 21.4017 118.501 22.6256C118.446 23.46 118.501 23.905 118.501 24.6282C118.557 26.0189 118.557 27.2983 118.501 28.0215C118.501 28.0215 118.501 28.0215 118.501 28.0771C119.224 29.6903 118.946 31.0254 118.501 31.2479C118.279 31.3036 117.556 31.0254 116.388 31.2479C116.388 31.2479 116.333 31.2479 116.277 31.2479C115.554 30.9698 114.664 31.5817 114.164 31.2479" fill="#808060"/>
<path d="M80.4112 16.4509C79.7995 16.4509 79.5771 15.9502 78.5205 16.729C77.9088 16.9515 77.0191 17.3965 75.8513 17.619C75.8513 17.619 75.8513 17.619 75.7957 17.619C74.2942 18.231 73.5713 18.6204 72.2923 18.7872C71.2913 19.2879 70.2348 19.1766 69.1226 19.1766C67.8992 19.0098 66.8982 19.2879 65.8417 18.7316H65.7305C64.7851 18.7316 63.3393 18.0084 62.4495 17.3409C62.2271 17.2296 62.6164 16.3952 62.4495 15.227C62.6164 14.3926 62.3383 13.6138 62.3939 13.28C62.3939 13.2244 62.5051 13.1688 62.5608 13.2244C63.8398 14.1701 64.1178 14.5595 65.5636 14.782C66.8982 14.9489 68.066 15.2827 69.0114 15.4495H69.1226C69.9011 15.4495 70.1236 15.227 70.9021 15.1714C70.9021 15.1714 70.9577 15.1714 71.0133 15.1714C72.0143 14.7264 72.7372 14.8933 73.6269 14.337C73.6269 14.337 73.6269 14.337 73.6825 14.337C75.4064 13.7251 76.1293 13.28 77.1859 13.1688C78.1312 13.0575 79.4102 12.7238 80.3556 12.7794C81.2453 12.6681 82.9136 12.7794 83.6921 13.2244C84.5819 13.6138 85.5272 13.9476 87.0287 14.6151C87.8072 14.8376 86.9731 15.5052 87.0287 16.729C87.0287 17.2853 87.0287 17.8416 87.0287 18.2866C87.0287 18.5647 86.7506 18.676 86.5282 18.5647C85.7497 18.1197 84.6931 17.8972 83.8033 17.2296C83.3585 16.6734 81.6902 16.4509 80.3 16.5621" fill="#808060"/>
<path d="M80.41 4.43502C79.3534 4.60191 79.5202 4.43502 78.5193 4.71316C77.852 4.82442 76.9622 5.32507 75.8501 5.60322C74.3486 6.27075 73.2921 6.88267 72.2911 6.77141C71.1233 6.66015 69.9555 7.21644 69.1214 7.16081C68.0648 7.04955 67.3975 6.60452 65.7849 6.71578C64.6727 6.27075 64.0054 5.93698 62.4483 5.3807C61.8922 5.43633 62.4483 4.71316 62.4483 3.26683C62.4483 1.93175 62.3927 1.82049 62.4483 1.31984C62.4483 1.26421 62.5595 1.20858 62.6151 1.26421C63.6161 2.09863 64.7839 2.26552 65.618 2.8218C66.7302 3.32246 67.6756 3.48934 69.1214 3.48934C70.0667 3.48934 70.1223 3.71185 71.0121 3.2112C71.3457 3.09994 72.736 2.87743 73.6813 2.32115C74.9047 1.54235 76.4061 1.31984 77.2403 1.15295C78.2412 0.763554 79.5203 0.874811 80.41 0.763554C81.2997 0.652297 82.69 0.986067 83.7465 1.20858C84.8587 1.20858 86.4157 2.20989 87.0274 2.54366C87.0831 2.54366 87.1387 2.65492 87.1387 2.71054C87.1387 2.98869 87.1387 3.76748 87.1387 4.71316C87.2499 5.26945 87.1387 6.04824 87.1387 6.43764C87.1387 6.60452 86.9718 6.66015 86.8606 6.5489C85.9153 5.82573 84.9699 5.21382 84.0246 5.10256C83.0792 4.82442 81.5778 4.21251 80.5212 4.43502" fill="#808060"/>
<path d="M69.0667 27.4652C69.9008 27.6877 70.3457 27.5765 70.9018 27.2427C70.9018 27.2427 70.9574 27.2427 71.013 27.2427C71.7359 27.2427 72.5144 26.7977 73.6266 26.3526C75.128 25.5182 76.6851 25.4626 77.1856 25.1844C77.9085 24.6838 79.0207 25.0176 80.3553 24.795C82.1904 24.6282 82.1348 24.795 83.6918 25.2401C84.4703 25.5738 86.3054 25.9632 87.0283 26.6308C87.362 26.5195 86.9727 28.0771 87.0283 28.7447C87.0283 29.4122 86.9727 29.9685 86.9727 30.3022C86.9727 30.4691 86.7503 30.5248 86.6391 30.4135C85.7493 29.6903 84.804 29.6347 83.9142 29.1341C82.7465 28.6334 82.3016 28.0215 80.4665 28.4665C80.4665 28.4665 80.4665 28.4665 80.4109 28.4665C79.8548 28.4665 79.1319 28.2996 78.5202 28.7447C77.6861 28.9115 77.2968 29.3009 75.851 29.6347C74.1827 29.746 73.5154 30.4691 72.3476 30.8029C71.5691 30.9142 70.5125 30.9142 69.2335 31.1923C68.5662 31.4148 67.2872 31.3592 65.897 30.7473C65.1184 30.191 63.895 29.9685 62.8941 29.5791C62.7829 29.5791 62.7829 29.4122 62.7829 29.3009C62.8385 29.0784 62.616 28.4109 62.5604 27.2427C62.3936 26.8533 62.4492 25.9632 62.5048 25.4626C62.5048 25.2957 62.6717 25.2401 62.8385 25.3513C63.6726 25.9076 64.7848 26.1858 65.7301 26.7977C65.7301 26.7977 65.7301 26.7977 65.8414 26.7977C67.1204 26.9089 68.5662 27.2983 69.2891 27.4652" fill="#808060"/>
<path d="M3.26551 45.6166C2.47269 45.6166 1.80334 45.4217 1.25746 45.0318C0.718087 44.6354 0.389912 44.0862 0.272938 43.3844H1.24772C1.41018 43.8328 1.65387 44.161 1.9788 44.3689C2.31023 44.5769 2.74888 44.6809 3.29475 44.6809C3.82113 44.6809 4.24679 44.5866 4.57171 44.3982C4.89664 44.2032 5.0591 43.953 5.0591 43.6476C5.0591 43.3812 4.93888 43.1667 4.69843 43.0042C4.45799 42.8353 4.06158 42.6956 3.5092 42.5851L2.76837 42.4486C1.99505 42.3121 1.41668 42.0782 1.03327 41.7468C0.649853 41.4088 0.458146 40.9929 0.458146 40.4991C0.458146 40.1221 0.57187 39.7907 0.799319 39.5048C1.02677 39.2188 1.34519 38.9979 1.7546 38.8419C2.16401 38.6795 2.63515 38.5982 3.16803 38.5982C3.86337 38.5982 4.46774 38.7704 4.98112 39.1149C5.4945 39.4528 5.83243 39.9304 5.99489 40.5478H4.97137C4.8414 40.2164 4.60745 39.9662 4.26953 39.7972C3.93811 39.6218 3.55469 39.534 3.11929 39.534C2.60591 39.534 2.19975 39.625 1.90082 39.807C1.60838 39.9824 1.46217 40.2261 1.46217 40.538C1.46217 40.7915 1.57914 40.9962 1.81309 41.1522C2.05353 41.3081 2.43045 41.4316 2.94383 41.5226L3.68466 41.6493C4.50348 41.7858 5.10459 42.0197 5.488 42.3511C5.87142 42.6826 6.06312 43.1082 6.06312 43.6281C6.06312 44.018 5.9429 44.3624 5.70246 44.6614C5.46851 44.9603 5.14033 45.1942 4.71793 45.3632C4.29553 45.5322 3.81139 45.6166 3.26551 45.6166ZM11.6227 39.612V41.6493H14.937V42.5656H11.6227V44.6029H15.2294V45.5192H10.6479V38.6957H15.2294V39.612H11.6227ZM24.3518 43.9595H20.8913L20.0238 45.5192H18.932L22.178 39.846L21.5639 38.6957H22.7239L26.3403 45.5192H25.1804L24.3518 43.9595ZM23.8742 43.0627L22.6752 40.7817L21.3982 43.0627H23.8742ZM42.561 44.5834V45.5192H42.3368C42.0119 45.5192 41.6935 45.4412 41.3816 45.2852C41.0761 45.1293 40.7935 44.9408 40.5335 44.7198C40.2801 44.4989 39.9746 44.2097 39.6172 43.8523C39.2013 43.4299 38.8601 43.1212 38.5937 42.9263C38.3273 42.7248 38.0673 42.6241 37.8139 42.6241H37.7456V45.5192H36.7709V38.6957H39.7537C40.2086 38.6957 40.5985 38.7802 40.9234 38.9492C41.2548 39.1116 41.505 39.3423 41.674 39.6412C41.8495 39.9402 41.9372 40.2781 41.9372 40.655C41.9372 41.0384 41.8495 41.3796 41.674 41.6785C41.505 41.971 41.2548 42.2017 40.9234 42.3706C40.5985 42.5396 40.2086 42.6241 39.7537 42.6241H39.5782C39.7407 42.7215 39.8967 42.8385 40.0461 42.975C40.2021 43.105 40.3905 43.2772 40.6115 43.4916C40.9884 43.8555 41.3101 44.1285 41.5765 44.3104C41.843 44.4924 42.1289 44.5834 42.4343 44.5834H42.561ZM39.6952 41.8053C40.0851 41.8053 40.384 41.711 40.592 41.5226C40.8064 41.3276 40.9137 41.0514 40.9137 40.694C40.9137 40.3366 40.8064 40.0637 40.592 39.8752C40.384 39.6802 40.0851 39.5828 39.6952 39.5828H37.7456V41.8053H39.6952ZM47.8209 39.612V41.6493H51.1351V42.5656H47.8209V44.6029H51.4276V45.5192H46.8461V38.6957H51.4276V39.612H47.8209ZM58.5004 45.6166C57.7076 45.6166 57.0383 45.4217 56.4924 45.0318C55.953 44.6354 55.6248 44.0862 55.5079 43.3844H56.4826C56.6451 43.8328 56.8888 44.161 57.2137 44.3689C57.5452 44.5769 57.9838 44.6809 58.5297 44.6809C59.0561 44.6809 59.4817 44.5866 59.8066 44.3982C60.1316 44.2032 60.294 43.953 60.294 43.6476C60.294 43.3812 60.1738 43.1667 59.9334 43.0042C59.6929 42.8353 59.2965 42.6956 58.7441 42.5851L58.0033 42.4486C57.23 42.3121 56.6516 42.0782 56.2682 41.7468C55.8848 41.4088 55.6931 40.9929 55.6931 40.4991C55.6931 40.1221 55.8068 39.7907 56.0342 39.5048C56.2617 39.2188 56.5801 38.9979 56.9895 38.8419C57.3989 38.6795 57.8701 38.5982 58.403 38.5982C59.0983 38.5982 59.7027 38.7704 60.216 39.1149C60.7294 39.4528 61.0674 39.9304 61.2298 40.5478H60.2063C60.0763 40.2164 59.8424 39.9662 59.5045 39.7972C59.173 39.6218 58.7896 39.534 58.3542 39.534C57.8408 39.534 57.4347 39.625 57.1357 39.807C56.8433 39.9824 56.6971 40.2261 56.6971 40.538C56.6971 40.7915 56.8141 40.9962 57.048 41.1522C57.2885 41.3081 57.6654 41.4316 58.1788 41.5226L58.9196 41.6493C59.7384 41.7858 60.3395 42.0197 60.7229 42.3511C61.1063 42.6826 61.298 43.1082 61.298 43.6281C61.298 44.018 61.1778 44.3624 60.9374 44.6614C60.7034 44.9603 60.3753 45.1942 59.9529 45.3632C59.5304 45.5322 59.0463 45.6166 58.5004 45.6166ZM66.8576 38.6957V45.5192H65.8829V38.6957H66.8576ZM74.3661 38.6957C75.0939 38.6957 75.7243 38.8452 76.2572 39.1441C76.7965 39.443 77.2092 39.8525 77.4951 40.3723C77.7811 40.8857 77.924 41.4641 77.924 42.1074C77.924 42.7508 77.7811 43.3324 77.4951 43.8523C77.2092 44.3657 76.7965 44.7718 76.2572 45.0708C75.7243 45.3697 75.0939 45.5192 74.3661 45.5192H72.0266V38.6957H74.3661ZM74.3661 44.5834C74.8795 44.5834 75.3279 44.4827 75.7113 44.2812C76.0947 44.0797 76.3871 43.7938 76.5886 43.4234C76.7965 43.0465 76.9005 42.6078 76.9005 42.1074C76.9005 41.6071 76.7965 41.1717 76.5886 40.8012C76.3871 40.4243 76.0947 40.1351 75.7113 39.9337C75.3279 39.7322 74.8795 39.6315 74.3661 39.6315H73.0014V44.5834H74.3661ZM83.6288 39.612V41.6493H86.943V42.5656H83.6288V44.6029H87.2355V45.5192H82.654V38.6957H87.2355V39.612H83.6288ZM98.1541 38.6957V45.5192H97.0819L93.5532 40.8597L92.5004 45.5192H91.5256L92.8221 39.8849L91.9155 38.6957H93.1438L97.1794 44.096V38.6957H98.1541ZM102.88 42.1074C102.88 41.4576 103.033 40.8662 103.338 40.3333C103.65 39.794 104.072 39.3716 104.605 39.0661C105.138 38.7542 105.729 38.5982 106.379 38.5982C106.88 38.5982 107.348 38.6957 107.783 38.8907C108.218 39.0791 108.592 39.3521 108.904 39.7095C109.222 40.0604 109.456 40.4698 109.606 40.9377H108.524C108.322 40.5023 108.036 40.1611 107.666 39.9142C107.302 39.6607 106.873 39.534 106.379 39.534C105.918 39.534 105.499 39.6477 105.122 39.8752C104.745 40.1026 104.446 40.4146 104.225 40.811C104.011 41.2009 103.903 41.633 103.903 42.1074C103.903 42.5818 104.011 43.0172 104.225 43.4136C104.446 43.8036 104.745 44.1122 105.122 44.3397C105.499 44.5671 105.918 44.6809 106.379 44.6809C106.873 44.6809 107.302 44.5574 107.666 44.3104C108.036 44.057 108.322 43.7126 108.524 43.2772H109.606C109.456 43.7451 109.222 44.1577 108.904 44.5151C108.592 44.8661 108.218 45.139 107.783 45.334C107.348 45.5224 106.88 45.6166 106.379 45.6166C105.729 45.6166 105.138 45.4639 104.605 45.1585C104.072 44.8466 103.65 44.4242 103.338 43.8913C103.033 43.3519 102.88 42.7573 102.88 42.1074ZM115.206 39.612V41.6493H118.521V42.5656H115.206V44.6029H118.813V45.5192H114.232V38.6957H118.813V39.612H115.206Z" fill="#808060"/>
</svg>
