<svg width="1920" height="1474" viewBox="0 0 1920 1474" fill="none" xmlns="http://www.w3.org/2000/svg">
<g clip-path="url(#clip0_3077_962)">
<path d="M-2641.08 -104.655C-2631.6 -117.111 -2625.71 -116.214 -2622.76 -101.791C-2619.14 -79.6914 -2599.66 -88.7861 -2583.8 -119.98C-2577.05 -132.483 -2569.88 -131.244 -2560.86 -116.56C-2549.82 -99.2863 -2546.93 -99.8765 -2546.61 -118.876C-2546.55 -131.81 -2553.62 -148.697 -2562.13 -155.069C-2571.75 -162.417 -2570.64 -171.661 -2559.99 -178.349C-2549.5 -184.401 -2545.71 -201.106 -2549.59 -217.141C-2554.87 -235.595 -2550.53 -246.701 -2534.84 -249.312C-2516.26 -252.513 -2479.78 -294.539 -2437.92 -361.707C-2434.48 -366.92 -2421.42 -364.784 -2407.99 -356.413C-2387.44 -344.09 -2382.6 -346.883 -2372.9 -372.91C-2362.69 -400.846 -2361.24 -401.141 -2356.69 -377.429C-2353.74 -363.006 -2346.2 -355.533 -2339.75 -359.257C-2333.13 -363.617 -2329.08 -376.166 -2331.74 -389.146C-2336.12 -413.494 -2305.39 -436.613 -2294.05 -417.897C-2289.69 -411.276 -2279.64 -410.628 -2268.98 -417.315C-2258.5 -423.367 -2247.35 -421.742 -2242.23 -412.873C-2232.92 -396.746 -2149.69 -379.217 -2056.99 -374.144C-2022.68 -372.449 -2000.18 -362.328 -1997.69 -348.712C-1995.67 -335.902 -1992.54 -332.336 -1990.66 -339.331C-1983.68 -365.404 -1796.33 -347.241 -1796.79 -320.1C-1796.97 -309.243 -1792.01 -309.958 -1782.88 -321.143C-1775.36 -331.397 -1765.09 -334.099 -1761.07 -326.206C-1756.88 -318.95 -1744.12 -318.256 -1733.64 -324.308C-1723.16 -330.359 -1714.89 -328.144 -1714.56 -319.196C-1714.4 -309.611 -1707.75 -306.465 -1698.71 -312.222C-1689.67 -317.978 -1661.89 -317.351 -1634.67 -312.102C-1607.62 -306.218 -1566.66 -301.376 -1540.49 -299.818C-1514.33 -298.26 -1494.49 -290.9 -1495.26 -282.928C-1495.57 -274.15 -1490.02 -271.98 -1481.95 -276.635C-1473.89 -281.291 -1468.04 -277.679 -1468.52 -268.265C-1468.83 -259.486 -1458.31 -258.032 -1447.02 -264.549C-1434.93 -271.532 -1364.45 -264.917 -1292.38 -249.012C-1220.13 -233.743 -1152.24 -225.095 -1144.18 -229.751C-1136.12 -234.406 -1128.83 -231.089 -1129.13 -222.311C-1129.44 -213.533 -1119.9 -210.977 -1110.06 -217.199C-1099.57 -223.251 -1090.5 -221.501 -1090.98 -212.087C-1091.28 -203.309 -1081.75 -200.753 -1071.26 -206.805C-1042.06 -224.2 -973.85 -206.603 -973.795 -181.37C-973.853 -168.435 -970.844 -166.947 -965.233 -177.712C-952.864 -200.98 -836.318 -170.433 -836.775 -143.292C-836.878 -127.643 -834.288 -129.676 -826.587 -150.786C-818.374 -173.805 -813.072 -175.792 -794.983 -159.358C-782.866 -148.614 -760.268 -143.921 -744.698 -148.61C-729.128 -153.299 -706.234 -147.165 -694.459 -135.149C-682.684 -123.133 -665.048 -117.726 -656.008 -123.483C-646.968 -129.24 -636.112 -129.057 -632.853 -123.413C-629.594 -117.768 -610.641 -114.735 -591.596 -117.129C-546.466 -122.758 -439.322 -102.909 -215.724 -47.0859C-119.822 -23.434 -6.36389 0.832799 35.2334 5.84446C76.195 10.6858 120.369 23.8854 131.85 34.459C143.33 45.0326 156.684 48.6109 159.83 41.9564C165.1 32.4631 275.889 53.9699 362.626 81.3003C375.345 84.7083 470.951 106.918 576.437 130.412C681.457 153.099 767.432 178.181 767.466 185.687C767.499 193.194 774.494 195.068 783.535 189.311C792.574 183.554 853.761 191.77 919.773 207.413C985.785 223.057 1042.3 233.43 1045.7 230.932C1049.73 228.604 1135.97 247.622 1237.42 273.443C1338.88 299.264 1428.17 317.056 1435.6 312.23C1443.02 307.404 1445.68 320.385 1441.33 341.711C1434.5 377.369 1434.8 378.811 1458.3 367.389C1471.67 360.747 1489.71 351.947 1498.4 347.462C1514.02 340.06 1557.99 346.389 1604.03 362.814C1616.41 367.494 1652.87 373.856 1683.15 377.879C1713.59 381.266 1743.43 391.988 1748.56 400.858C1753.68 409.728 1766.57 412.5 1775.61 406.743C1791.1 397.262 1821.82 412.311 1836.43 436.672C1839.69 442.316 1834.83 455.33 1825.24 465.709C1808.97 483.162 1808.97 483.162 1830.4 471.864C1842.33 465.517 1852.84 466.972 1852.71 475.114C1852.57 483.256 1871.71 475.433 1896.11 458.117C1942.21 423.44 1957.01 426.723 2019.96 481.76C2031.44 492.334 2046.92 493.073 2054.1 484.091C2063.4 472.27 2069.88 476.052 2076.39 497.562C2083.66 521.319 2086.83 522.171 2092.92 501.992C2100.59 473.375 2120.67 456.944 2120.77 479.464C2120.63 487.606 2133.01 492.286 2146.8 489.164C2174.37 482.921 2237.78 510.817 2219.41 520.888C2213.76 524.147 2201.04 520.739 2190.79 513.22C2180.54 505.702 2168.87 505.985 2164.24 515.648C2153.19 536.543 2208.78 545.303 2238.78 527.442C2254.27 517.961 2263.08 525.775 2278.31 560.526C2295.52 600.581 2300.27 603.216 2319.76 583.901C2332.75 571.024 2344.63 567.391 2349.28 575.455C2353.47 582.712 2366.24 583.405 2378.33 576.422C2395.44 566.01 2391.2 561.467 2351.94 550.267C2325.23 543.11 2306.84 535.454 2310.06 533.592C2320.55 527.54 2396.14 543.025 2401.73 552.701C2404.52 557.539 2429.79 564.991 2458.28 570.581C2486.77 576.17 2500.08 582.463 2487.27 584.483C2471.58 587.094 2468.85 597.269 2478.75 616.28C2488.95 636.733 2494.67 638.267 2498.47 621.562C2506.57 586.245 2521.75 585.542 2541.94 619.579C2553.28 638.295 2563.88 644.542 2568.98 635.684C2573.1 627.928 2569.29 616.685 2561.07 611.756C2551.58 606.486 2553.07 603.476 2563.92 603.659C2574.78 603.842 2587.11 611.236 2592.87 620.276C2597.99 629.145 2619.83 631.589 2641.34 625.084C2677.61 614.355 2678.71 615.332 2661.72 638.043C2651.1 652.237 2650.03 658.767 2659.54 653.816C2670.02 647.764 2678.03 656.044 2683.9 677.383C2691.83 708.817 2692.64 708.352 2702.6 676.26C2711.88 646.712 2716.25 643.112 2738.98 649.883C2754.87 654.142 2759.41 660.128 2751.17 665.419C2743.91 669.609 2745.22 677.456 2754.25 681.92C2763.28 686.383 2776.43 683.091 2783.6 674.109C2790.78 665.127 2799.61 662.72 2803.33 669.171C2807.52 676.428 2805.65 683.423 2798.39 687.613C2791.94 691.337 2795.91 701.944 2807.27 710.44C2819.72 719.912 2825.96 719.538 2823.43 708.635C2816.72 680.256 2844.29 674.012 2906.61 690.711C2946.68 701.446 2963.12 711.305 2954.97 721.388C2933.77 747.063 2954.16 760.022 2985.77 741.23C3017.39 722.438 3104.05 744.977 3103.76 771.482C3103.48 797.987 3080.91 800.802 3076.23 775.011C3072.27 754.184 3070.49 755.751 3059.72 788.308C3046.61 827.054 3060.2 845.01 3089.4 827.615C3098.44 821.858 3111.8 825.436 3117.38 835.112C3134.78 864.31 3176.11 847.439 3166.26 815.493C3161.74 799.287 3160.53 786.011 3163.76 784.149C3179.25 774.668 3269.91 815.32 3283.12 837.261C3294.46 855.977 3297.81 856.193 3298.42 838.637C3298.7 822.352 3303.88 818.287 3315.91 824.238C3324.31 828.532 3327.86 835.618 3322.85 839.048C3317.84 842.477 3326.58 845.498 3342.56 844.33C3358.38 843.797 3371.06 849.92 3371.26 856.79C3371.29 864.297 3389.27 868.432 3409.76 865.742C3451.2 861.169 3478.14 882.703 3439.54 889.4C3426.73 891.42 3419.9 899.13 3424.09 906.387C3434.03 922.684 3471.7 914.375 3476.98 894.661C3479.37 885.758 3492.69 881.83 3507.32 885.749C3521.31 889.498 3529.19 895.699 3524.35 898.492C3519.51 901.285 3531.89 905.965 3550.38 908.192C3580.65 912.215 3583.79 915.781 3574.64 937.187C3565.5 958.592 3565.97 959.399 3579.3 945.25C3598.49 924.493 3743.19 961.901 3748.16 989.134C3750.35 1001.31 3762.09 1005.82 3778.3 1001.3C3804.94 993.442 3839.21 1025.8 3818.08 1038.54C3811.63 1042.26 3804.72 1034.96 3802.53 1022.79C3798.45 999.881 3772.32 1005.83 3771.9 1030.26C3771.76 1048.62 3793.5 1056.49 3849.69 1057.92C3855.76 1058.18 3860.38 1058.73 3865.64 1059.46L3843.68 1082.89C3829.37 1098.14 3817.14 1113.26 3815.48 1116.91C3814.29 1121.36 3817.25 1125.56 3825.05 1126.97C3831.41 1128.67 3844.62 1112.45 3853.25 1092.95L3867.71 1059.34C3887.3 1062.54 3897.09 1069.25 3895.93 1081.21C3892.38 1112.29 3941.01 1154.63 3968.16 1144.87C3988.74 1136.75 3987.52 1133.7 3953.53 1113C3913.06 1088.53 3907.22 1074.69 3937.71 1075.37C3947.13 1075.84 3961.32 1086.46 3969.58 1098.9C3977.02 1111.8 3991.14 1117.63 4000.99 1111.4C4010.03 1105.65 4026.48 1105.29 4035.51 1109.75C4046.27 1115.36 4042.83 1120.57 4024.72 1124.58C4009.49 1128 3992.17 1141.76 3986.68 1154.6C3978.22 1173.46 3980.94 1173.51 3998.01 1155.59C4014.91 1138.31 4025.3 1137.69 4042.46 1152.51C4055.21 1163.42 4065.32 1179.08 4065.02 1187.86C4065.35 1196.81 4072.25 1204.11 4081.83 1203.95C4091.25 1204.43 4092.24 1193.11 4083.69 1179.23C4075.14 1165.35 4074.26 1150.81 4081.52 1146.62C4088.78 1142.43 4094.46 1146.67 4094.15 1155.45C4094.31 1165.04 4098.54 1169.58 4104.99 1165.86C4111.44 1162.13 4121.28 1166.13 4128.77 1176.32C4135.8 1185.7 4147.36 1201.06 4154.39 1210.44C4162.98 1221.61 4174.01 1221.15 4185.56 1208.57C4195.16 1198.19 4210.26 1192.7 4218.02 1196.82C4225.77 1200.95 4224.83 1209.55 4215.16 1215.14C4206.12 1220.9 4199.78 1236.92 4201.8 1249.73C4207.61 1284 4221.64 1285.04 4229.06 1252.26C4233.41 1230.94 4243.51 1228.87 4291.08 1239.57C4352.81 1253.39 4392.25 1291.9 4363.05 1309.3C4352.57 1315.35 4350.23 1321.54 4357.22 1323.41C4364.22 1325.28 4368.83 1336.06 4367.37 1346.58C4365.41 1359 4377.01 1371.65 4397.15 1380.46C4418.82 1389.44 4431.24 1382.09 4434.41 1358.41C4438.31 1326.05 4439.28 1324.95 4444.13 1350.1C4448.09 1370.93 4453.01 1372.93 4466.39 1356.07C4475.52 1344.88 4481.33 1340.99 4479.46 1347.98C4474.86 1365.15 4521.94 1395.49 4538.24 1385.54C4544.86 1381.18 4569.92 1381.77 4591.71 1386.92C4627.84 1394.56 4631.14 1397.49 4616.95 1414.82C4607.48 1427.27 4608.87 1439.91 4621.15 1450.02C4638.02 1463.4 4636.87 1465.14 4612.02 1461.21C4594.34 1458.51 4582.93 1462.95 4582.92 1473.17C4582.44 1482.59 4604.32 1482.32 4631.47 1472.55C4678.23 1455.77 4679.97 1456.92 4673.35 1489.23C4666.57 1522.17 4667.21 1522.34 4699.74 1487.43C4740.88 1443.25 4749.92 1437.49 4758.47 1451.37C4762.2 1457.82 4748.6 1478.04 4726.4 1497.31C4693.33 1526.61 4691.11 1534.88 4711.23 1553.9C4724.11 1566.9 4736.18 1580.35 4739.61 1585.36C4742.4 1590.2 4753.6 1589.11 4765.06 1581.96C4781.36 1572.01 4780.3 1568.32 4759.66 1561.43C4735.83 1553.68 4736.48 1543.63 4761.72 1533.35C4767.2 1530.73 4767.97 1522.76 4763.32 1514.7C4757.26 1504.21 4761.3 1501.89 4777.36 1505.51C4794.53 1510.11 4799.02 1518.81 4795.43 1542.38C4792.52 1563.42 4794.04 1567.91 4800.63 1556.05C4805.9 1546.55 4813.62 1543.17 4817.35 1549.62C4821.07 1556.07 4831.34 1553.37 4839.49 1543.29C4849.6 1531 4861.73 1531.52 4876.81 1546.47C4889.85 1558.82 4908.81 1561.86 4922.69 1553.31C4935.59 1545.86 4939.76 1535.39 4932 1531.27C4923.61 1526.97 4920.18 1521.97 4924.21 1519.64C4932.27 1514.98 5077.34 1596.79 5085.89 1610.67C5089.32 1615.68 5077.74 1620.76 5060.48 1621.58C5021.8 1623.49 5018.41 1653.93 5055.25 1666.53C5073.35 1672.74 5082.34 1669.7 5088.22 1652.87C5093.58 1637.95 5101.64 1633.29 5111.77 1638.73C5129.66 1648.3 5105.91 1683.51 5082.12 1683.27C5073.34 1682.96 5063.06 1695.89 5058.63 1712.42C5054.2 1728.95 5044.34 1745.4 5037.08 1749.59C5020.79 1759.53 5048.43 1796.25 5144.08 1892.08C5185.55 1933.18 5203.8 1959.2 5198.99 1969.5C5194.36 1979.17 5198.59 1983.71 5211.4 1981.69C5225.66 1979.37 5225.44 1982.72 5210.58 1992.38C5199.59 2000.34 5193.17 2011.57 5196.9 2018.02C5200.62 2024.47 5210.25 2021.6 5217.43 2012.61C5237.01 1987.87 5267.59 2059.45 5252.62 2094.97C5241.64 2120.66 5242.58 2122.27 5266.97 2115.18C5287.04 2108.96 5286.99 2111.68 5265.51 2125.69C5249.85 2135.81 5244.07 2147.21 5252.46 2151.5C5260.86 2155.8 5270.49 2152.92 5274.61 2145.17C5284.51 2126.01 5293.99 2179.67 5287.12 2218.04C5284.6 2235.09 5267.43 2258.43 5249.69 2268.68C5228.56 2281.42 5225.41 2288.07 5239.62 2288.47C5254.46 2289.04 5251.35 2303.2 5229.72 2335.57C5203.85 2373.63 5195.45 2379.55 5182.53 2369.27C5165.66 2355.9 5119.46 2368.05 5026.28 2410.56C4989.11 2427.19 4981 2434.56 4999.2 2435.34C5019.47 2436 5017.89 2444.44 4993.04 2478.67C4966.23 2515.11 4956.56 2520.7 4924.79 2519.69C4887.77 2517.95 4872.13 2545.79 4900.95 2560.33C4907.44 2564.11 4906.37 2570.64 4898.31 2575.3C4843.35 2604.87 4830.44 2622.54 4843.47 2645.12C4852.02 2659 4865.5 2664.66 4875.99 2658.6C4886.47 2652.55 4899.28 2650.53 4906.57 2653.85C4913.22 2656.99 4902.31 2669.75 4882.79 2681.56C4835.04 2709.66 4832.47 2729.42 4874.88 2733.96C4908.04 2737.4 4907.87 2738.03 4876.9 2746.77C4859.89 2751.76 4834.48 2752.45 4821.47 2747.6C4807.82 2742.58 4789.11 2743.7 4779.1 2750.56C4763.78 2759.4 4761.11 2756.64 4764.99 2734.51C4767.81 2718.91 4775.67 2707.38 4783.81 2707.52C4791.96 2707.66 4790.31 2701.08 4780.23 2692.93C4755.95 2674.15 4743.85 2681.13 4738.47 2716.5C4736.29 2732.27 4726.98 2744.09 4717.57 2743.61C4707.35 2743.6 4710.1 2751.15 4723.78 2763.68C4740.94 2778.5 4742.03 2789.7 4726.57 2806.69C4715.66 2819.44 4712.71 2832.96 4720 2836.28C4728.4 2840.57 4729.75 2845.71 4723.47 2848.8C4717.82 2852.05 4722.93 2871.14 4734.86 2892.75C4759.66 2937.56 4757.09 2957.32 4726.4 2949.78C4709.86 2945.35 4705.21 2937.28 4708.24 2918.33C4711.62 2898.1 4706.28 2892.58 4682.49 2892.34C4655.18 2892.52 4654.88 2891.08 4680.22 2875.38C4726.86 2846.3 4690.97 2825.09 4629.15 2844.65C4595.77 2854.79 4582.96 2856.81 4599.38 2848.94C4619.02 2839.21 4622.81 2832.73 4610.72 2829.49C4580.2 2821.31 4541 2863.29 4552.68 2890.96C4558.22 2903.35 4560.95 2921.12 4558.27 2928.58C4556.23 2936.21 4551.7 2930.23 4548.28 2915C4544.32 2894.17 4539.57 2891.54 4528.32 2905.56C4518.04 2918.48 4511.51 2917.41 4505.08 2900.7C4500.35 2887.84 4489.75 2881.6 4481.69 2886.25C4473.63 2890.91 4460.82 2892.93 4452.38 2891.35C4429.49 2885.21 4394.09 2910.49 4398.39 2930.04C4403.58 2953.93 4366.52 2982.85 4337.05 2978.36C4299.78 2972.46 4294.84 2952.74 4330.17 2950.62C4353.03 2949.24 4361.77 2942.04 4365.15 2921.82C4368.57 2898.88 4363.14 2898.79 4330.72 2918.05C4308.78 2931.25 4291.64 2934.16 4292.12 2924.74C4292.42 2915.96 4286.19 2916.34 4279.01 2925.32C4271.83 2934.3 4257.07 2938.53 4247.58 2933.26C4236.18 2927.48 4236.39 2924.13 4248.69 2924.01C4261.63 2924.07 4261.55 2919.28 4249.09 2909.81C4237.73 2901.31 4236.3 2891.39 4245.98 2885.8C4254.85 2880.68 4238.24 2871.46 4209.74 2865.87C4145.13 2852.64 4122.21 2866.95 4145.66 2906.63C4157.47 2926.15 4168.7 2932.57 4176.05 2922.95C4182.42 2914.43 4198.33 2908.47 4211.09 2909.17C4229.28 2909.95 4228.9 2913.94 4207.93 2926.04C4188.41 2937.85 4186.2 2946.12 4200.22 2957.37C4217.08 2970.75 4213.86 2972.61 4172.04 2970.95C4146.34 2970.2 4129.69 2963.69 4134.91 2956.91C4142.09 2947.93 4136.8 2939.7 4117 2929.62C4081.7 2911.3 4064.47 2919.64 4090.44 2942.27C4100.99 2951.23 4087 2947.48 4059.28 2933.92C4018.89 2914.24 4009.49 2903.54 4013.03 2882.68C4015.72 2865 4023.66 2858.26 4037.19 2861.21C4048 2864.1 4066.92 2859.63 4078.84 2853.28C4090.3 2846.13 4103.87 2846.36 4107.6 2852.81C4111.96 2859.43 4133.12 2854.2 4155.07 2840.99C4182.65 2824.53 4188.05 2817.11 4171.76 2816.84C4158.83 2816.78 4148.91 2807.99 4148.29 2797.6C4148.47 2786.74 4142.97 2781.86 4135.54 2786.68C4128.28 2790.87 4115.19 2781.23 4106.17 2766.55C4088.31 2736.54 4024.58 2727.64 4024.59 2755.59C4024.75 2765.18 4018.25 2771.62 4008.67 2771.77C3999.08 2771.93 3993.28 2765.61 3993.12 2756.02C3993.87 2730.32 3970.99 2752.14 3965.87 2781.43C3963.05 2797.04 3956.24 2812.25 3948.99 2816.44C3942.37 2820.8 3938.69 2811.64 3941.51 2796.04C3946.16 2765.93 3934.8 2767.66 3889.33 2802.5C3869.6 2817.66 3867.39 2815.71 3870.69 2790.69C3873.09 2771.57 3886.89 2758.23 3910.64 2750.96C3935.84 2743.4 3941.53 2737.43 3929.67 2730.84C3920.17 2725.57 3902.74 2727.03 3891.28 2734.19C3872.57 2745.53 3871.63 2743.92 3885.62 2719.72C3897.64 2697.72 3896.29 2692.59 3876.66 2692.1C3841.38 2691.5 3836.96 2697.82 3849.08 2736.51C3858.93 2768.46 3855.31 2774.3 3819.17 2787.11C3783.82 2799.45 3780.38 2804.66 3792.66 2824.99C3800.11 2837.89 3800.42 2857.06 3792.9 2867.32C3777.23 2887.65 3769.22 2879.38 3770.16 2842.82C3770.31 2824.46 3763.7 2818.6 3744.65 2820.99C3721.28 2824.27 3720.82 2823.46 3740.51 2811.02C3775.06 2788.92 3812.8 2719.29 3801.63 2699.94C3792.61 2685.25 3797.45 2682.46 3835.03 2679.58C3859.33 2677.91 3888.18 2672.01 3898.83 2665.32C3923.19 2650.72 3919.89 2609.62 3894.44 2613.03C3884.51 2614.46 3885.88 2609.37 3897.51 2601.58C3909.13 2593.79 3911.86 2583.62 3904.57 2580.3C3895.54 2575.84 3882.13 2585.19 3868.71 2604.77C3852.82 2628.46 3840.72 2635.44 3821.13 2632.24C3800.27 2628.69 3795.9 2632.29 3798.68 2647.35C3801.34 2660.33 3785.98 2661.67 3748.8 2650.34C3719.26 2641.06 3692.93 2629.92 3690.14 2625.08C3681.29 2609.76 3699.06 2579.08 3725.2 2562.91C3738.1 2555.46 3747.28 2541.56 3744.87 2532.74C3742.51 2521.2 3728.34 2528.31 3696.24 2556.51C3643.73 2602.42 3588.33 2610.75 3593.93 2572.04C3598.93 2540.66 3616.33 2531.69 3629.54 2553.63C3640.88 2572.35 3683.14 2557.09 3689.15 2532.12C3693.58 2515.58 3606.84 2526.42 3572.97 2545.97C3557.65 2554.82 3547.31 2552.73 3544.65 2539.75C3542.93 2528.38 3511.06 2504.85 3474.14 2487.46C3426.93 2465.26 3408.03 2449.3 3411.02 2433.06C3416.14 2403.76 3388.83 2403.94 3365.35 2433.09C3350.99 2451.05 3348.62 2449.73 3352.38 2425.52C3355.5 2401.14 3349.06 2394.65 3310.1 2384.89C3284.03 2377.9 3258.62 2378.59 3252.42 2386.47C3246.39 2393.72 3228 2386.06 3212.45 2370.31C3196.91 2354.56 3171.78 2338.96 3158.08 2336.66C3144.38 2334.35 3131.25 2327.42 3130.87 2321.19C3130.33 2315.59 3118.37 2314.43 3105.34 2319.8C3068.68 2334.51 3057.28 2328.73 3062.45 2296.72C3066.04 2273.14 3062.4 2271.49 3040.46 2284.69C3026.58 2293.24 3009.49 2293.43 3004.03 2285.83C2998.1 2277.43 2988.57 2264.65 2981.08 2254.47C2974.69 2245.26 2950.35 2239.42 2929.57 2240.66C2895.34 2243.76 2892.5 2241.64 2907.66 2223.21C2923.97 2203.04 2923.51 2202.23 2893.06 2198.85C2876.48 2197.13 2859 2201.31 2855.86 2207.96C2852.71 2214.62 2846.69 2211.64 2843.65 2202.65C2840.31 2192.21 2820.04 2191.55 2796.75 2199.62C2764.29 2211.37 2759.2 2210.01 2772.58 2193.15C2781.25 2181.16 2783.48 2162.67 2776.79 2152.02C2769.34 2139.12 2759.76 2139.27 2749.65 2151.56C2737.42 2166.69 2732.03 2163.88 2723.25 2135.62C2713.99 2106.56 2705.77 2101.63 2675.02 2107.03C2652.11 2111.11 2631 2103.41 2622.16 2088.09C2613.61 2074.21 2596.53 2064.18 2584.99 2066.54C2572.18 2068.56 2559.17 2063.71 2553.87 2055.48C2548.58 2047.25 2525.26 2047.81 2500.52 2056.18C2468.07 2067.93 2458.99 2066.18 2467.07 2051.31C2472.85 2039.9 2469.56 2026.75 2459.89 2022.12C2446.58 2015.83 2441.06 2021.16 2439.26 2043.17C2437.54 2059.75 2427.9 2072.84 2416.87 2073.3C2405.38 2072.95 2393.53 2084.08 2387.71 2098.2C2382.35 2113.12 2375.38 2118.75 2371.83 2111.67C2368.11 2105.22 2374.36 2084.4 2385.54 2065.58C2400.5 2040.28 2400.39 2027.99 2384.58 2018.3C2372.88 2011.07 2361.15 1996.34 2359.09 1986.25C2356.56 1975.35 2343.96 1974.02 2327.67 1983.96C2302.5 1999.03 2300.76 1997.88 2307.2 1966.21C2317.1 1919.11 2312.99 1916.64 2250.13 1922.29C2220.06 1925.14 2196.02 1920.74 2196.15 1912.6C2195.83 1903.65 2190.27 1901.48 2182.21 1906.14C2174.78 1910.96 2164.87 1902.17 2160.65 1887.41C2149.33 1848.25 2120.42 1839.14 2077.85 1863.18C2056.25 1875.11 2035.72 1880.52 2032.92 1875.68C2029.49 1870.67 2018.3 1871.76 2008.45 1877.98C1993.13 1886.83 1989.36 1883.09 1988.55 1855.61C1986.31 1807.98 1943.53 1769.25 1912.89 1786.94C1899.01 1795.49 1885.73 1796.71 1882.01 1790.26C1878.28 1783.81 1859.75 1784.29 1840.49 1790.04C1821.23 1795.78 1805.63 1792.96 1805.47 1783.38C1806.12 1773.33 1793.57 1769.28 1777.19 1774.44C1756.49 1780.48 1739.87 1771.26 1717.39 1740.69C1696.48 1711.92 1681.94 1702.57 1672.69 1711.68C1665.38 1718.58 1636.33 1717.61 1611.41 1708.89C1585.67 1700.63 1560.27 1701.32 1555.17 1710.18C1549.73 1720.31 1540.36 1717.12 1530.88 1701.62C1520.47 1684.52 1507.92 1680.48 1491.45 1691.06C1477.58 1699.61 1463.83 1700.02 1459.01 1692.59C1454.82 1685.33 1445.53 1686.93 1438.18 1696.55C1430.83 1706.17 1413.06 1708.91 1396.87 1703.2C1375.76 1695.5 1373.72 1692.91 1389.37 1693.02C1400.23 1693.2 1420.22 1682.2 1431.13 1669.44C1447.91 1650.08 1447.66 1645.93 1429.46 1645.14C1410.46 1644.82 1408.9 1643.04 1422.61 1635.12C1448.75 1618.96 1395.33 1604.64 1360.92 1618.6C1340.17 1627.35 1327.16 1622.5 1315.86 1601.07C1303.46 1578.66 1286.46 1573.43 1247.57 1578.68C1207.06 1584.87 1194.04 1580.02 1188.35 1558.04C1184.04 1538.49 1175.99 1532.92 1164.53 1540.07C1155.49 1545.83 1136.15 1546.78 1123.14 1541.93C1110.13 1537.08 1082.47 1538.53 1062.41 1544.74C1042.34 1550.95 1012.61 1552.53 996.71 1548.27C978.904 1543.5 960.279 1549.41 948.388 1563.27C936.837 1575.85 928.65 1578.43 928.321 1569.48C927.993 1560.53 916.92 1563.7 901.679 1577.33C886.438 1590.97 871.674 1595.19 867.019 1587.13C862.364 1579.07 872.983 1564.87 890.086 1554.46C909.608 1542.65 915.685 1532.69 905.385 1527.89C896.994 1523.6 877.857 1531.42 865.671 1543.83C852.678 1556.71 835.451 1565.04 828.966 1561.26C814.556 1553.99 807.829 1469.71 819.392 1446.91C824.026 1437.25 810.467 1426.8 782.952 1420.11C754.971 1412.61 739.912 1415.39 741.978 1425.49C744.214 1434.95 728.757 1451.93 708.258 1464.85C670.996 1486.9 670.36 1486.73 678.336 1449.33C684.731 1420.37 682.575 1415.7 671.32 1429.73C662.359 1440.28 648.276 1441.96 637.091 1432.83C625.906 1423.69 607.032 1425.45 591.03 1436.84C545.614 1468.98 521.345 1478.15 513.726 1465.88C510.002 1459.43 515.227 1452.65 526.594 1450.93C537.326 1449.03 541.96 1439.37 536.203 1430.33C529.515 1419.68 518.489 1420.13 506.473 1431.91C495.433 1442.58 484.19 1446.38 480.466 1439.93C476.742 1433.48 460.196 1439.27 443.512 1453.2C420.673 1472.3 415.71 1473.02 424.002 1454.79C430.805 1439.58 429.454 1434.44 419.313 1439.22C411.42 1443.24 402.563 1438.14 401.133 1428.22C398.817 1413.97 385.667 1417.26 353.663 1440.04C311.642 1469.67 311.006 1469.5 335.981 1437.34C363.251 1401.71 359.38 1375.45 328.57 1393.78C318.087 1399.83 309.82 1397.62 310.298 1388.2C310.605 1379.42 300.09 1377.97 288.801 1384.49C270.085 1395.83 268.518 1394.05 277.786 1374.72C285.567 1358.4 271.735 1364.24 229.203 1395.78C189.09 1425.93 164.31 1437.01 152.443 1430.42C142.95 1425.15 140.078 1415.52 146.108 1408.28C159.953 1392.22 149.973 1368.42 133.04 1378.19C126.589 1381.92 109.814 1401.28 95.4585 1419.24L69.8018 1453.94L105.563 1445.12L141.325 1436.3L108.219 1458.1C73.3311 1481.47 60.8739 1472 62.1615 1423.95C62.7763 1406.4 52.9208 1384.67 41.0998 1375.37C21.398 1359.87 18.8086 1361.9 16.4779 1396.04C14.8408 1417.41 20.4153 1437.3 28.8068 1441.6C37.1989 1445.89 29.9753 1457.59 11.2592 1468.93C-15.5201 1484.93 -17.394 1491.92 -0.111166 1508.82C11.664 1520.84 14.8763 1529.2 7.37019 1529.23C-0.13642 1529.26 -19.5428 1515.2 -35.3832 1498.01C-58.2978 1474.15 -69.2792 1471.89 -87.7458 1487.39C-109.142 1506.19 -110.073 1504.58 -99.247 1459.09C-92.6807 1429.49 -94.065 1416.85 -103.787 1425.15C-112.872 1433.62 -123.729 1433.44 -129.486 1424.4C-134.777 1416.17 -146.053 1412.47 -152.969 1415.38C-181.145 1428.96 -221.937 1423.49 -233.28 1404.77C-239.332 1394.29 -250.018 1393.47 -257.195 1402.45C-264.373 1411.43 -287.483 1408.65 -310.581 1395.64C-333.678 1382.64 -363.908 1375.9 -380.75 1380.25C-397.421 1383.96 -414.59 1379.36 -420.642 1368.88C-429.192 1355 -439.289 1357.07 -462.809 1378.71C-489.089 1403.02 -499.481 1403.64 -530.754 1383C-551.137 1370.04 -576.279 1364.66 -586.466 1372.16C-596.482 1379.02 -619.127 1377.04 -636.035 1366.37C-653.114 1356.34 -681.607 1350.75 -698.449 1355.1C-717.369 1359.58 -724.829 1356.89 -718.117 1347.11C-696.707 1318.08 -719.385 1308.6 -745.541 1334.99C-770.549 1359.64 -771.185 1359.47 -779.915 1318.28C-788.178 1277.9 -788.814 1277.73 -795.643 1313.38C-799.358 1334.88 -812.783 1354.46 -825.639 1359.19C-858.095 1370.94 -865.918 1351.81 -840.523 1323.17C-826.679 1307.11 -826.371 1298.33 -840.362 1294.58C-853.716 1291.01 -869.843 1300.32 -888.105 1322.69C-909.128 1347.73 -921.688 1353.9 -942.503 1347.64C-966.033 1341.34 -966.794 1339.09 -951.519 1332.96C-919.528 1320.4 -901.162 1282.38 -915.298 1258.83C-924.779 1243.34 -937.668 1240.57 -953.795 1249.88C-982.993 1267.27 -996.926 1250.59 -976.028 1223.47C-955.301 1196.99 -990.061 1184.27 -1012.7 1210.24C-1024.25 1222.82 -1034.68 1226.16 -1039.8 1217.29C-1045.56 1208.25 -1056.97 1212.69 -1073.53 1228.7C-1096.59 1251.15 -1101.21 1250.59 -1117.67 1223.01C-1128.09 1205.9 -1130.4 1191.65 -1123.7 1192.08C-1103.26 1192.11 -1088.71 1153.07 -1106.77 1144.14C-1130.67 1131.6 -1156.56 1151.92 -1155.33 1182.93C-1154.59 1205.62 -1157.94 1205.4 -1178.78 1181.41C-1198.22 1159.85 -1198.5 1148.18 -1183.34 1129.75C-1166.39 1109.76 -1170.38 1109.37 -1208.99 1126.29C-1267.72 1152.13 -1298.75 1145.86 -1278.7 1111.7C-1264.88 1088.14 -1268.82 1085.04 -1323.39 1072.46C-1356.16 1065.04 -1382.61 1051.82 -1382.13 1042.41C-1381.83 1033.63 -1389.92 1030.78 -1399.6 1036.36C-1414.92 1045.21 -1448.24 1032.19 -1467.04 1010.8C-1470.17 1007.23 -1505.11 995.144 -1546.27 983.432C-1587.61 972.356 -1625.63 953.99 -1632.31 943.337C-1638.54 933.491 -1663.67 917.897 -1685.58 910.661C-1707.5 903.425 -1733.09 887.025 -1739.61 875.736C-1746.77 864.277 -1760.2 855.906 -1770.93 857.802C-1781.49 859.062 -1799.8 845.978 -1812.75 828.193C-1839.13 791.817 -1875.12 776.04 -1899.31 790.006C-1908.18 795.127 -1927.3 792.729 -1942.01 784.017C-1978.37 762.006 -1981.28 755.09 -1954.86 750.584C-1942.05 748.563 -1935.21 740.853 -1940.04 733.426C-1944.23 726.169 -1956.99 725.475 -1967.64 732.163C-1981.52 740.713 -1986.73 737.271 -1984.72 722.134C-1980.39 683.08 -1991.63 648.715 -2003.86 663.841C-2018.05 681.169 -2134.8 605.584 -2169.43 556.772C-2183.78 536.568 -2202.16 518.691 -2210.6 517.112C-2219.04 515.533 -2217.18 518.758 -2206.58 525.005C-2192.34 532.91 -2193.71 537.998 -2211.87 544.719C-2250.43 558.922 -2276.3 520.638 -2242.09 499.814L-2214.34 482.714L-2257.21 477.361C-2284.3 474.191 -2296.46 466.161 -2290.85 455.396C-2284.73 442.723 -2294.09 429.31 -2326.88 404.165C-2364.25 375.748 -2366.75 372.352 -2341.36 381.883C-2308.04 394.9 -2283.79 367.999 -2310.27 347.272C-2319.25 340.094 -2323.23 329.487 -2319.91 322.196C-2311.33 305.412 -2374.73 239.348 -2421.14 216.688C-2457.25 198.833 -2458.19 197.221 -2433.18 172.568C-2402.48 141.943 -2409.11 118.356 -2442.97 137.909C-2456.05 145.993 -2475 142.959 -2486.95 131.579C-2498.72 119.563 -2502.57 111.035 -2495.87 111.467C-2489.17 111.899 -2478.94 101.691 -2473.16 90.2895C-2465.37 73.9713 -2466.6 70.9162 -2478.53 77.2633C-2486.59 81.9187 -2493.88 78.6021 -2494.21 69.6534C-2494.37 60.0688 -2498.6 55.526 -2505.05 59.2502C-2510.7 62.509 -2536.57 62.3931 -2559.34 58.337C-2582.1 54.2809 -2595.07 46.7165 -2587.01 42.0611C-2578.95 37.4057 -2578.81 29.2634 -2586.57 25.1403C-2594.96 20.847 -2593.38 12.4095 -2582.9 6.35752C-2556.92 -9.17555 -2568.02 -23.7349 -2612.58 -32.9487C-2652.05 -40.7991 -2664.19 -69.2702 -2641.16 -99.2259L-2641.08 -104.655ZM5101.17 1889.44C5101.47 1880.67 5095.79 1876.42 5088.54 1880.61C5081.28 1884.8 5078.9 1893.7 5083.26 1900.32C5087.45 1907.58 5092.66 1911.02 5095.88 1909.16C5099.11 1907.3 5101.32 1899.03 5101.17 1889.44ZM5063.15 2222.1C5082.35 2229.29 5087.83 2226.67 5087.81 2208.94C5088.69 2175.1 5080.47 2170.17 5058.86 2192.32C5041.96 2209.61 5043.14 2215.37 5062.98 2222.73L5063.15 2222.1ZM5141.93 2057.82C5133.52 2035.8 5130.17 2035.58 5123.1 2056.86C5118.25 2069.87 5106.58 2080.38 5097.97 2079.43C5088.9 2077.68 5096.31 2083.08 5113.61 2089.76C5130.9 2096.44 5136.7 2102.76 5125.85 2102.58C5114.99 2102.4 5106.07 2110.23 5106.23 2119.82C5106.38 2139.62 5134.55 2126.04 5145.19 2101.63C5149.01 2092.43 5147.6 2072.28 5142.4 2058.62L5141.93 2057.82ZM5187.38 2137.47C5175.46 2143.82 5164.94 2142.36 5165.08 2134.22C5165.1 2113.78 5149.49 2121.18 5135.93 2148.9C5120.88 2179.63 5168.63 2179.48 5191.65 2149.52C5208.47 2127.45 5208.18 2126 5188.02 2137.64L5187.38 2137.47ZM5143.41 2311.76C5133.56 2317.99 5136.7 2321.55 5152.98 2321.83C5165.92 2321.88 5180.21 2316.85 5183.19 2310.84C5186.97 2304.35 5193.04 2304.61 5197.23 2311.87C5201.41 2319.13 5210.49 2320.88 5217.58 2317.32C5225.81 2312.03 5221.15 2303.97 5202.17 2293.43C5179.88 2279.96 5178.06 2274.02 5195.5 2262.33C5208.92 2252.98 5209.3 2248.99 5197.13 2251.18C5181.43 2253.79 5179.45 2248.49 5188.59 2227.08C5195.39 2211.87 5192.95 2195.54 5183.29 2190.9C5153.37 2175.39 5142.02 2194.84 5150.06 2248.79C5154.52 2277.93 5150.84 2306.94 5143.24 2312.4L5143.41 2311.76ZM4976.2 2340.57C4990.77 2357.42 5004.74 2371.39 5007.92 2372.25C5024.46 2376.68 5083.23 2348.12 5113.88 2320.21C5156.85 2281.97 5134.23 2259.55 5082.15 2288.53C5055.89 2302.63 5049 2313.05 5060.19 2322.18C5083.83 2340.78 5033.68 2360.06 5002.66 2343.57C4981.76 2332.52 4979.78 2327.22 4995.1 2318.37C5005.58 2312.32 5007.96 2303.42 5000.04 2299.93C4966.47 2282.76 4950.02 2311.07 4976.03 2341.21L4976.2 2340.57ZM4787.27 2587.8C4790.26 2599.51 4804.17 2598.47 4828.53 2583.86C4852.89 2569.26 4862.07 2555.36 4855.55 2544.07C4842.35 2522.13 4781.95 2561.84 4787.9 2587.97L4787.27 2587.8ZM4760.16 2063.21C4746.79 2069.85 4741.4 2077.27 4748.39 2079.14C4754.75 2080.85 4766.04 2074.33 4772.24 2066.45C4779.59 2056.83 4775.14 2055.64 4760.16 2063.21ZM4961.69 1560.35C4957.5 1553.1 4949.07 1551.52 4941.98 1555.07C4934.72 1559.26 4933.14 1567.7 4936.7 1574.78C4940.89 1582.04 4949.32 1583.62 4955.78 1579.9C4963.03 1575.71 4964.61 1567.27 4961.06 1560.18L4961.69 1560.35ZM4763.83 2291.16C4771.58 2295.29 4784.69 2294.71 4792.75 2290.05C4801.79 2284.3 4797.85 2281.2 4781.74 2280.29C4749.34 2279.1 4745.31 2281.43 4764.46 2291.33L4763.83 2291.16ZM5020.8 1606.86C5049.36 1589.3 5050.04 1586.75 5022.52 1590.28C4980.1 1595.96 4956.55 1610.09 4973.79 1619.49C4981.55 1623.61 5002.08 1618.2 5020.16 1606.69L5020.8 1606.86ZM4684.55 2798.16C4717.16 2806.21 4717.5 2804.94 4687.62 2786.71C4670.71 2776.04 4654.64 2772.42 4652.94 2778.78C4651.23 2785.14 4665.94 2793.85 4684.38 2798.79L4684.55 2798.16ZM4660.16 2700.97C4682.29 2704.85 4685.22 2701.55 4675.27 2685.25C4668.12 2673.79 4655.57 2669.75 4645.09 2675.8C4634.61 2681.85 4628.11 2688.29 4629.97 2691.52C4631.37 2693.93 4644.55 2698.15 4660.16 2700.97ZM4723.35 2304.86C4743.38 2301.36 4742.61 2299.11 4720.87 2291.24C4691.02 2280.52 4683.01 2282.46 4692.95 2298.76C4696.21 2304.4 4710.54 2306.88 4723.35 2304.86ZM4503.18 2785.68C4509.24 2796.16 4521.61 2800.84 4530.48 2795.72C4539.18 2791.24 4559.47 2781.68 4575.89 2773.81C4598.42 2763.49 4599.78 2758.4 4581.51 2752.82C4569.6 2748.95 4552.76 2753.3 4545.58 2762.28C4538.4 2771.26 4528.31 2773.33 4524.12 2766.07C4519.46 2758.01 4510.73 2754.99 4503.47 2759.18C4496.85 2763.54 4496.03 2774.22 4502.72 2784.88L4503.18 2785.68ZM4830.47 1604.94C4834.5 1602.61 4832.9 1593.32 4826.85 1582.84C4821.26 1573.16 4804.51 1572.08 4790.8 1580C4767.25 1594.13 4768.18 1595.74 4794.42 1602.1C4810.96 1606.53 4826.44 1607.26 4830.47 1604.94ZM4448.41 2804.4C4435.21 2782.46 4426.09 2783.43 4426.02 2806.58C4426.35 2815.53 4433.42 2822.2 4442.83 2822.68C4452.25 2823.15 4454.46 2814.89 4448.41 2804.4ZM4401.44 2862.7C4416.36 2868.06 4429.8 2866.21 4433.76 2859.09C4443.66 2839.94 4417.34 2828.79 4393.78 2842.93C4378.46 2851.78 4380.16 2855.64 4401.27 2863.34L4401.44 2862.7ZM4428.38 2675.67C4427.9 2685.08 4437.98 2693.24 4450.75 2693.93C4463.68 2693.99 4472.72 2688.23 4470.78 2680.21C4468.84 2672.2 4473.31 2663.17 4479.93 2658.81C4487.18 2654.62 4492.22 2658.7 4491.75 2668.11C4491.91 2677.69 4497.84 2675.88 4506.98 2664.69C4519.72 2647.66 4516.41 2644.73 4483.97 2646.26C4436.34 2648.49 4428.45 2652.51 4427.57 2676.13L4428.38 2675.67ZM4319.25 2754.8C4323.44 2762.06 4331.88 2763.64 4338.33 2759.91C4344.78 2756.19 4347.16 2747.28 4343.61 2740.2C4339.42 2732.94 4330.98 2731.36 4323.9 2734.92C4316.64 2739.11 4315.06 2747.54 4318.61 2754.63L4319.25 2754.8ZM4527.56 1450.84C4548.99 1467.49 4569.8 1445.8 4559.57 1417.84C4553.61 1401.93 4545.47 1401.8 4531.16 1417.05C4518.17 1429.92 4517.3 1443.32 4528.19 1451.01L4527.56 1450.84ZM4153.3 2613.55C4153.3 2613.55 4163.9 2619.8 4173.65 2619C4182.43 2619.31 4186.21 2612.82 4182.66 2605.74C4178.47 2598.48 4168.93 2595.93 4162.31 2600.29C4155.05 2604.48 4151.44 2610.32 4153.3 2613.55ZM4456.91 1406.69C4462.96 1417.18 4475.05 1420.41 4485.53 1414.36C4496.01 1408.31 4496.02 1398.09 4485.94 1389.93C4475.86 1381.78 4463.6 1379.18 4457.32 1382.27C4450.87 1385.99 4450.86 1396.21 4456.91 1406.69ZM4000.57 2664.64C4004.76 2671.9 4013.2 2673.47 4019.65 2669.75C4026.1 2666.03 4028.48 2657.12 4024.76 2650.67C4021.03 2644.22 4012.13 2641.84 4005.68 2645.56C3998.42 2649.75 3996.84 2658.19 4000.4 2665.27L4000.57 2664.64ZM4281.74 1320.22C4281.77 1327.73 4292.71 1332.71 4305.52 1330.69C4335.46 1325.76 4341.93 1311.81 4319.59 1301.06C4299.8 1290.98 4282.4 1299.95 4281.57 1320.86L4281.74 1320.22ZM3819.29 2608.57C3830.64 2627.28 3851.4 2608.31 3860.65 2571.26C3868.19 2540.56 3867.09 2539.58 3851.24 2560.56C3841.77 2573.01 3828.78 2585.89 3822.96 2589.79C3817.15 2593.68 3815.57 2602.12 3819.76 2609.37L3819.29 2608.57ZM4163.17 1276.87C4167.36 1284.12 4175.8 1285.7 4182.25 1281.98C4189.51 1277.79 4191.09 1269.35 4187.53 1262.27C4183.98 1255.18 4174.91 1253.43 4168.45 1257.15C4162 1260.88 4159.62 1269.78 4163.17 1276.87ZM3623.83 2399.43C3616.65 2408.41 3620.93 2410.24 3633.83 2402.79C3645.76 2396.44 3650.78 2382.79 3644.72 2372.31C3638.67 2361.83 3628.37 2357.02 3621.12 2361.21C3613.86 2365.4 3614.7 2372.44 3622.45 2376.57C3629.57 2380.52 3630.83 2391.08 3623.83 2399.43ZM3563 2511.95C3567.19 2519.21 3575.63 2520.79 3582.08 2517.06C3588.53 2513.34 3590.92 2504.44 3587.36 2497.35C3583.18 2490.09 3574.74 2488.51 3568.29 2492.24C3561.03 2496.43 3559.45 2504.86 3563.18 2511.31L3563 2511.95ZM3528.96 2399.91C3533.15 2407.16 3541.58 2408.74 3548.67 2405.19C3555.93 2401 3557.51 2392.56 3553.95 2385.48C3549.76 2378.22 3541.33 2376.64 3534.24 2380.19C3526.98 2384.38 3525.4 2392.82 3529.13 2399.27L3528.96 2399.91ZM3725.11 973.415C3708.96 964.998 3690.88 976.512 3691.2 995.681C3691.06 1003.82 3701.92 1004.01 3713.72 995.581C3726.15 987.326 3730.96 977.026 3724.94 974.051L3725.11 973.415ZM3322.6 2363.7C3347.4 2370.34 3356.88 2347.67 3334.71 2336.27C3326.32 2331.98 3315.25 2335.15 3310.96 2343.54C3305.69 2353.03 3309.88 2360.29 3323.23 2363.87L3322.6 2363.7ZM3439.88 1808.96C3444.07 1816.21 3452.51 1817.79 3459.6 1814.24C3466.68 1810.69 3468.43 1801.61 3464.88 1794.53C3461.33 1787.44 3452.25 1785.69 3445.8 1789.41C3439.35 1793.14 3436.97 1802.04 3440.69 1808.49L3439.88 1808.96ZM3600.03 984.885C3599.55 994.299 3613.47 993.256 3631.21 983.014C3648.31 972.602 3659.39 959.214 3655.2 951.957C3651.48 945.506 3636.93 946.379 3624.03 953.828C3611.13 961.276 3600.34 976.107 3600.03 984.885ZM3480.01 990.212C3484.2 997.469 3495.05 997.652 3505.54 991.6C3516.02 985.548 3520.65 975.884 3516.46 968.627C3512.27 961.37 3501.42 961.187 3490.93 967.239C3480.45 973.291 3475.82 982.955 3480.01 990.212ZM3326.09 893.081C3333.09 894.955 3343.57 888.903 3350.75 879.921C3358.1 870.303 3353.65 869.11 3338.67 876.683C3325.3 883.326 3319.73 891.377 3326.09 893.081ZM3280.89 893.917C3281.04 903.502 3286.08 907.579 3292.71 903.219C3299.96 899.029 3304.77 888.729 3305.25 879.315C3305.09 869.73 3300.05 865.653 3293.42 870.013C3286.17 874.203 3281.36 884.503 3280.89 893.917ZM2878.41 724.732C2888.03 732.08 2889.22 727.629 2881.65 712.649C2875.01 699.282 2867.59 693.888 2865.72 700.883C2864.01 707.242 2870.53 718.531 2878.41 724.732ZM2397.58 619.067C2397.58 619.067 2408.34 624.677 2417.93 624.519C2426.71 624.827 2430.49 618.343 2426.93 611.256C2423.38 604.169 2413.21 601.443 2406.58 605.803C2399.33 609.993 2395.72 615.841 2397.58 619.067ZM2245.89 892.636C2251.94 903.118 2262.24 907.923 2269.5 903.733C2276.12 899.373 2276.94 888.687 2270.25 878.034C2264.2 867.552 2253.9 862.747 2246.64 866.937C2240.02 871.297 2239.03 882.619 2245.89 892.636ZM2143.44 1135.09C2143.44 1135.09 2154.2 1140.7 2163.79 1140.55C2172.57 1140.85 2176.35 1134.37 2172.79 1127.28C2168.6 1120.03 2159.07 1117.47 2152.44 1121.83C2145.19 1126.02 2141.58 1131.87 2143.44 1135.09ZM1955.22 466.458C1969.85 470.377 1975.32 467.754 1970.67 459.691C1960.72 443.394 1937.66 437.896 1934.08 451.25C1932.71 456.338 1941.87 462.88 1955.22 466.458ZM1470.98 1645.36C1475.17 1652.62 1483.61 1654.2 1490.06 1650.47C1496.51 1646.75 1498.9 1637.85 1495.17 1631.39C1490.98 1624.14 1482.54 1622.56 1475.46 1626.11C1468.2 1630.3 1466.62 1638.74 1470.18 1645.83L1470.98 1645.36ZM1490.67 541.687C1494.86 548.944 1500.07 552.385 1503.29 550.523C1506.52 548.661 1508.73 540.394 1508.58 530.809C1508.88 522.031 1503.21 517.783 1495.95 521.973C1488.69 526.163 1486.31 535.066 1490.67 541.687ZM1018.11 1453.13C1017.81 1461.91 1023.48 1466.16 1030.74 1461.97C1038 1457.78 1040.38 1448.87 1036.02 1442.25C1031.83 1434.99 1026.62 1431.55 1023.4 1433.42C1020.17 1435.28 1017.95 1443.54 1018.11 1453.13ZM939.579 1517.29C939.272 1526.06 948.811 1528.62 959.293 1522.57C969.776 1516.52 972.332 1506.98 964.575 1502.85C956.184 1498.56 947.917 1496.35 945.498 1497.74C943.079 1499.14 940.864 1507.41 940.386 1516.82L939.579 1517.29ZM1144.21 517.014C1140.02 509.757 1131.59 508.178 1125.14 511.902C1118.68 515.627 1116.3 524.53 1119.85 531.616C1124.04 538.873 1132.48 540.452 1138.93 536.728C1146.19 532.538 1147.77 524.101 1144.21 517.014ZM836.932 1495.92C848.741 1515.44 890.978 1482.45 886.938 1456.83C884.032 1439.69 878.309 1438.16 867.224 1451.55C859.069 1461.63 846.417 1473.24 840.602 1477.13C834.787 1481.03 833.209 1489.46 837.398 1496.72L836.932 1495.92ZM519.356 1368.56C547.952 1358.5 553.484 1342.95 531.953 1331.72C520.087 1325.14 512.659 1329.96 505.299 1349.8C496.745 1374.09 498.312 1375.87 518.72 1368.39L519.356 1368.56ZM548.836 973.641C534.426 966.372 507.613 974.865 513.665 985.347C515.062 987.766 527.19 988.289 539.535 985.463C552.515 982.806 556.592 977.764 548.836 973.641ZM686.085 608.96C693.342 604.77 695.727 595.867 691.367 589.246C687.177 581.989 681.965 578.548 678.74 580.41C675.514 582.272 673.299 590.539 673.458 600.124C673.15 608.902 678.828 613.15 686.085 608.96ZM403.056 1380.34C415.796 1401.48 480.439 1356.09 489.686 1319.04C502.171 1269.9 481.073 1251.98 467.487 1300.14C459.819 1328.75 447.122 1343.07 431.473 1342.97C403.695 1342.34 390.952 1359.38 403.692 1380.51L403.056 1380.34ZM384.712 1293.63C400.245 1319.61 416.451 1315.09 438.121 1280C459.792 1244.91 443.179 1235.69 402.692 1259.6C386.395 1269.55 379.296 1283.32 385.347 1293.8L384.712 1293.63ZM228.194 1246.92C233.007 1264.57 234.449 1264.28 236.04 1245.62C237.803 1226.32 241.493 1225.27 257.255 1237.67C278.694 1254.32 290.743 1250.05 305.668 1217.25C315.277 1196.65 313.415 1193.42 291.066 1192.89C255.317 1191.49 220.803 1221.09 228.023 1247.56L228.194 1246.92ZM88.3404 1130.39C83.9802 1123.76 75.4965 1124.9 69.7612 1133.59C64.0255 1142.27 50.4762 1159.77 41.5152 1170.32C23.2525 1192.69 29.712 1216.91 50.8471 1204.18C72.7884 1190.97 96.4246 1143.46 88.5108 1129.75L88.3404 1130.39ZM-59.1007 1436.45C-37.0505 1473.71 -17.869 1463.17 -18.1483 1413.34C-18.1684 1382.89 -27.3058 1375.44 -45.5606 1391C-62.4143 1405.57 -67.6512 1422.57 -59.737 1436.28L-59.1007 1436.45ZM-110.705 1323.79C-102.621 1336.86 -37.9929 1339.86 -17.8344 1328.22C-12.1902 1324.97 -26.6308 1272.02 -33.6262 1270.15C-37.4418 1269.12 -58.6556 1277.07 -80.7215 1288.2C-106.013 1301.19 -116.757 1313.31 -110.705 1323.79ZM-251.07 1351.61C-251.377 1360.39 -241.839 1362.94 -231.356 1356.89C-220.874 1350.84 -218.318 1341.3 -226.074 1337.18C-234.466 1332.88 -242.733 1330.67 -245.152 1332.07C-247.571 1333.46 -249.786 1341.73 -250.434 1351.78L-251.07 1351.61ZM-335.484 1262.19C-333.464 1275 -327.026 1281.5 -319.769 1277.31C-313.148 1272.95 -312.5 1262.9 -319.188 1252.25C-325.239 1241.77 -331.678 1235.27 -334.903 1237.13C-337.322 1238.53 -338.141 1249.21 -335.484 1262.19ZM-664.396 754.885C-670.847 758.609 -676.287 768.738 -676.129 778.323C-676.607 787.737 -670.202 786.727 -662.048 776.644C-646.204 755.67 -647.293 744.473 -664.396 754.885ZM-806.301 1253.96C-797.909 1258.25 -786.417 1258.6 -779.16 1254.41C-771.903 1250.22 -773.549 1243.65 -781.941 1239.35C-790.333 1235.06 -801.825 1234.71 -809.082 1238.9C-816.338 1243.09 -814.693 1249.66 -806.301 1253.96ZM-1161.49 590.336C-1157.3 597.593 -1148.86 599.172 -1142.41 595.448C-1135.15 591.258 -1133.57 582.821 -1137.13 575.734C-1141.32 568.477 -1149.76 566.898 -1156.84 570.452C-1164.1 574.642 -1165.68 583.079 -1162.12 590.166L-1161.49 590.336ZM-1221.95 -201.514C-1218.22 -195.064 -1208.52 -193.144 -1201.26 -197.334C-1194 -201.523 -1194.67 -209.2 -1202.6 -212.687C-1210.99 -216.981 -1220.06 -218.73 -1223.29 -216.868C-1226.51 -215.006 -1225.67 -207.965 -1221.95 -201.514ZM-1476.02 148.905C-1471.83 156.162 -1463.39 157.741 -1456.94 154.017C-1449.68 149.827 -1448.1 141.39 -1451.83 134.939C-1456.02 127.682 -1464.46 126.103 -1471.54 129.657C-1478.8 133.846 -1480.38 142.284 -1476.82 149.37L-1476.02 148.905ZM-1622.18 236.517C-1618.46 242.967 -1608.75 244.887 -1601.49 240.698C-1594.23 236.508 -1594.9 228.831 -1602.83 225.344C-1611.22 221.051 -1620.29 219.301 -1623.52 221.163C-1626.74 223.025 -1625.9 230.066 -1622.18 236.517ZM-1908.77 -271.039C-1904.58 -263.782 -1899.36 -260.341 -1896.14 -262.203C-1892.91 -264.065 -1890.7 -272.332 -1890.86 -281.917C-1890.55 -290.695 -1896.23 -294.943 -1903.48 -290.753C-1910.74 -286.563 -1913.13 -277.66 -1908.77 -271.039ZM-2164.95 537.523C-2158.59 539.227 -2147.31 532.71 -2141.1 524.829C-2133.76 515.211 -2138.21 514.018 -2153.19 521.591C-2166.55 528.234 -2171.95 535.649 -2164.95 537.523ZM-2109 31.098C-2104.81 38.355 -2098.96 41.9668 -2095.74 40.1046C-2092.51 38.2424 -2090.13 29.3393 -2090.29 19.7547C-2089.98 10.9764 -2096.46 7.19433 -2103.55 10.7482C-2110.81 14.938 -2113.36 24.477 -2109 31.098Z" fill="#091016"/>
<path d="M102.618 1106.15C107.814 1103.15 111.878 1106.2 112.114 1112.6C112.227 1119.46 110.064 1125.72 108.21 1127.17C105.901 1128.5 101.836 1125.46 98.7147 1120.72C96.0485 1116.1 97.8783 1109.28 102.618 1106.15Z" fill="#091016"/>
<path d="M181.848 1092.74C188.644 1096.51 194.131 1103.35 193.033 1107.44C189.74 1119.74 174.749 1113.77 171.457 1098.74C169.222 1088.87 171.653 1087.08 181.848 1092.74Z" fill="#091016"/>
<path d="M89.8154 1146.66C95.9363 1156.6 63.4555 1177.66 51.8953 1171.63C46.3428 1168.68 51.3921 1160.76 63.6364 1153.31C75.8807 1145.86 87.3604 1143.08 89.8154 1146.66Z" fill="#091016"/>
<path d="M235.736 1192.1C238.735 1197.29 235.418 1204.21 227.913 1208.54C220.409 1212.88 212.637 1212.74 209.637 1207.55C206.638 1202.35 209.955 1195.44 217.46 1191.1C224.964 1186.77 232.736 1186.9 235.736 1192.1Z" fill="#091016"/>
<path d="M394.942 1120.58C411.397 1121.08 411.609 1122.12 398.332 1129.78C390.128 1134.9 379.015 1136.32 372.885 1133.7C359.17 1126.61 370.715 1119.94 394.487 1120.46L394.942 1120.58Z" fill="#091016"/>
<path d="M437.979 1111.12C448.548 1108.09 457.029 1100.12 457.249 1093.83C457.477 1080.23 470.51 1073.48 483.77 1080.45C489.777 1083.52 486.403 1087.01 475.167 1088.88C460.834 1091.38 459.98 1094.57 471.264 1103.44C486.612 1115.36 475.213 1126.95 457.19 1117.73C451.182 1114.65 439.913 1118.47 432.344 1126.68C424.197 1135.24 418.457 1136.63 418.466 1129.31C418.808 1122.57 427.288 1114.6 437.857 1111.57L437.979 1111.12Z" fill="#091016"/>
<path d="M375.391 1148.01C370.455 1162.79 330.949 1193.68 331.356 1183.06C331.243 1176.2 341.732 1164.37 354.431 1157.04C366.675 1149.58 376.578 1145.4 375.846 1148.14L375.391 1148.01Z" fill="#091016"/>
<path d="M441.195 1184.69C450.366 1183.25 453.073 1178.61 447.797 1172.8C434.092 1158.39 449.954 1146.54 478.246 1150.22C501.741 1153.59 502.074 1154.16 484.522 1157.76C470.644 1160.38 466.293 1167.51 470.739 1181.88C473.974 1193.48 470.68 1205.77 462.81 1211.47C455.639 1216.38 440.598 1226.99 430.752 1234.59C420.906 1242.2 410.215 1245.68 408.215 1242.22C400.761 1229.97 425.252 1187.74 441.528 1185.27L441.195 1184.69Z" fill="#091016"/>
<path d="M379.384 1264.23C381.042 1274.44 379.424 1282.3 374.749 1281.53C370.652 1280.44 368.961 1272.18 371.523 1262.62C375.305 1248.5 376.67 1248.87 379.263 1264.69L379.384 1264.23Z" fill="#091016"/>
<path d="M551.42 1204.93C566.387 1205.53 566.233 1207.93 550.525 1217.38C539.557 1223.71 528.443 1225.13 525.444 1219.93C518.989 1209.42 528.226 1204.09 551.42 1204.93Z" fill="#091016"/>
<path d="M722.725 1133.77C721.091 1128.94 712.808 1125.26 703.548 1125.22C690.524 1124.65 689.979 1123.04 700.824 1117.17C708.329 1112.83 720.174 1108.69 727.857 1107.33C747.231 1104.23 758.676 1130.72 740.968 1136.71C732.342 1139.76 724.481 1138.14 722.725 1133.77Z" fill="#091016"/>
<path d="M605.263 1184.27C605.15 1177.41 607.191 1171.61 609.044 1170.15C611.354 1168.82 614.963 1171.74 618.084 1176.48C620.751 1181.1 619.043 1187.47 614.303 1190.59C609.108 1193.59 605.043 1190.55 605.263 1184.27Z" fill="#091016"/>
<path d="M643.221 1177.35C649.725 1171.29 659.05 1167.44 664.058 1168.79C678.172 1172.57 685.138 1186.63 672.447 1186.65C665.585 1186.76 661.057 1190.92 660.715 1197.66C660.608 1210.8 708.502 1197.77 716.414 1182.82C719.366 1177.26 725.617 1179.43 730.072 1186.47C734.405 1193.98 746.209 1199.09 754.924 1197.53C764.095 1196.08 771.013 1199.4 770.915 1205.23C770.695 1211.51 766.5 1216.24 760.215 1216.02C754.841 1216.05 749.947 1221.57 749.605 1228.31C749.352 1236.53 743.124 1239.74 730.466 1237.82C716.897 1235.64 710.426 1239.76 705.856 1253.18C701.285 1266.59 694.114 1271.5 678.448 1271.7C659.351 1271.95 658.684 1270.79 672.083 1262.67C690.222 1251.43 690.858 1227.2 673.37 1226.91C651.997 1226.55 629.423 1188.78 643.009 1176.32L643.221 1177.35Z" fill="#091016"/>
<path d="M592.427 1233.99C588.427 1227.06 592.355 1217.87 601.924 1213.11C614.835 1206.81 620.721 1210.34 627.077 1226.68C633.522 1244.51 630.449 1250.52 611.343 1258.09C582.001 1269.25 565.457 1267.26 585.782 1255.14C593.287 1250.81 596.426 1240.91 592.427 1233.99Z" fill="#091016"/>
<path d="M550.14 1300.76C553.139 1305.95 551.553 1311.87 546.358 1314.87C541.163 1317.87 535.244 1316.29 532.245 1311.09C529.245 1305.89 530.831 1299.98 536.026 1296.98C541.222 1293.98 547.14 1295.56 550.14 1300.76Z" fill="#091016"/>
<path d="M641.707 1301.38C665.211 1297.43 665.494 1314.58 642.16 1328.82C628.761 1336.95 618.924 1337.24 616.868 1330.34C613.576 1315.31 622.788 1304.6 641.13 1301.71L641.707 1301.38Z" fill="#091016"/>
<path d="M795.854 1225.07C801.862 1228.14 806.227 1233.7 805.251 1237.34C802.568 1247.36 769.105 1252.05 763.65 1243.27C756.985 1231.73 781.684 1217.85 795.854 1225.07Z" fill="#091016"/>
<path d="M880.82 1237.58C878.282 1252.51 880.859 1255.64 891.973 1254.23C899.655 1252.87 897.403 1257.63 886.89 1264.09C872.792 1273 864.931 1271.38 857.144 1258.56C850.023 1246.89 853.04 1237.45 865.284 1230C880.415 1220.88 883.358 1222.64 880.82 1237.58Z" fill="#091016"/>
<path d="M803.049 1327.51C806.048 1332.71 803.008 1336.77 796.601 1337.01C789.74 1337.12 783.488 1334.96 782.033 1333.1C780.7 1330.8 783.74 1326.73 788.48 1323.61C793.098 1320.94 799.927 1322.77 803.049 1327.51Z" fill="#091016"/>
<path d="M1009.76 1286.31C991.844 1311.27 983.519 1316.85 983.869 1302.79C983.878 1295.48 992.391 1285.56 1003.36 1279.23C1021.83 1268.56 1022.16 1269.14 1009.76 1286.31Z" fill="#091016"/>
<path d="M1118.86 1379.93C1118.86 1379.93 1120.44 1374.02 1125.18 1370.89C1129.8 1368.23 1136.18 1369.94 1139.3 1374.68C1142.3 1379.87 1139.26 1383.94 1132.97 1383.72C1126.11 1383.83 1120.31 1381.79 1118.86 1379.93Z" fill="#091016"/>
<path d="M1114.72 1435.44C1128.32 1435.67 1129.32 1437.4 1121.38 1446.98C1109.01 1462.21 1085.38 1466.61 1085.95 1453.59C1086.05 1440.44 1094.26 1435.32 1114.6 1435.89L1114.72 1435.44Z" fill="#091016"/>
<path d="M1640.39 1382.09C1650.56 1382.37 1657.81 1386.27 1656.71 1390.37C1655.49 1394.92 1646.57 1395.45 1635.88 1391.62C1614.06 1383.82 1615.25 1381.21 1640.51 1381.63L1640.39 1382.09Z" fill="#091016"/>
<path d="M1618.23 1318.38L1617.5 1321.12L1616.13 1320.75L1618.23 1318.38Z" fill="#091016"/>
</g>
<defs>
<clipPath id="clip0_3077_962">
<rect width="1920" height="1474" fill="white" transform="matrix(-1 0 0 1 1920 0)"/>
</clipPath>
</defs>
</svg>
