<svg width="214" height="86" viewBox="0 0 214 86" fill="none" xmlns="http://www.w3.org/2000/svg">
<g clip-path="url(#clip0_4236_2349)">
<path d="M87.2905 23.5348V23.4893C87.4908 23.3113 87.7135 23.1615 87.9542 23.044L86.6088 21.6991C86.4396 21.5304 86.3059 21.3299 86.214 21.1092C86.1229 20.8886 86.0759 20.6521 86.0759 20.4133C86.0759 20.1744 86.1229 19.938 86.214 19.7173C86.3059 19.4967 86.4396 19.2962 86.6088 19.1274L104.4 1.34362C104.569 1.17354 104.77 1.03858 104.992 0.946556C105.213 0.854536 105.451 0.807258 105.691 0.807453C106.172 0.809477 106.633 1.00232 106.973 1.34362L124.772 19.1274C124.942 19.2962 125.075 19.4967 125.167 19.7173C125.259 19.938 125.306 20.1744 125.306 20.4133C125.306 20.6521 125.259 20.8886 125.167 21.1092C125.075 21.3299 124.942 21.5304 124.772 21.6991L123.427 23.044C123.668 23.1615 123.891 23.3113 124.091 23.4893V23.5348L125.327 22.2989C125.575 22.0523 125.771 21.7592 125.906 21.4364C126.04 21.1136 126.109 20.7674 126.109 20.4178C126.109 20.0683 126.04 19.722 125.906 19.3992C125.771 19.0764 125.575 18.7833 125.327 18.5368L107.536 0.752926C107.029 0.269606 106.355 0 105.654 0C104.953 0 104.28 0.269606 103.772 0.752926L85.982 18.5368C85.734 18.7833 85.5373 19.0764 85.4029 19.3992C85.2684 19.722 85.1997 20.0683 85.1997 20.4178C85.1997 20.7674 85.2684 21.1136 85.4029 21.4364C85.5373 21.7592 85.734 22.0523 85.982 22.2989L87.2905 23.5348Z" fill="#DBE2EA"/>
<path d="M123.463 26.2155C123.565 25.9272 123.593 25.6178 123.544 25.316C123.495 25.0141 123.37 24.7297 123.181 24.4888C122.954 24.2784 122.663 24.1504 122.354 24.1253C122.049 24.1043 121.743 24.1288 121.445 24.198C120.927 24.3232 120.425 24.503 119.945 24.7342C119.122 25.1308 118.321 25.5707 117.545 26.0518L115.645 24.5434C115.46 24.3685 115.218 24.2654 114.963 24.2526C114.867 24.2388 114.768 24.2388 114.672 24.2526V22.8985V14.4383C114.671 13.8413 114.431 13.2693 114.009 12.848L107.281 6.12339C107.072 5.91265 106.824 5.74535 106.55 5.63119C106.276 5.51703 105.983 5.45825 105.686 5.45825C105.389 5.45825 105.096 5.51703 104.822 5.63119C104.548 5.74535 104.299 5.91265 104.09 6.12339L97.3722 12.848C96.9492 13.2693 96.7107 13.8413 96.7085 14.4383V24.2617C96.6152 24.2479 96.5205 24.2479 96.4265 24.2617C96.2978 24.2678 96.1713 24.2987 96.0542 24.3525C95.9906 24.3699 95.932 24.401 95.8814 24.4434C95.8272 24.4715 95.778 24.5083 95.7361 24.5525L93.8448 26.0609C93.0734 25.5722 92.2716 25.1322 91.4453 24.7433C90.9652 24.5121 90.4627 24.3323 89.9451 24.2071C89.6472 24.1379 89.3407 24.1134 89.0363 24.1344C88.7276 24.1595 88.4362 24.2875 88.2085 24.4979C88.0249 24.741 87.9027 25.0254 87.8535 25.3263C87.8044 25.6272 87.8297 25.9355 87.9273 26.2245C88.0567 26.7406 88.236 27.2428 88.463 27.7239C88.8512 28.552 89.2879 29.3562 89.7723 30.1321L88.2634 32.0132C88.0805 32.206 87.9714 32.4568 87.954 32.7219C87.9468 32.9539 87.9837 33.1854 88.0632 33.4035C88.1492 33.6185 88.2815 33.8116 88.4514 33.9688C88.6213 34.126 88.8238 34.2434 89.045 34.3122H92.5724L91.1814 36.8475L91.0635 37.0657C90.9095 37.3128 90.8119 37.5906 90.7779 37.8795C90.7432 38.1684 90.7722 38.4613 90.8633 38.7377C90.9724 39.0215 91.151 39.2734 91.3831 39.4703C91.6152 39.6671 91.8928 39.8027 92.1906 39.8645H97.5811L97.5088 40.0463C97.4466 40.1735 97.4011 40.3077 97.3722 40.4461C97.3151 40.7314 97.344 41.0273 97.456 41.296C97.5674 41.5647 97.7568 41.794 97.9997 41.9546C98.2275 42.1141 98.495 42.2084 98.7726 42.2272H99.4269H100.681H110.681H111.936H112.591C112.868 42.2084 113.135 42.1141 113.363 41.9546C113.606 41.794 113.795 41.5647 113.907 41.296C114.019 41.0273 114.048 40.7314 113.99 40.4461C113.97 40.3056 113.924 40.17 113.854 40.0463L113.782 39.8645H119.172C119.47 39.8027 119.747 39.6671 119.98 39.4703C120.212 39.2734 120.39 39.0215 120.499 38.7377C120.589 38.4616 120.619 38.1694 120.586 37.881C120.553 37.5925 120.458 37.3144 120.309 37.0657L120.191 36.8294L118.79 34.3122H122.327C122.546 34.2421 122.747 34.1243 122.916 33.9672C123.083 33.81 123.215 33.6174 123.299 33.4035C123.383 33.1864 123.42 32.9542 123.409 32.7219C123.398 32.5201 123.332 32.3252 123.218 32.1585C123.195 32.1091 123.16 32.0656 123.118 32.0313L121.636 30.2138C122.12 29.438 122.557 28.6339 122.945 27.8057C123.172 27.3246 123.351 26.8224 123.482 26.3063M97.6816 14.5473C97.6809 14.3788 97.7134 14.2118 97.777 14.0558C97.8414 13.8999 97.9354 13.7581 98.054 13.6386L99.7175 11.9756L100.127 18.2367L100.59 11.1123L102.763 8.9223L103.181 15.2834L103.636 8.06808L104.781 6.92307C105.024 6.6856 105.35 6.55201 105.691 6.55052C105.859 6.5498 106.026 6.58232 106.182 6.64624C106.338 6.71018 106.48 6.80425 106.599 6.92307L107.754 8.07718L108.209 15.0653L108.627 8.94954L110.791 11.1214L111.263 18.255L111.663 11.9938L113.336 13.6568C113.455 13.7763 113.549 13.9181 113.613 14.0741C113.677 14.23 113.709 14.397 113.708 14.5655V21.7445L107.281 15.3016C106.848 14.8946 106.276 14.668 105.681 14.668C105.087 14.668 104.514 14.8946 104.081 15.3016L97.6541 21.7445L97.6816 14.5473ZM99.7992 34.9665L99.7269 35.3663L98.2817 33.9123C97.3722 33.0763 96.5726 32.2494 95.7086 31.4406V30.8954L95.872 27.2605L95.063 30.2683L94.9358 30.75C94.7174 30.5319 94.5085 30.332 94.2909 30.1411C92.9454 28.9143 91.5631 27.6966 90.154 26.5062C91.3086 27.942 92.5362 29.2869 93.7906 30.6228C93.9908 30.8408 94.1904 31.0589 94.4087 31.277L90.8727 32.2312L95.1086 32.0403C95.9364 32.8945 96.7634 33.7215 97.5905 34.5576L99.0994 36.0297L94.4268 36.9384L99.8816 36.8294C100.845 37.7381 101.827 38.6469 102.836 39.5556L100.2 40.2189L103.517 40.3552H103.745C104.191 40.7369 104.654 41.1186 105.099 41.482L105.391 41.7729L100.736 41.5275H99.4811C99.2845 41.5375 99.0871 41.5375 98.8904 41.5275C98.7495 41.5204 98.615 41.466 98.5087 41.3731C98.4082 41.2958 98.333 41.1912 98.2911 41.0718C98.2491 40.9525 98.2426 40.8235 98.2723 40.7006C98.2954 40.6354 98.3229 40.5716 98.354 40.5097L98.4993 40.2371L98.7993 39.6919L99.1818 38.9922H92.3815C92.2521 38.9599 92.1321 38.898 92.0316 38.8112C91.9304 38.7244 91.8508 38.6152 91.7995 38.4923C91.7438 38.3149 91.7438 38.1246 91.7995 37.9471C91.8125 37.891 91.8306 37.8362 91.8545 37.7835C91.8776 37.7243 91.9051 37.6666 91.9362 37.6109L93.8361 34.1486L94.2265 33.4488H89.2995C89.2272 33.4151 89.1628 33.3671 89.11 33.3078C89.0565 33.2484 89.0161 33.179 88.9908 33.1035C88.9177 32.9128 88.9908 32.7401 88.9908 32.7128L90.7085 30.5682L90.9544 30.2593L90.7179 29.9957C90.0861 29.2317 89.5315 28.4067 89.0631 27.5331C88.8303 27.1095 88.6524 26.6574 88.536 26.1881C88.4579 26.004 88.4254 25.8039 88.4413 25.6046C88.4572 25.4052 88.5208 25.2126 88.6271 25.0431C88.784 24.9411 88.9626 24.8772 89.1491 24.8567C89.3356 24.8362 89.5243 24.8596 89.6993 24.925H89.7636C90.2343 25.0409 90.6869 25.2213 91.1091 25.4612C91.9868 25.923 92.8124 26.4775 93.5722 27.1151L93.8542 27.3332L94.1542 27.1059L96.2993 25.3794C96.2993 25.3339 96.4634 25.3158 96.6449 25.3794H96.6904C96.8473 25.4404 96.9767 25.5568 97.0541 25.7065L97.7084 29.496L97.8175 30.1593L98.3995 29.8321L100.963 28.4418C101.106 28.3238 101.272 28.2375 101.451 28.189C101.63 28.1404 101.817 28.1305 101.999 28.1601C102.148 28.2001 102.283 28.2795 102.39 28.3899C102.497 28.5002 102.573 28.6375 102.609 28.7871V35.6025L103.3 35.2027L104.363 34.5939C104.479 34.543 104.608 34.5279 104.733 34.5506C104.857 34.5732 104.973 34.6326 105.063 34.7211C105.125 34.7773 105.175 34.8461 105.207 34.923C105.24 34.9998 105.256 35.0828 105.254 35.1664C105.269 35.3265 105.269 35.4878 105.254 35.6481V36.9111L105.373 40.6915V41.791C104.89 41.1912 104.381 40.6006 103.872 40.0281L103.809 39.1194L103.708 36.6113L103.227 38.5468L103.082 39.1103C102.172 38.1107 101.263 37.1293 100.354 36.1569V35.6571L100.445 30.8045L99.7992 34.9665ZM105.709 34.1395C105.513 33.9204 105.255 33.7657 104.969 33.696C104.684 33.6262 104.384 33.6446 104.109 33.7488C103.927 33.8215 103.773 33.9033 103.627 33.976V28.5236C103.554 28.1982 103.395 27.899 103.163 27.6586C102.933 27.4182 102.64 27.2459 102.318 27.1605C101.714 27.0468 101.089 27.1775 100.581 27.524L98.6179 28.6054L98.0634 25.4248V25.3794C97.9976 25.1506 97.8718 24.9436 97.6997 24.7796V23.0258L101.145 19.5817L101.545 25.5975L101.999 18.7184L104.799 15.9104C104.929 15.7826 105.083 15.6835 105.254 15.6196L105.709 32.4856L106.145 15.6196C106.322 15.6809 106.483 15.7801 106.618 15.9104L109.418 18.7184L109.872 25.5975L110.272 19.5817L113.718 23.0258V24.7796C113.545 24.9436 113.42 25.1506 113.354 25.3794V25.4248L112.8 28.6054L110.836 27.524C110.328 27.1775 109.704 27.0468 109.1 27.1605C108.777 27.2459 108.485 27.4182 108.254 27.6586C108.023 27.899 107.863 28.1982 107.79 28.5236V33.976C107.645 33.9033 107.49 33.8215 107.309 33.7488C107.034 33.6446 106.734 33.6262 106.448 33.696C106.162 33.7657 105.905 33.9204 105.709 34.1395ZM122.854 26.1609C122.737 26.6301 122.56 27.0822 122.327 27.5058C121.861 28.3814 121.307 29.2067 120.672 29.9685L120.436 30.232L120.69 30.541L122.399 32.6856C122.463 32.6856 122.49 32.8855 122.399 33.0763C122.348 33.226 122.24 33.3499 122.099 33.4217H117.163L117.554 34.1213L119.454 37.5836C119.513 37.6931 119.558 37.8089 119.591 37.9289C119.646 38.1064 119.646 38.2967 119.591 38.4742C119.539 38.5971 119.46 38.7062 119.359 38.793C119.258 38.8798 119.138 38.9417 119.009 38.9739H112.208L112.591 39.6737L112.89 40.2189L113.036 40.4915C113.067 40.5535 113.094 40.6172 113.118 40.6824C113.147 40.8053 113.141 40.9342 113.099 41.0536C113.057 41.1729 112.981 41.2776 112.881 41.3548C112.775 41.4479 112.641 41.5023 112.5 41.5093C112.302 41.5193 112.106 41.5193 111.908 41.5093H110.663L105.927 41.6548L106.154 41.4184C106.636 41.0459 107.063 40.6369 107.581 40.2371L111.109 40.0917L108.481 39.4283C109.481 38.5196 110.463 37.6109 111.427 36.7022L116.882 36.8112L112.218 35.9024L113.727 34.4303L114.118 34.0396C114.809 33.3308 115.517 32.6311 116.209 31.9131L118.4 32.0132L120.445 32.104L116.918 31.1498L117.527 30.4955C118.772 29.1597 120 27.8148 121.163 26.379C119.727 27.5331 118.372 28.7508 117.027 30.0139C116.809 30.2048 116.6 30.4047 116.381 30.6228L116.254 30.1411L115.445 27.1332L115.618 30.7681V31.3134C114.891 31.9949 114.163 32.7038 113.436 33.4035C113.299 33.5307 113.181 33.667 113.045 33.7851L111.6 35.2391L111.527 34.8392L110.754 30.7227L110.836 35.5389V36.0297C109.927 37.002 108.963 37.9834 108.108 38.9831L107.963 38.4196L107.482 36.4841L107.382 38.9922V39.8464C106.854 40.437 106.345 41.0277 105.845 41.6638V40.5461L105.963 36.7658V35.5026C105.963 35.339 105.963 35.2027 105.963 35.0211C105.961 34.9374 105.977 34.8544 106.01 34.7775C106.043 34.7007 106.092 34.6318 106.154 34.5757C106.245 34.4872 106.36 34.4279 106.485 34.4052C106.61 34.3826 106.738 34.3976 106.854 34.4485L107.917 35.0573L108.627 35.4572V28.6235C108.666 28.4823 108.74 28.3537 108.844 28.2501C108.948 28.1466 109.076 28.0717 109.217 28.0329C109.4 28.0033 109.588 28.0131 109.766 28.0617C109.945 28.1103 110.112 28.1966 110.254 28.3146L112.818 29.705L113.4 30.032L113.509 29.3687L114.163 25.5793C114.241 25.4296 114.37 25.3132 114.527 25.2522H114.572C114.754 25.1977 114.891 25.2522 114.917 25.2522L117.063 26.9788L117.373 27.2059L117.645 26.9879C118.408 26.3544 119.233 25.8001 120.109 25.3339C120.53 25.0941 120.983 24.9137 121.454 24.7978H121.517C121.693 24.7317 121.882 24.7079 122.068 24.7284C122.255 24.749 122.433 24.8131 122.59 24.9159C122.696 25.0855 122.76 25.278 122.776 25.4773C122.792 25.6766 122.759 25.8768 122.681 26.0609" fill="#DBE2EA"/>
<path d="M16.5181 58.457C16.9291 57.509 17.1167 56.4792 17.0662 55.4471C17.0158 54.4151 16.7288 53.4084 16.2273 52.5049C15.6448 51.5753 14.8003 50.8386 13.8 50.3876C12.5085 49.8374 11.1121 49.5768 9.70909 49.6242H0.0272992V49.9332H0.409156C0.670732 49.9328 0.929758 49.984 1.17153 50.0838C1.41331 50.1836 1.63304 50.33 1.81818 50.5147C2.00726 50.6952 2.15731 50.9124 2.25896 51.1532C2.3606 51.3939 2.41169 51.6529 2.4091 51.9142V69.2619C2.39681 69.7874 2.17806 70.2868 1.80009 70.6522C1.62021 70.8389 1.40397 70.9868 1.16477 71.0868C0.925565 71.1868 0.668427 71.2368 0.409156 71.2338H0V71.5155H8.64538V71.1975H8.2364C7.97678 71.2027 7.71897 71.1537 7.47944 71.0535C7.23992 70.9534 7.02397 70.8043 6.84545 70.6158C6.65667 70.4361 6.50558 70.2206 6.401 69.9819C6.29643 69.7432 6.24054 69.4861 6.23643 69.2255V50.7783H8.80003C9.36236 50.7442 9.92512 50.8376 10.4462 51.0517C10.9673 51.2657 11.4332 51.5947 11.8091 52.0141C12.556 52.9518 12.9458 54.1239 12.9091 55.3219C12.9361 55.6455 12.9361 55.9708 12.9091 56.2943C12.883 56.6023 12.8251 56.9069 12.7363 57.203C12.5551 57.9215 12.2132 58.5896 11.7363 59.1568C11.3448 59.612 10.8575 59.9751 10.3091 60.22C9.84386 60.4242 9.35542 60.5706 8.85461 60.6562C8.34643 60.7352 7.83067 60.7535 7.31822 60.7107V61.0197C8.13084 61.5094 9.03919 61.8193 9.98187 61.9284C10.869 62.0492 11.7718 61.9748 12.6272 61.7104C13.4646 61.4527 14.2431 61.0327 14.9181 60.4744C15.5997 59.9033 16.1436 59.1857 16.509 58.3752" fill="#DBE2EA"/>
<path d="M35.6091 70.7797C35.0688 70.4308 34.6422 69.9317 34.3819 69.3438L25.3727 49.061H25.091C25.0521 49.371 24.9789 49.6758 24.8728 49.9697C24.7456 50.3604 24.6001 50.7603 24.4183 51.1783C24.2365 51.5964 24.082 51.9689 23.9455 52.287C23.8092 52.605 23.7273 52.814 23.6819 52.8958L16.4819 69.4438C16.2259 69.999 15.8158 70.469 15.3001 70.7978C14.8547 71.0842 14.3387 71.2415 13.8092 71.2522H13.5273V71.5157H20.1092V71.1977H19.8274C19.5582 71.194 19.296 71.112 19.0728 70.9614C18.8243 70.8052 18.6378 70.5675 18.5455 70.2889C18.4435 69.9355 18.4759 69.5567 18.6364 69.2257L24.3637 55.1949L29.8182 69.253C29.9347 69.4783 29.9846 69.7322 29.962 69.9848C29.9395 70.2375 29.8455 70.4785 29.6909 70.6797C29.561 70.837 29.3989 70.9647 29.2154 71.054C29.0319 71.1434 28.8314 71.1924 28.6274 71.1977H28.3455V71.5157H37.3364V71.1977H37.1C36.5733 71.1872 36.0602 71.0298 35.6182 70.7433" fill="#DBE2EA"/>
<path d="M60.0454 71.2339C59.5303 71.2417 59.0182 71.1523 58.5362 70.9704C58.0824 70.7825 57.6643 70.5182 57.2999 70.1888C56.8451 69.7737 56.4198 69.3274 56.0272 68.853C55.7362 68.4986 55.3999 68.0625 55.009 67.5444C54.6181 67.0265 54.2545 66.4994 53.9 65.9724C53.5454 65.4453 53.2454 65.0091 52.9908 64.6456L52.6 64.064C52.2253 63.5186 51.7991 63.0104 51.3273 62.5465C50.8819 62.0728 50.3304 61.7115 49.7181 61.4923C50.7475 61.4471 51.7392 61.0924 52.5636 60.4745C53.3319 59.8935 53.9364 59.1233 54.3181 58.2391C54.7085 57.3829 54.913 56.4538 54.9181 55.5129C54.9441 54.6001 54.7541 53.694 54.3636 52.8685C54.0111 52.1494 53.4902 51.526 52.8454 51.051C52.1746 50.5572 51.4155 50.1963 50.6091 49.9878C49.7195 49.7511 48.8023 49.6349 47.8818 49.6425H37.8818V49.9515H38.2819C38.5424 49.9493 38.8006 49.9997 39.0412 50.0996C39.2817 50.1995 39.4996 50.347 39.6818 50.5331C40.0587 50.9029 40.2771 51.4047 40.2909 51.9325V69.2801C40.2786 69.8056 40.0598 70.3051 39.6818 70.6705C39.5009 70.8583 39.2832 71.0069 39.0424 71.1069C38.8015 71.207 38.5427 71.2564 38.2819 71.2521H37.8818V71.5156H46.4909V71.1976H46.1909C45.9289 71.201 45.669 71.1512 45.4267 71.0512C45.1845 70.9513 44.965 70.8032 44.7817 70.616C44.5893 70.4401 44.437 70.225 44.335 69.9851C44.233 69.7452 44.1839 69.4862 44.1909 69.2256V50.8784H44.6727H45.8181C46.2545 50.8784 46.6727 50.8784 47.0727 50.8784C47.5692 50.8839 48.0593 50.9926 48.5116 51.1976C48.9639 51.4025 49.3685 51.6991 49.7 52.0688C50.4566 53.0062 50.856 54.1816 50.8272 55.3857C50.8549 55.6879 50.8549 55.9921 50.8272 56.2944C50.8272 56.5852 50.7454 56.8305 50.6999 57.0123C50.5543 57.8005 50.2102 58.5386 49.7 59.1569C49.283 59.6383 48.747 60.0018 48.1454 60.211C47.5937 60.3963 47.018 60.5004 46.4363 60.52C46.1761 60.5375 45.9149 60.5375 45.6546 60.52H45.2454V60.838C45.7339 60.8962 46.1887 61.1171 46.5363 61.465C46.9723 61.8979 47.3401 62.3942 47.6272 62.9372C47.6908 63.0826 47.8091 63.328 47.9909 63.6915C48.1727 64.0549 48.3817 64.4457 48.6454 64.891L49.4454 66.2904C49.7181 66.772 49.9727 67.1991 50.2 67.5899C50.4273 67.9807 50.6091 68.2624 50.7273 68.4441C51.1662 69.1119 51.7203 69.6965 52.3636 70.1707C53.0283 70.6518 53.7777 71.0032 54.5727 71.2066C55.52 71.4481 56.4951 71.5642 57.4727 71.552H60.0727L60.0454 71.2339Z" fill="#DBE2EA"/>
<path d="M82.2087 71.2338C81.613 71.2271 81.0288 71.0709 80.509 70.7794C79.9588 70.4504 79.4752 70.022 79.0819 69.5162L71.0453 59.0659L77.6092 51.3508C78.0097 50.9127 78.4955 50.5602 79.0363 50.3148C79.6407 50.0393 80.2986 49.8997 80.9638 49.9059H81.0816V49.6241H74.0999V49.9059H74.4093C74.5908 49.8842 74.7744 49.9176 74.9363 50.0019C75.0983 50.0862 75.2313 50.2174 75.3181 50.3784C75.3976 50.539 75.4287 50.7196 75.4055 50.8975C75.3831 51.0753 75.3079 51.2426 75.1908 51.378L67.7544 61.0288L69.2726 63.0279L70.7181 64.9272C71.2271 65.5996 71.7271 66.2539 72.209 66.8628C72.6908 67.4716 73.1181 68.0078 73.4087 68.4349C73.7001 68.862 73.9271 69.1255 73.9907 69.2345C74.423 69.7909 74.9681 70.2493 75.5906 70.5795C76.1654 70.8799 76.777 71.1059 77.4089 71.252C77.9381 71.3764 78.476 71.4615 79.0182 71.5064C79.4997 71.5064 79.8547 71.5064 80.0911 71.5064H82.2456L82.2087 71.2338Z" fill="#DBE2EA"/>
<path d="M63.0086 71.5155H69.1449V71.1974H68.7359C68.4764 71.2016 68.219 71.152 67.9796 71.0519C67.7402 70.9519 67.5241 70.8034 67.345 70.6158C67.1561 70.4361 67.0051 70.2206 66.9005 69.9819C66.796 69.7432 66.7399 69.486 66.7358 69.2254V51.9142C66.7457 51.3856 66.9648 50.8823 67.345 50.5147C67.5254 50.3289 67.7417 50.1816 67.9808 50.0816C68.2199 49.9817 68.4767 49.9311 68.7359 49.9332H69.1449V49.6241H60.4995V49.9332H60.9086C61.1675 49.9322 61.4241 49.9832 61.6631 50.0831C61.9019 50.183 62.1183 50.3298 62.2995 50.5147C62.6796 50.8823 62.8987 51.3856 62.9086 51.9142V69.2618C62.9045 69.5224 62.8485 69.7795 62.7439 70.0182C62.6394 70.2569 62.4883 70.4724 62.2995 70.6522C62.1196 70.8388 61.9035 70.9868 61.6643 71.0868C61.4251 71.1868 61.1678 71.2368 60.9086 71.2338H60.4995V71.5155H63.0086Z" fill="#DBE2EA"/>
<path d="M101.418 71.234H101.136V71.5158H110.127V71.1977H109.881C109.352 71.1869 108.836 71.0297 108.39 70.7433C107.853 70.394 107.429 69.8948 107.172 69.3075L98.1631 49.0247H97.8811C97.8334 49.333 97.7604 49.6368 97.6635 49.9334C97.5355 50.3241 97.3815 50.724 97.2087 51.1421L96.7359 52.2507C96.5993 52.5778 96.5089 52.7777 96.472 52.8595L89.2719 69.4074C89.0109 69.9591 88.6017 70.4278 88.0906 70.7615C87.6445 71.0469 87.129 71.2041 86.5998 71.2158H86.3179V71.5158H92.8998V71.1977H92.6179C92.3482 71.1952 92.0858 71.1129 91.8631 70.9615C91.6122 70.8057 91.4228 70.5682 91.3266 70.289C91.2283 69.9343 91.2637 69.5558 91.4271 69.2257L97.1632 55.1949L102.617 69.253C102.733 69.4792 102.781 69.7335 102.757 69.9862C102.733 70.2388 102.638 70.4794 102.481 70.6797C102.353 70.8389 102.191 70.9678 102.007 71.0574C101.823 71.1469 101.622 71.1948 101.418 71.1977" fill="#DBE2EA"/>
<path d="M117.754 68.8983C117.899 68.5803 117.99 68.3713 118.036 68.2895L125.481 51.7415C125.746 51.1864 126.161 50.7171 126.681 50.3875C127.124 50.1113 127.632 49.9576 128.154 49.9423H128.435V49.6241H121.854V49.9423H122.136C122.344 49.9425 122.55 49.9872 122.74 50.0734C122.929 50.1596 123.098 50.2853 123.236 50.442C123.387 50.638 123.479 50.874 123.498 51.1209C123.517 51.3679 123.464 51.6152 123.345 51.8324L117.354 65.9813L111.645 51.8779C111.525 51.6528 111.471 51.3983 111.491 51.1441C111.51 50.8899 111.602 50.6464 111.754 50.442C111.882 50.2864 112.043 50.1609 112.225 50.0745C112.408 49.9882 112.606 49.943 112.808 49.9423H113.09V49.6241H104.09V49.9423H104.345C104.873 49.9548 105.388 50.1086 105.836 50.3875C106.398 50.7609 106.838 51.292 107.1 51.9142L116.299 72.1152H116.581C116.622 71.8054 116.695 71.5008 116.799 71.2065C116.918 70.8248 117.072 70.425 117.236 70.007C117.399 69.589 117.563 69.2164 117.708 68.8892" fill="#DBE2EA"/>
<path d="M144.145 68.0898C143.642 68.7928 142.974 69.361 142.199 69.7437C141.348 70.1477 140.414 70.3468 139.472 70.3253H135.281V50.8421H141.099C141.74 50.8916 142.341 51.1651 142.799 51.6145C143.052 51.8717 143.248 52.1776 143.379 52.5136C143.508 52.8495 143.568 53.2084 143.554 53.5683V54.0136H143.872V49.061C143.577 49.1711 143.272 49.2563 142.963 49.3154C142.527 49.3972 142.054 49.4699 141.536 49.5335C141.053 49.5941 140.568 49.6245 140.081 49.6244H129.081V49.9334H129.49C129.751 49.9312 130.009 49.9816 130.249 50.0816C130.49 50.1814 130.708 50.3289 130.891 50.5149C131.263 50.8875 131.481 51.3877 131.499 51.9144V69.2621C131.482 69.7865 131.264 70.2843 130.891 70.6524C130.709 70.8402 130.492 70.9888 130.251 71.0888C130.01 71.1889 129.751 71.2383 129.49 71.234H129.081V71.5157H144.254L145.817 65.5636H145.499C145.194 66.4509 144.762 67.2895 144.217 68.0535" fill="#DBE2EA"/>
<path d="M212.99 65.5999C212.682 66.4876 212.247 67.3263 211.699 68.0898C211.2 68.7925 210.535 69.3607 209.763 69.7437C208.911 70.1474 207.978 70.3465 207.036 70.3253H202.845V50.8421H208.654C209.341 50.8797 209.984 51.1877 210.444 51.6986C210.904 52.2095 211.143 52.8818 211.108 53.5683V54.0136H211.426V49.061C211.132 49.172 210.828 49.2541 210.518 49.3063C210.071 49.3972 209.608 49.4699 209.09 49.5335C208.604 49.5893 208.115 49.6196 207.626 49.6244H196.636V49.9334H197.036C197.296 49.9312 197.555 49.9816 197.795 50.0816C198.035 50.1814 198.253 50.3289 198.435 50.5149C198.813 50.8848 199.031 51.3866 199.045 51.9144V69.2621C199.032 69.7875 198.813 70.287 198.435 70.6524C198.254 70.8402 198.037 70.9888 197.796 71.0888C197.555 71.1889 197.297 71.2383 197.036 71.234H196.636V71.5157H211.799L213.362 65.5636L212.99 65.5999Z" fill="#DBE2EA"/>
<path d="M168.282 49.6244H162.427V49.9334H163.018C163.271 49.9256 163.523 49.9709 163.758 50.0664C163.993 50.1619 164.205 50.3054 164.381 50.4877C164.743 50.8502 164.952 51.3385 164.963 51.8508V65.2273L148.7 49.1519H148.381C148.599 50.4464 148.714 51.756 148.727 53.0685V69.3257C148.731 69.5766 148.683 69.8256 148.586 70.0571C148.489 70.2885 148.345 70.4975 148.163 70.6706C147.99 70.8522 147.781 70.9961 147.55 71.093C147.318 71.19 147.069 71.238 146.818 71.234H146.19V71.5157H154.681V71.1977H154.082C153.576 71.1929 153.093 70.9904 152.737 70.6335C152.38 70.2766 152.177 69.7939 152.172 69.2893V55.9128L168.427 71.9519H168.709C168.608 71.2431 168.527 70.5797 168.463 69.98C168.394 69.3036 168.361 68.6242 168.363 67.9444V51.8508C168.377 51.3355 168.592 50.8462 168.963 50.4877C169.139 50.3102 169.349 50.1698 169.579 50.0745C169.811 49.9793 170.059 49.9313 170.309 49.9334H170.872V49.6244H168.272H168.282Z" fill="#DBE2EA"/>
<path d="M192.854 49.6241H188.78V49.9332H189.281C189.715 49.9249 190.135 50.0844 190.453 50.3784C190.614 50.5182 190.741 50.6918 190.826 50.8867C190.91 51.0816 190.951 51.2928 190.944 51.5052V63.8095C190.975 65.0825 190.701 66.3445 190.145 67.4898C189.642 68.4929 188.863 69.3316 187.899 69.907C186.85 70.5013 185.659 70.7968 184.453 70.7612C183.3 70.8017 182.161 70.4916 181.187 69.8719C180.213 69.2522 179.451 68.3519 178.999 67.2898C178.459 66.0689 178.195 64.7441 178.227 63.4097V51.5234C178.219 51.311 178.26 51.0997 178.345 50.9048C178.43 50.71 178.557 50.5364 178.717 50.3966C179.036 50.1026 179.456 49.943 179.89 49.9513H180.39V49.6424H172.208V49.9513H172.708C173.142 49.943 173.562 50.1026 173.881 50.3966C174.041 50.5364 174.168 50.71 174.253 50.9048C174.338 51.0997 174.379 51.311 174.372 51.5234V63.7367C174.334 65.2701 174.724 66.7836 175.499 68.1077C176.286 69.3796 177.44 70.3837 178.809 70.9884C180.461 71.7095 182.251 72.057 184.054 72.0062C185.687 72.0478 187.306 71.6923 188.772 70.9703C190.049 70.3197 191.11 69.3127 191.826 68.0714C192.559 66.7365 192.926 65.2317 192.89 63.7094V51.5234C192.883 51.3118 192.923 51.1014 193.006 50.9068C193.089 50.7122 193.214 50.5381 193.372 50.3966C193.695 50.1036 194.117 49.9444 194.553 49.9513H195.054V49.6424H192.826L192.854 49.6241Z" fill="#DBE2EA"/>
<path d="M204.572 60.9198C204.572 60.9198 209.626 61.7649 209.626 63.9732H209.917V57.8846H209.626C209.626 60.3018 204.572 60.9198 204.572 60.9198Z" fill="#DBE2EA"/>
<path d="M137.008 60.9198C137.008 60.9198 142.072 61.7649 142.072 63.9732H142.363V57.8846H142.072C142.072 60.3018 137.008 60.9198 137.008 60.9198Z" fill="#DBE2EA"/>
<path d="M97.0449 68.6896C97.0449 68.6896 97.8452 64.3277 99.9541 64.3277L99.8363 64.0551H94.2542L94.145 64.3277C96.4542 64.3277 97.0449 68.6896 97.0449 68.6896Z" fill="#DBE2EA"/>
<path d="M24.2272 68.6896C24.2272 68.6896 25.0364 64.3277 27.1364 64.3277L27.0182 64.0551H21.4455L21.3364 64.3277C23.6455 64.3277 24.2272 68.6896 24.2272 68.6896Z" fill="#DBE2EA"/>
<path d="M81.2085 78.7854H83.1996C83.5292 78.7796 83.8582 78.8287 84.172 78.9306C84.4481 79.0202 84.7048 79.1619 84.9267 79.3491C85.1328 79.5362 85.2969 79.7653 85.4082 80.0212C85.5319 80.3081 85.5904 80.6181 85.581 80.9296V81.0481C85.5919 81.3589 85.5362 81.6689 85.4176 81.9565C85.3085 82.2109 85.1436 82.4378 84.9361 82.62C84.7164 82.8079 84.4633 82.9524 84.1908 83.0471C83.8763 83.149 83.5473 83.1981 83.2176 83.1923H81.7992V85.8005H81.2085V78.7854ZM83.1996 82.5744C83.449 82.578 83.6977 82.5412 83.9356 82.466C84.1373 82.4068 84.3238 82.3041 84.4814 82.1661C84.6361 82.0396 84.7576 81.877 84.8357 81.6935C84.9195 81.4853 84.9593 81.2627 84.9542 81.0387V80.9209C84.9586 80.694 84.9181 80.4685 84.8357 80.2575C84.7561 80.0696 84.6347 79.9019 84.4814 79.7668C84.3194 79.6273 84.1308 79.5218 83.9269 79.4575C83.6919 79.3823 83.4461 79.3455 83.1996 79.3491H81.7992V82.5744H83.1996Z" fill="#DBE2EA"/>
<path d="M88.6537 78.7854H90.7359C91.0684 78.781 91.3988 78.8273 91.7177 78.922C91.9895 79.0094 92.2425 79.1482 92.463 79.331C92.6633 79.5088 92.8216 79.7292 92.9265 79.9756C93.0414 80.2647 93.0942 80.574 93.0812 80.8848V80.9845C93.0971 81.429 92.959 81.8655 92.6901 82.2203C92.4095 82.5636 92.0228 82.8035 91.5904 82.9018L93.6082 85.7918H92.8448L90.9542 83.0659H89.227V85.7918H88.627L88.6537 78.7854ZM90.7453 82.4205C91.2116 82.4523 91.6736 82.3135 92.0452 82.0295C92.1956 81.8965 92.3141 81.7303 92.3915 81.5446C92.4681 81.3589 92.5021 81.158 92.4905 80.9578V80.8573C92.5028 80.6514 92.4688 80.4447 92.3922 80.2532C92.3148 80.0616 92.1963 79.8896 92.0452 79.7487C91.6736 79.4654 91.2116 79.3267 90.7453 79.3577H89.2538V82.4205H90.7453Z" fill="#DBE2EA"/>
<path d="M96.5811 78.7399H100.39V79.3122H97.1811V81.8482H100.19V82.4111H97.1811V85.1371H100.49V85.7008H96.5811V78.7399Z" fill="#DBE2EA"/>
<path d="M103.645 78.7399H104.582L106.818 83.8926H106.881L109.109 78.7399H110.054V85.7008H109.454V79.4669H109.399L107.163 84.6377H106.545L104.3 79.4669H104.245V85.7008H103.645V78.7399Z" fill="#DBE2EA"/>
<path d="M114.336 78.7399H113.736V85.7008H114.336V78.7399Z" fill="#DBE2EA"/>
<path d="M119.426 85.6192C119.129 85.5115 118.857 85.3445 118.627 85.1284C118.403 84.9037 118.235 84.6298 118.136 84.3284C118.014 83.9844 117.955 83.6216 117.963 83.2567V78.7131H118.563V83.1562C118.551 83.4648 118.594 83.772 118.69 84.0654C118.764 84.2995 118.896 84.512 119.072 84.6833C119.245 84.8531 119.452 84.9839 119.681 85.0648C119.946 85.1508 120.222 85.1942 120.499 85.192C120.778 85.1957 121.054 85.1523 121.318 85.0648C121.545 84.9817 121.752 84.8517 121.926 84.6833C122.098 84.5091 122.225 84.2974 122.3 84.0654C122.399 83.7727 122.445 83.4648 122.435 83.1562V78.7854H123.027V83.329C123.033 83.6932 122.978 84.056 122.863 84.4014C122.756 84.6992 122.589 84.9716 122.373 85.2014C122.145 85.4211 121.872 85.5888 121.572 85.6921C121.227 85.807 120.864 85.862 120.499 85.8555C120.135 85.8613 119.773 85.8063 119.426 85.6921" fill="#DBE2EA"/>
<path d="M126.645 78.7399H127.581L129.818 83.8926H129.881L132.108 78.7399H133.054V85.7008H132.454V79.4669H132.399L130.154 84.6377H129.536L127.3 79.4669H127.245V85.7008H126.645V78.7399Z" fill="#DBE2EA"/>
</g>
<defs>
<clipPath id="clip0_4236_2349">
<rect width="214" height="86" fill="white"/>
</clipPath>
</defs>
</svg>
