<svg width="128" height="70" viewBox="0 0 128 72" fill="none" xmlns="http://www.w3.org/2000/svg">
<g clip-path="url(#clip0_186_1607)">
<path d="M88.7786 0H39.5751V45.1049H88.7786V0Z" fill="#07222F"/>
<path d="M49.3215 8.13953L56.9457 15.8423L64.6092 8.13953L72.2334 15.8423L79.8969 8.13953L85.4381 13.7379V8.97334L79.8969 3.33522L72.2334 11.0777L64.6092 3.33522L56.9457 11.0777L49.3215 3.33522L42.8763 9.84685V14.6512L49.3215 8.13953Z" fill="#EFF3F7"/>
<path d="M85.4381 38.4345H42.8763V41.8094H85.4381V38.4345Z" fill="#EFF3F7"/>
<path d="M43.623 28.7862C46.2168 26.9994 48.8892 25.8877 51.483 25.4509C56.1597 24.6965 59.5788 26.6818 63.2337 28.7465C67.0851 30.9699 71.4867 33.5111 77.5389 32.5184C80.0541 32.1214 82.2155 31.2082 84.1412 29.7788L85.4774 28.9053V24.4583L82.0583 26.6818L81.9404 26.7612C80.4863 27.8332 78.875 28.5082 76.9494 28.8259C72.1941 29.5803 68.7357 27.595 65.0808 25.4906C61.2294 23.2672 56.9064 20.7657 50.8935 21.7187C48.1818 22.1554 45.5094 23.1878 42.8763 24.776V29.2626L43.5837 28.8259L43.623 28.7862Z" fill="#5D85A3"/>
<path d="M0 62.2575V51.8548H4.5981C5.7771 51.8548 6.72029 52.1724 7.38839 52.768C8.05649 53.3636 8.41019 54.1577 8.41019 55.19C8.41019 56.0238 8.17439 56.6988 7.74209 57.215C7.30979 57.7311 6.72029 58.1282 5.9343 58.3267L8.72459 62.2575H6.60239L4.0479 58.6444H1.8078V62.2575H0ZM1.8078 57.0165H4.4409C5.0697 57.0165 5.6199 56.8576 5.9736 56.54C6.3666 56.2223 6.5631 55.7856 6.5631 55.2297C6.5631 54.6739 6.3666 54.2371 6.0129 53.9592C5.6592 53.6812 5.109 53.5224 4.4409 53.5224H1.8078V57.0165Z" fill="#07222F"/>
<path d="M16.9383 51.8548H15.1305V62.2575H16.9383V51.8548Z" fill="#07222F"/>
<path d="M27.4707 62.2972L23.2263 51.8548H25.2306L28.296 59.8355L31.4007 51.8548H33.3656L29.082 62.2972H27.4707Z" fill="#07222F"/>
<path d="M39.5358 62.2575V51.8548H47.16V53.4827H41.3436V56.1826H46.4919V57.8106H41.3436V60.5899H47.2386V62.2575H39.5358Z" fill="#07222F"/>
<path d="M53.7624 62.2575V51.8548H58.3605C59.5395 51.8548 60.4827 52.1724 61.1508 52.768C61.8189 53.3636 62.1726 54.1577 62.1726 55.19C62.1726 56.0238 61.9368 56.6988 61.5045 57.215C61.0722 57.7311 60.4827 58.1282 59.6967 58.3267L62.487 62.2575H60.3648L57.8103 58.6444H55.5702V62.2575H53.7624ZM55.5702 57.0165H58.2033C58.8321 57.0165 59.3823 56.8576 59.736 56.54C60.129 56.2223 60.3255 55.7856 60.3255 55.2297C60.3255 54.6739 60.129 54.2371 59.7753 53.9592C59.4216 53.6812 58.8714 53.5224 58.2033 53.5224H55.5702V57.0165Z" fill="#07222F"/>
<path d="M72.194 62.2972L67.9103 51.8548H69.9146L73.0193 59.8355L76.124 51.8548H78.0497L73.8053 62.2972H72.194Z" fill="#07222F"/>
<path d="M86.1455 51.8548H84.3377V62.2575H86.1455V51.8548Z" fill="#07222F"/>
<path d="M93.2981 62.2575V51.8548H95.1059V60.5899H100.529V62.2575H93.2981Z" fill="#07222F"/>
<path d="M106.817 62.2575V51.8548H108.625V60.5899H114.009V62.2575H106.817Z" fill="#07222F"/>
<path d="M120.297 62.2575V51.8548H127.921V53.4827H122.105V56.1826H127.253V57.8106H122.105V60.5899H128V62.2575H120.297Z" fill="#07222F"/>
<path d="M14.541 69.9206L16.2702 67.4986L14.6589 65.6721H15.4056L17.5278 68.1339V65.6721H18.1566V68.1339L20.2788 65.6721H21.0255L19.4142 67.4986L21.1041 69.9206H20.3967L18.9819 67.9353L18.1566 68.8883V69.9206H17.5278V68.8883L16.6632 67.9353L15.2877 69.9206H14.541Z" fill="#07222F"/>
<path d="M22.9905 69.9206V65.6721H23.6193V69.0074L26.0952 65.6721H26.724V69.9206H26.0952V66.5457L23.58 69.9206H22.9905Z" fill="#07222F"/>
<path d="M30.1431 69.9206V66.228H28.6497V65.6721H32.2653V66.228H30.7719V69.9206H30.1431Z" fill="#07222F"/>
<path d="M33.9945 69.9603C33.8373 69.9603 33.6801 69.9206 33.4836 69.8809L33.5622 69.325C33.6801 69.3647 33.798 69.3647 33.8766 69.3647C33.9945 69.3647 34.0731 69.3647 34.1517 69.325C34.2303 69.2853 34.3089 69.2059 34.3875 69.0868C34.4661 68.9677 34.5447 68.7692 34.584 68.5309C34.6233 68.2927 34.6626 67.975 34.7019 67.5383C34.7412 67.1015 34.7412 66.5854 34.7412 65.9501V65.5927H37.728V69.8412H37.0992V66.1486H35.37V66.228C35.37 66.8633 35.3307 67.4192 35.2914 67.8559C35.2521 68.2927 35.1735 68.65 35.0949 68.928C35.0163 69.1662 34.9377 69.3647 34.7805 69.5235C34.6626 69.6824 34.5447 69.7618 34.3875 69.8015C34.3089 69.9603 34.1517 69.9603 33.9945 69.9603Z" fill="#07222F"/>
<path d="M43.623 69.3647C43.1907 69.8015 42.6798 70 42.051 70C41.4222 70 40.9113 69.8015 40.5183 69.3647C40.1253 68.928 39.8895 68.4118 39.8895 67.8162C39.8895 67.2206 40.086 66.7045 40.5183 66.2677C40.9506 65.831 41.4615 65.6324 42.0903 65.6324C42.7191 65.6324 43.23 65.831 43.6623 66.2677C44.0946 66.7045 44.2911 67.2206 44.2911 67.8162C44.2518 68.4118 44.0553 68.928 43.623 69.3647ZM42.0903 69.4441C42.5226 69.4441 42.9156 69.2853 43.1907 68.9677C43.4658 68.65 43.623 68.253 43.623 67.8162C43.623 67.3398 43.4658 66.9824 43.1907 66.6648C42.8763 66.3471 42.5226 66.1883 42.0903 66.1883C41.658 66.1883 41.265 66.3471 40.9899 66.6648C40.7148 66.9824 40.5576 67.3795 40.5576 67.8559C40.5576 68.3324 40.7148 68.6897 40.9899 69.0074C41.265 69.2853 41.658 69.4441 42.0903 69.4441Z" fill="#07222F"/>
<path d="M46.4133 69.9206V65.6721H48.4569C48.8892 65.6721 49.2036 65.7516 49.4394 65.9501C49.6752 66.1486 49.7931 66.3868 49.7931 66.7045C49.7931 67.1412 49.5573 67.4986 49.0857 67.6971C49.7145 67.8559 50.0289 68.2133 50.0289 68.7294C50.0289 69.0868 49.8717 69.3647 49.5966 69.5632C49.3215 69.7618 48.9678 69.8809 48.4962 69.8809H46.4133V69.9206ZM47.0028 67.4986H48.2997C48.5748 67.4986 48.7713 67.4589 48.9285 67.3398C49.0857 67.2207 49.1643 67.0618 49.1643 66.8236C49.1643 66.6251 49.0857 66.506 48.9285 66.3868C48.7713 66.2677 48.5748 66.228 48.2997 66.228H47.0028V67.4986ZM47.0028 69.3647H48.3783C48.6927 69.3647 48.9285 69.2853 49.0857 69.1662C49.2429 69.0471 49.3608 68.8486 49.3608 68.65C49.3608 68.4515 49.2822 68.2927 49.0857 68.1736C48.8892 68.0545 48.6534 68.0148 48.2997 68.0148H47.0028V69.3647Z" fill="#07222F"/>
<path d="M52.1511 69.9206V65.6721H52.7799V69.0074L55.2558 65.6721H55.8846V69.9206H55.2558V66.5457L52.7406 69.9206H52.1511Z" fill="#07222F"/>
<path d="M58.2819 69.9206V65.6722H58.9107V69.0074L61.3866 65.6722H61.9761V69.9206H61.3473V66.5854L58.8321 69.9206H58.2819ZM60.8757 64.7986C60.6792 64.9972 60.4041 65.0766 60.129 65.0766C59.8146 65.0766 59.5788 64.9972 59.3823 64.7986C59.1858 64.6001 59.0286 64.3619 58.9893 64.084L59.4216 64.0045C59.5395 64.4016 59.7753 64.5604 60.129 64.5604C60.4827 64.5604 60.7185 64.3619 60.8364 64.0045L61.2687 64.084C61.2294 64.3619 61.0722 64.6001 60.8757 64.7986Z" fill="#07222F"/>
<path d="M67.8711 69.9206V65.6721H68.4606V68.1339L70.7793 65.6721H71.526L69.7968 67.4986L71.6046 69.9206H70.8579L69.3645 67.975L68.4606 68.8883V69.9206H67.8711Z" fill="#07222F"/>
<path d="M76.9493 69.3647C76.517 69.8015 76.0061 70 75.3773 70C74.7485 70 74.2376 69.8015 73.8446 69.3647C73.4516 68.928 73.2158 68.4118 73.2158 67.8162C73.2158 67.2206 73.4123 66.7045 73.8446 66.2677C74.2769 65.831 74.7878 65.6324 75.4166 65.6324C76.0454 65.6324 76.5563 65.831 76.9886 66.2677C77.4209 66.7045 77.6174 67.2206 77.6174 67.8162C77.5781 68.4118 77.3423 68.928 76.9493 69.3647ZM75.3773 69.4441C75.8096 69.4441 76.2026 69.2853 76.4777 68.9677C76.7528 68.65 76.91 68.253 76.91 67.8162C76.91 67.3398 76.7528 66.9824 76.4777 66.6648C76.1633 66.3471 75.8096 66.1883 75.3773 66.1883C74.945 66.1883 74.552 66.3471 74.2769 66.6648C74.0018 66.9824 73.8446 67.3795 73.8446 67.8559C73.8446 68.3324 74.0018 68.6897 74.2769 69.0074C74.5913 69.2853 74.945 69.4441 75.3773 69.4441Z" fill="#07222F"/>
<path d="M79.7004 69.9206V65.6721H80.2899L81.8619 67.8956L83.4339 65.6721H84.0234V69.9206H83.3946V66.7045L81.8619 68.8486L80.3292 66.7045V69.9206H79.7004Z" fill="#07222F"/>
<path d="M86.4207 69.9206V65.6721H90.0756V69.9206H89.4468V66.228H87.0495V69.9206H86.4207Z" fill="#07222F"/>
<path d="M92.2763 69.9603C92.1191 69.9603 91.9619 69.9206 91.7654 69.8809L91.844 69.325C91.9619 69.3647 92.0798 69.3647 92.1584 69.3647C92.2763 69.3647 92.3549 69.3647 92.4335 69.325C92.5121 69.2853 92.5907 69.2059 92.6693 69.0868C92.7479 68.9677 92.8265 68.7692 92.8658 68.5309C92.9051 68.2927 92.9444 67.975 92.9837 67.5383C93.023 67.1015 93.023 66.5854 93.023 65.9501V65.5927H95.9705V69.8412H95.3417V66.1486H93.5732V66.228C93.5732 66.8633 93.5339 67.4192 93.4946 67.8559C93.4553 68.2927 93.3767 68.65 93.2981 68.928C93.2195 69.1662 93.1409 69.3647 92.9837 69.5235C92.8658 69.6824 92.7479 69.7618 92.5907 69.8015C92.5907 69.9603 92.4335 69.9603 92.2763 69.9603Z" fill="#07222F"/>
<path d="M100.254 70C99.6647 70 99.1538 69.8015 98.7608 69.3647C98.3678 68.9677 98.1713 68.4118 98.1713 67.7765C98.1713 67.1412 98.3678 66.6251 98.7608 66.228C99.1538 65.7913 99.6254 65.5927 100.176 65.5927C100.765 65.5927 101.237 65.7913 101.59 66.228C101.944 66.6648 102.101 67.1809 102.101 67.8162C102.101 67.8956 102.101 67.975 102.101 68.0545H98.7608C98.8001 68.4912 98.9573 68.8089 99.2324 69.0868C99.5075 69.3647 99.8219 69.4838 100.215 69.4838C100.726 69.4838 101.158 69.2853 101.551 68.8883L101.944 69.2456C101.512 69.7618 100.962 70 100.254 70ZM98.8001 67.5383H101.512C101.473 67.1412 101.355 66.7839 101.119 66.506C100.883 66.228 100.569 66.1089 100.176 66.1089C99.8219 66.1089 99.5075 66.228 99.2717 66.506C98.9966 66.7839 98.8394 67.1412 98.8001 67.5383Z" fill="#07222F"/>
<path d="M104.263 69.9206V65.6721H104.852V68.1339L107.171 65.6721H107.918L106.189 67.4986L107.996 69.9206H107.25L105.756 67.975L104.852 68.8883V69.9206H104.263Z" fill="#07222F"/>
<path d="M111.73 70C111.14 70 110.629 69.8015 110.197 69.3647C109.765 68.928 109.568 68.4118 109.568 67.8162C109.568 67.2206 109.765 66.7045 110.197 66.2677C110.629 65.831 111.101 65.6324 111.73 65.6324C112.359 65.6324 112.948 65.8707 113.42 66.3868L113.027 66.8236C112.634 66.4265 112.201 66.1883 111.73 66.1883C111.298 66.1883 110.944 66.3471 110.669 66.6648C110.394 66.9824 110.236 67.3795 110.236 67.8559C110.236 68.3324 110.394 68.6897 110.669 69.0074C110.944 69.325 111.337 69.4838 111.769 69.4838C112.201 69.4838 112.634 69.2853 113.027 68.8486L113.459 69.2456C112.948 69.7221 112.398 70 111.73 70Z" fill="#07222F"/>
</g>
<defs>
<clipPath id="clip0_186_1607">
<rect width="128" height="70" fill="white"/>
</clipPath>
</defs>
</svg>
