<svg width="54" height="54" viewBox="0 0 54 54" fill="none" xmlns="http://www.w3.org/2000/svg">
<path d="M6.5 7.5V47.5H47.5V34.541H42.625V32.0938H45.4492V31.0938H42.625V26.707H45.4492V25.707H42.625V21.5361H45.4492V20.5361H42.625V16.041H45.4492V15.041H42.625V10.5469H45.4492V9.54688H42.625V8H41.625V9.54688H37.085V8H36.085V9.54688H31.7656V8H30.7656V9.54688H26.3369V8H25.3369V9.54688H21.0176V7.5H6.5ZM20.0176 8.5V25.3408L20.1699 25.4883L21.2773 26.5654L25.4883 30.6592L26.8174 31.9521L27.3311 32.4512V35.541H46.5V46.5H7.5V8.5H20.0176ZM41.625 32.0938V34.541H37.085V32.0938H41.625ZM36.085 32.0938V34.541H31.7656V32.0938H36.085ZM30.7656 32.0938V34.541H28.3311V32.0938H30.7656ZM41.625 26.707V31.0938H37.085V26.707H41.625ZM36.085 26.707V31.0938H31.7656V26.707H36.085ZM30.7656 26.707V31.0938H27.3691L26.3369 30.0889V26.707H30.7656ZM25.3369 26.707V29.1172L22.8574 26.707H25.3369ZM41.625 21.5361V25.707H37.085V21.5361H41.625ZM36.085 21.5361V25.707H31.7656V21.5361H36.085ZM30.7656 21.5361V25.707H26.3369V21.5361H30.7656ZM25.3369 21.5361V25.707H21.8291L21.0176 24.918V21.5361H25.3369ZM41.625 16.041V20.5361H37.085V16.041H41.625ZM36.085 16.041V20.5361H31.7656V16.041H36.085ZM30.7656 16.041V20.5361H26.3369V16.041H30.7656ZM25.3369 16.041V20.5361H21.0176V16.041H25.3369ZM41.625 10.5469V15.041H37.085V10.5469H41.625ZM36.085 10.5469V15.041H31.7656V10.5469H36.085ZM30.7656 10.5469V15.041H26.3369V10.5469H30.7656ZM25.3369 10.5469V15.041H21.0176V10.5469H25.3369Z" fill="#4D5858"/>
</svg>
