<svg width="54" height="54" viewBox="0 0 54 54" fill="none" xmlns="http://www.w3.org/2000/svg">
<path d="M18.2607 5.39941L16.5107 13.8994L16.7393 13.9463C12.6452 17.0505 10 21.9659 10 27.5C10 33.0339 12.6454 37.9485 16.7393 41.0527L16.5107 41.1006L18.2607 49.6006L18.3428 50H35.6572L35.7393 49.6006L37.4893 41.1006L37.2617 41.0527C41.3552 37.9485 44 33.0336 44 27.5C44 21.9662 41.3555 17.0505 37.2617 13.9463L37.4893 13.8994L35.7393 5.39941L35.6572 5H18.3428L18.2607 5.39941ZM34.8428 49H19.1572L17.6553 41.7012C20.3369 43.4693 23.5477 44.5 27 44.5C30.4533 44.5 33.6647 43.4683 36.3467 41.6992L34.8428 49ZM27 11.5C35.8366 11.5 43 18.6634 43 27.5C43 32.6524 40.5656 37.2362 36.7803 40.1641L36.4102 40.4414C33.7694 42.365 30.5187 43.5 27 43.5C18.1634 43.5 11 36.3366 11 27.5C11 18.6634 18.1634 11.5 27 11.5ZM26.6318 31.6621C26.1561 32.181 25.4485 33.0559 24.8564 34.0117C24.2789 34.9441 23.75 36.0486 23.75 37C23.75 39.2192 25.1701 40.75 27 40.75C28.8299 40.75 30.25 39.2192 30.25 37C30.25 36.0486 29.7211 34.9441 29.1436 34.0117C28.5515 33.0559 27.8439 32.181 27.3682 31.6621L27 32L26.6318 31.6621ZM27.4209 33.2832C27.7121 33.6613 28.0171 34.0912 28.2939 34.5381C28.8623 35.4557 29.25 36.3514 29.25 37C29.25 38.7808 28.1701 39.75 27 39.75C25.8299 39.75 24.75 38.7808 24.75 37C24.75 36.3514 25.1377 35.4557 25.7061 34.5381C26.1213 33.8677 26.6003 33.2357 27 32.7588L27.4209 33.2832ZM16 28.5H38.5V19.5H16V28.5ZM37.5 27.5H17V20.5H37.5V27.5ZM32.5 24H35V23H32.5V24ZM28 24H30.5V23H28V24ZM23.5 24H26V23H23.5V24ZM19 24H21.5V23H19V24ZM36.3457 13.2979C33.6641 11.5296 30.4524 10.5 27 10.5C23.5479 10.5 20.3368 11.5299 17.6553 13.2979L19.1572 6H34.8428L36.3457 13.2979Z" fill="#4D5858"/>
</svg>
