<svg width="54" height="54" viewBox="0 0 54 54" fill="none" xmlns="http://www.w3.org/2000/svg">
<path d="M12 42.5V48.5C12 50.7091 13.7909 52.5 16 52.5H39C41.2091 52.5 43 50.7091 43 48.5V15.5C43 13.2909 41.2091 11.5 39 11.5H31M12 42.5V15.5C12 13.2909 13.7909 11.5 16 11.5H24M12 42.5C16.4286 40 21.3492 38.5 27.746 38.5C34.1429 38.5 38.5714 40 43 42.5M40 45.5C40 43.8431 38.6569 42.5 37 42.5C35.3431 42.5 34 43.8431 34 45.5C34 47.1569 35.3431 48.5 37 48.5C38.6569 48.5 40 47.1569 40 45.5ZM40 45.5H37.5M27.5 42.5C25.8431 42.5 24.5 43.8431 24.5 45.5C24.5 47.1569 25.8431 48.5 27.5 48.5C29.1569 48.5 30.5 47.1569 30.5 45.5C30.5 43.8431 29.1569 42.5 27.5 42.5ZM27.5 42.5V45M15 45.5C15 47.1569 16.3431 48.5 18 48.5C19.6569 48.5 21 47.1569 21 45.5C21 43.8431 19.6569 42.5 18 42.5C16.3431 42.5 15 43.8431 15 45.5ZM15 45.5H17.5M24 11.5V9.5C24 8.94772 24.4477 8.5 25 8.5H25.5M24 11.5H31M31 11.5V9.5C31 8.94772 30.5523 8.5 30 8.5H29.5M25.5 8.5V3C25.5 2.44772 25.9477 2 26.5 2H28.5C29.0523 2 29.5 2.44772 29.5 3V8.5M25.5 8.5H29.5M25 32.6056C25.8078 32.857 26.7966 33 28 33C29.1022 33 30.0245 32.8575 30.7925 32.6056M25 32.6056C19.7665 30.9769 22.1337 24.7994 23 23.5C23.8 22.3 24 21 24 20.5C24.6667 20.6667 26 21.4 26 23C27 21.5 28 19.5 28 18C30.5 20 32 22 31 25.5C32 25 33 23.5 33 22.5C33.8775 23.3775 36.2952 30.8005 30.7925 32.6056M25 32.6056C25 30 25.5 28 28 26.5C29 27.5 31.085 28.7112 30.7925 32.6056" stroke="#4D5858"/>
</svg>
