<svg width="54" height="54" viewBox="0 0 54 54" fill="none" xmlns="http://www.w3.org/2000/svg">
<path d="M11.3115 19.6719C8.91269 19.7962 7.00016 21.8219 7 24.292V40.9473L7.00586 41.1846C7.12392 43.5458 8.9901 45.4471 11.3115 45.5674L11.5459 45.5732H14.8418V49.2744H15.8418V45.5732H38.1582V49.2744H39.1582V45.5732H42.4541C44.883 45.5732 46.8721 43.6246 46.9941 41.1846L47 40.9473V24.292C46.9998 21.7421 44.9612 19.666 42.4541 19.666H11.5459L11.3115 19.6719ZM42.4541 20.666C44.3921 20.666 45.9998 22.2775 46 24.292V40.9473C45.9997 42.9617 44.3921 44.5732 42.4541 44.5732H11.5459C9.60793 44.5732 8.00026 42.9617 8 40.9473V24.292C8.00016 22.2775 9.6078 20.666 11.5459 20.666H42.4541ZM40.1582 23.4238V41.7305H41.1582V23.4238H40.1582ZM34.6621 41.7305H35.6621V23.4238H34.6621V41.7305ZM29.166 41.7305H30.166V23.4238H29.166V41.7305ZM23.8359 41.7305H24.8359V23.4238H23.8359V41.7305ZM18.3398 41.7305H19.3398V23.4238H18.3398V41.7305ZM12.8438 41.7305H13.8438V23.4238H12.8438V41.7305ZM33.1533 5C32.153 6.52523 31.8982 7.87284 32.0264 9.07617C32.152 10.2554 32.6446 11.2579 33.042 12.0752L33.043 12.0771L33.3096 12.6367C33.553 13.1636 33.7217 13.606 33.7715 14.0576C33.8336 14.6224 33.7113 15.2508 33.1543 16.1025C32.7252 16.7551 32.898 17.6357 33.541 18.0732L33.8223 17.6602L34.1035 17.2461C33.9145 17.1173 33.8589 16.8508 33.9893 16.6523L33.9902 16.6514C34.646 15.6491 34.8586 14.7909 34.7656 13.9473C34.6989 13.3426 34.4749 12.7715 34.2129 12.2061L33.9424 11.6406L33.9414 11.6387V11.6377C33.5354 10.8027 33.1259 9.95002 33.0215 8.96973C32.9197 8.01313 33.1071 6.89538 33.9902 5.54883L33.5713 5.27441L33.1533 5ZM25.8252 5C24.8249 6.52523 24.5701 7.87284 24.6982 9.07617C24.8239 10.2554 25.3164 11.2579 25.7139 12.0752L25.7148 12.0771L25.9814 12.6367C26.2249 13.1636 26.3936 13.606 26.4434 14.0576C26.5055 14.6224 26.3832 15.2508 25.8262 16.1025C25.3971 16.7551 25.5699 17.6357 26.2129 18.0732L26.4941 17.6602L26.7754 17.2461C26.5864 17.1173 26.5308 16.8508 26.6611 16.6523L26.6621 16.6514C27.3179 15.6491 27.5305 14.7909 27.4375 13.9473C27.3708 13.3426 27.1467 12.7715 26.8848 12.2061L26.6143 11.6406L26.6133 11.6387V11.6377C26.2072 10.8027 25.7978 9.95002 25.6934 8.96973C25.5915 8.01313 25.779 6.89538 26.6621 5.54883L26.2432 5.27441L25.8252 5ZM18.6553 5C17.655 6.52523 17.4002 7.87284 17.5283 9.07617C17.654 10.2554 18.1465 11.2579 18.5439 12.0752L18.5449 12.0771L18.8115 12.6367C19.055 13.1636 19.2236 13.606 19.2734 14.0576C19.3356 14.6224 19.2133 15.2508 18.6562 16.1025C18.2271 16.7551 18.4 17.6357 19.043 18.0732L19.3242 17.6602L19.6055 17.2461C19.4165 17.1173 19.3608 16.8508 19.4912 16.6523L19.4922 16.6514C20.148 15.6491 20.3605 14.7909 20.2676 13.9473C20.2009 13.3426 19.9768 12.7715 19.7148 12.2061L19.4443 11.6406L19.4434 11.6387V11.6377C19.0373 10.8027 18.6279 9.95002 18.5234 8.96973C18.4216 8.01313 18.6091 6.89538 19.4922 5.54883L19.0732 5.27441L18.6553 5Z" fill="#4D5858"/>
</svg>
