<svg width="54" height="54" viewBox="0 0 54 54" fill="none" xmlns="http://www.w3.org/2000/svg">
<path d="M39.8926 2.13477L2.27537 21.2393L2.00193 21.3779V33.4492L2.29197 33.583L9.42478 36.8848L9.63767 36.9834L9.84959 36.8828L12.041 35.8438C12.0125 36.3193 12.0032 36.8151 12.0195 37.334C11.9449 37.3329 11.8687 37.3475 11.7969 37.3818L9.96287 38.2578L2.69822 35.1523L2.00193 34.8545V48.083L2.30564 48.2129L9.7783 51.4082L9.98631 51.4971L10.1904 51.3994L12.2285 50.4248C12.3424 50.3703 12.4247 50.2775 12.4707 50.1699C12.607 50.5213 12.7953 50.8378 13.0625 51.1182C13.561 51.6411 14.2745 51.9839 15.2275 52.2578C15.8423 52.4345 16.5829 52.5855 17.4678 52.7373C18.0728 52.9528 18.681 53.0067 19.1543 52.999L19.3525 52.9902C19.8198 52.9562 20.3266 52.8333 20.8545 52.6758C21.4574 52.4958 22.145 52.2525 22.8701 52.0127L23.2187 51.8887C24.9381 51.2308 26.278 50.0511 27.7832 48.8291C29.4036 47.5136 31.2895 46.0766 34.1914 44.9248C37.1265 43.7599 39.4487 43.3308 41.7138 42.7314C43.9777 42.1324 46.1245 41.3736 48.5713 39.5527C50.9978 37.7468 52.2811 36.04 52.7676 34.2705C53.2529 32.5042 52.9185 30.7658 52.3135 28.9648C51.1535 25.5119 51.1606 22.0703 51.7304 19.8086C52.0368 18.5926 52.3373 16.6451 52.4873 14.5615C52.6371 12.4795 52.6396 10.2222 52.333 8.39648C52.0247 6.56119 51.3933 5.24931 50.375 4.40723C49.3579 3.56635 48.035 3.26081 46.4902 3.26074H46.4404L46.3926 3.27051C45.5406 3.4396 44.7625 3.89708 44.0234 4.45898C43.8964 4.55557 43.7693 4.65733 43.6416 4.76172L43.8027 4.5293L40.4033 2.16992L40.1582 2L39.8926 2.13477ZM49.8476 7.7998C50.1498 7.73993 50.404 7.77016 50.6357 7.8916C50.8623 8.01041 51.1091 8.23974 51.3603 8.6543C51.6331 10.3527 51.6339 12.4789 51.4892 14.4893C51.342 16.5341 51.0488 18.4211 50.7607 19.5645C50.1417 22.0214 50.1485 25.6581 51.3662 29.2832C51.9499 31.0209 52.2096 32.5273 51.8037 34.0049C51.3984 35.4793 50.303 37.0171 47.9746 38.75C45.6663 40.4679 43.652 41.1841 41.458 41.7646C39.265 42.3449 36.8312 42.8008 33.8222 43.9951C30.7805 45.2025 28.802 46.7142 27.1533 48.0527C25.5935 49.3191 24.3904 50.37 22.8652 50.9531L22.5556 51.0635C21.8 51.3134 21.1533 51.5432 20.5683 51.7178C20.0011 51.887 19.5441 51.9856 19.1719 51.9971C18.6515 51.9203 18.1762 51.8441 17.7412 51.7705C17.5618 51.702 17.3859 51.6175 17.2217 51.5088C16.6532 51.1321 16.1479 50.4493 16.0791 49.1523L16.0781 49.1396L16.0771 49.1279L16.0722 48.9814C16.0734 48.8022 16.0933 48.5258 16.1328 48.1611C16.1836 47.6927 16.2598 47.1287 16.3398 46.5361C16.4969 45.3722 16.6738 44.0687 16.6738 43.2803C16.6738 42.3696 16.5172 41.5505 16.4492 40.8154C16.379 40.0553 16.3786 39.2357 16.6592 38.1221C16.8009 37.5596 17.012 36.9589 17.2383 36.3262C17.4614 35.7022 17.6993 35.0456 17.876 34.4062C18.2 33.2334 18.3685 31.9509 17.7148 30.9043L17.5732 30.6982C17.1219 30.1011 16.7656 29.5302 16.5146 28.6846C16.2608 27.829 16.1074 26.6662 16.1064 24.8838C16.1187 24.7845 16.1262 24.6879 16.1269 24.5938C16.1617 24.3978 16.2402 24.2159 16.3691 24.042C16.5613 23.783 16.8838 23.518 17.3965 23.2637L17.791 23.082C18.6728 22.709 19.3001 22.6729 19.9717 22.6348C20.7843 22.5886 21.6553 22.5389 22.9345 21.9043C23.5923 21.5779 24.0805 21.1712 24.5342 20.7402C25.0013 20.2964 25.3891 19.8731 25.9365 19.4023C26.9869 18.4991 28.5523 17.4979 31.7597 16.6299C35.0375 15.7428 36.6571 15.2201 37.8457 14.8086C39.0336 14.3973 39.7557 14.1108 41.2763 13.6797L41.4902 13.6133C42.5567 13.2603 43.589 12.5484 44.5478 11.7715C45.0637 11.3535 45.5709 10.9059 46.0595 10.4717C46.551 10.035 47.0219 9.61298 47.4785 9.23242C48.4132 8.45338 49.1981 7.92871 49.8476 7.7998ZM11.8691 22.4385C11.9617 22.4196 12.1423 22.4187 12.4502 22.5205L13.084 22.7441C13.6846 22.9732 14.1843 23.221 14.5429 23.5098C14.92 23.8134 15.115 24.1402 15.124 24.5498C15.1115 24.6542 15.1054 24.7601 15.1064 24.8672L15.1133 25.5312C15.1473 27.0217 15.2993 28.105 15.5556 28.9688C15.8522 29.968 16.2809 30.6466 16.7754 31.3008L16.8642 31.4307C17.2785 32.0936 17.2282 32.9956 16.9121 34.1396C16.7473 34.7358 16.5241 35.3539 16.2969 35.9893C16.0728 36.6157 15.8449 37.2611 15.6894 37.8779C15.3757 39.1234 15.3748 40.0596 15.4531 40.9072C15.5338 41.7799 15.6738 42.4217 15.6738 43.2803C15.6738 43.984 15.5104 45.2036 15.3486 46.4023C15.2692 46.9908 15.1911 47.5686 15.1386 48.0527C15.0896 48.5051 15.0565 48.9285 15.0801 49.2041V49.2051C15.1275 50.0986 15.3549 50.8031 15.6992 51.3496C15.6327 51.3318 15.5671 51.315 15.5039 51.2969C14.6186 51.0424 14.1058 50.763 13.7871 50.4287C13.478 50.1044 13.2994 49.673 13.2051 48.9951C13.1088 48.3035 13.1074 47.4222 13.1074 46.2295C13.1074 43.9042 13.2518 43.3447 13.3271 42.6719C13.4083 41.9469 13.4016 41.159 13.1045 38.5059C12.8171 35.9389 13.2459 33.9455 13.6181 32.0986C13.9645 30.3801 14.2767 28.7362 13.7851 26.9619L13.6758 26.6055C13.4651 25.8028 13.0202 25.1372 12.6201 24.5762C12.1999 23.9871 11.8603 23.5445 11.6972 23.0938C11.6769 22.9914 11.6655 22.8739 11.6738 22.7637C11.683 22.6417 11.7128 22.5603 11.7431 22.5146C11.7644 22.4827 11.7936 22.454 11.8691 22.4385ZM9.47459 39.1367V50.1904L3.00193 47.4229V36.3691L9.47459 39.1367ZM12.1103 38.6172C12.4075 41.2709 12.4013 41.9587 12.334 42.5605C12.2607 43.2148 12.1074 43.8363 12.1074 46.2295C12.1074 47.3955 12.1068 48.3578 12.2148 49.1338C12.2353 49.2806 12.2622 49.4226 12.292 49.5605C12.1498 49.4646 11.9626 49.4432 11.7969 49.5225L10.4746 50.1543V39.1221L12.0849 38.3525C12.0933 38.4401 12.1004 38.5284 12.1103 38.6172ZM9.13474 25.8809V35.6484L3.00193 32.8096V22.5283L9.13474 25.8809ZM11.8056 25.1572C12.2087 25.7223 12.5603 26.266 12.7168 26.8867L12.7217 26.9053L12.7285 26.9238L12.8213 27.2275C13.2412 28.7391 12.9878 30.1632 12.6377 31.9004C12.4655 32.7544 12.2751 33.6728 12.1494 34.6855L10.1347 35.6406V25.8945L11.7578 25.0889C11.7741 25.1116 11.7896 25.1347 11.8056 25.1572ZM43.0771 5.24316C42.648 5.61869 42.2123 6.01721 41.7724 6.41211C40.2155 7.80992 38.5115 9.2061 36.2646 9.76367C33.8757 10.3563 30.7336 11.2468 27.8105 12.3623C24.9078 13.4701 22.144 14.8282 20.5771 16.3828C19.1968 17.7523 17.6825 18.1702 16.1338 18.5361C14.7057 18.8735 13.1737 19.1739 11.9101 20.2793L11.6611 20.5117C11.1605 21.0085 10.8419 21.4931 10.6963 21.9863C10.5478 22.4895 10.5923 22.9569 10.7402 23.3877L10.833 23.625C10.9283 23.8419 11.0488 24.0538 11.1797 24.2598L9.64548 25.0205L3.5742 21.7012L40.0781 3.16211L43.0771 5.24316ZM46.541 4.26172C47.9419 4.26848 48.9814 4.55283 49.7383 5.17871C50.218 5.57562 50.6152 6.13666 50.916 6.91992C50.5045 6.7528 50.0757 6.73437 49.6523 6.81836C48.7232 7.00282 47.7614 7.69492 46.8388 8.46387C46.3669 8.85724 45.8803 9.29295 45.3945 9.72461C44.9059 10.1588 44.4141 10.5921 43.9179 10.9941C42.9787 11.7551 42.0632 12.3701 41.1797 12.6631L41.0039 12.7168C39.447 13.1582 38.6815 13.4616 37.5185 13.8643C36.356 14.2668 34.759 14.7828 31.499 15.665C28.1682 16.5664 26.4629 17.6299 25.2842 18.6436C24.7173 19.131 24.2504 19.6302 23.8447 20.0156C23.4255 20.4138 23.0209 20.7445 22.4902 21.0078C21.3923 21.5525 20.6826 21.5931 19.915 21.6367C19.1532 21.68 18.3401 21.7264 17.1875 22.2549L16.9521 22.3672C16.4294 22.6265 16.009 22.9276 15.7011 23.2793C15.5536 23.0771 15.3736 22.8945 15.1699 22.7305C14.6196 22.2874 13.8779 21.9596 13.0996 21.6855L12.7646 21.5713C12.5529 21.5012 12.3512 21.4557 12.1611 21.4375C12.2227 21.3679 12.2903 21.295 12.3652 21.2207L12.5693 21.0312C13.6027 20.1256 14.866 19.8635 16.3633 19.5098C17.9349 19.1384 19.6898 18.671 21.2812 17.0918C22.6866 15.6974 25.2743 14.4009 28.167 13.2969C31.0391 12.2008 34.1387 11.3214 36.5049 10.7344C39.0129 10.1121 40.8768 8.56004 42.4404 7.15625C43.2344 6.44339 43.9351 5.78334 44.6289 5.25586C45.3029 4.74342 45.9227 4.39521 46.541 4.26172Z" fill="#4D5858"/>
</svg>
