<svg width="54" height="54" viewBox="0 0 54 54" fill="none" xmlns="http://www.w3.org/2000/svg">
<path d="M20.6084 6.5V17.8496H4V23.832H5.56152V46.5H4.5V47.5H49.5V46.5H48.5801V23.832H50V17.8496H33.249V6.5H20.6084ZM47.5801 23.832V46.5H22.4609V39.0625L38.4355 34.0518L38.2852 33.5742L38.1357 33.0977L22.4609 38.0146V33.0742H17.208V23.832H47.5801ZM21.4609 34.0742V46.5H17.208V34.0742H21.4609ZM16.208 23.832V46.5H6.56152V23.832H16.208ZM10.2461 34.874V39.1953H13.5176V34.874H10.2461ZM12.5176 35.874V38.1953H11.2461V35.874H12.5176ZM49 18.8496V22.832H5V18.8496H49ZM32.249 7.5V17.8496H21.6084V7.5H32.249ZM24.8672 9.40625V15.5811H25.8672V14.1357C26.8321 14.109 27.6027 13.9944 28.1533 13.6797C28.4949 13.4844 28.7513 13.2138 28.915 12.8613C29.0739 12.5194 29.1328 12.1287 29.1328 11.7061C29.1328 11.2748 29.063 10.8822 28.8828 10.5459C28.6979 10.2009 28.418 9.95524 28.0713 9.78613C27.4203 9.46879 26.4889 9.40625 25.3672 9.40625H24.8672ZM25.8672 10.4121C26.7263 10.433 27.2828 10.5139 27.6328 10.6846C27.8181 10.7749 27.9287 10.8837 28.001 11.0186C28.078 11.1623 28.1328 11.3761 28.1328 11.7061C28.1328 12.0444 28.084 12.2765 28.0078 12.4404C27.9365 12.5937 27.8298 12.7128 27.6572 12.8115C27.3273 13.0001 26.7754 13.108 25.8672 13.1357V10.4121Z" fill="#4D5858"/>
</svg>
