<svg width="54" height="54" viewBox="0 0 54 54" fill="none" xmlns="http://www.w3.org/2000/svg">
<path d="M6.48466 37.2403L7.02454 35.1484M7.02454 35.1484H14.4479M7.02454 35.1484H5V29.0035M14.4479 35.1484V36.7173M14.4479 35.1484C14.4479 33.5133 16.9251 30.6262 19.0894 29.0035M20.7914 22.8587C21.1063 21.8563 22.411 19.8516 25.1104 19.8516C27.8098 19.8516 30.6442 19.8516 31.7239 19.8516H38.3374C41.0368 19.8516 42.3415 21.8563 42.6564 22.8587V23.9213M20.7914 22.8587V23.9213M20.7914 22.8587H10.2638M20.3865 28.4806H32.8037M43.6012 28.4806C43.7362 28.1319 44.0061 27.0163 44.0061 25.3428C44.0061 24.6992 43.4539 24.2412 42.6564 23.9213M43.6012 28.4806H32.8037M43.6012 28.4806C45.4008 29.788 49 32.9519 49 35.1484V36.7173M32.8037 28.4806C32.6687 28.1319 32.3988 27.0163 32.3988 25.3428C32.3988 23.6693 36.1329 23.2509 38.2025 23.2509C39.4761 23.2509 41.3803 23.4093 42.6564 23.9213M19.8466 28.4806H30.6442C30.7791 28.1319 31.0491 27.0163 31.0491 25.3428C31.0491 23.6693 27.3149 23.2509 25.2454 23.2509C23.9717 23.2509 22.0676 23.4093 20.7914 23.9213M19.8466 28.4806C19.7117 28.1319 19.4417 27.0163 19.4417 25.3428C19.4417 24.6992 19.994 24.2412 20.7914 23.9213M19.8466 28.4806C19.6018 28.634 19.3478 28.8097 19.0894 29.0035M14.4479 41.1625V46H16.6074C16.6074 43.5943 18.7669 41.7727 19.8466 41.1625M14.4479 41.1625H19.8466M14.4479 41.1625V36.7173M19.8466 41.1625H31.7239H43.6012M14.4479 36.7173H31.7239H49M49 41.1625V46H46.8405C46.8405 43.5943 44.681 41.7727 43.6012 41.1625M49 41.1625H43.6012M49 41.1625V36.7173M5 29.0035V22.8587H10.2638M5 29.0035H19.0894M10.2638 22.8587C10.2638 20.636 11.2086 20.636 12.9632 20.636M12.9632 20.636C14.7178 20.636 15.6626 20.636 15.6626 22.8587M12.9632 20.636V15.2756M12.9632 15.2756C12.0184 15.2756 11.276 15.0141 10.5564 14.3604M12.9632 15.2756C13.908 15.2756 14.6504 15.0141 15.37 14.3604M12.1534 9C12.5564 9 12.8426 9 12.9632 9C13.0838 9 13.3699 9 13.773 9M12.1534 9C11.9548 9 11.728 9 11.4785 9C10.5337 9 10.3988 9.39223 10.2638 9.91519C10.1288 10.4382 9.45399 12.6608 8.23926 14.0989C7.56442 15.0141 8.5092 15.4064 9.72393 15.0141C10.0566 14.9067 10.3286 14.6718 10.5564 14.3604M12.1534 9C12.1534 9.30506 12.0724 10.1767 11.7485 11.2226C11.4545 12.172 11.1604 13.5349 10.5564 14.3604M13.773 9C13.9715 9 14.1984 9 14.4479 9C15.3926 9 15.5276 9.39223 15.6626 9.91519C15.7975 10.4382 16.4724 12.6608 17.6871 14.0989C18.362 15.0141 17.4172 15.4064 16.2025 15.0141C15.8698 14.9067 15.5978 14.6718 15.37 14.3604M13.773 9C13.773 9.30506 13.854 10.1767 14.1779 11.2226C14.4719 12.172 14.7659 13.5349 15.37 14.3604M12.4233 25.212H14.0429M12.4233 31.3569H14.0429" stroke="#4D5858"/>
</svg>
