<svg width="54" height="54" viewBox="0 0 54 54" fill="none" xmlns="http://www.w3.org/2000/svg">
<path d="M39.1433 35.0275C39.7088 34.8543 40.3091 34.7612 40.9312 34.7612C41.9529 34.7612 42.9159 35.0124 43.7622 35.4565M39.1433 35.0275C37.6814 35.475 36.4524 36.4571 35.6834 37.7463M39.1433 35.0275V22.6716M43.7622 35.4565C45.7107 36.4791 47.0401 38.5243 47.0401 40.8806C47.0401 44.2602 44.3051 47 40.9312 47C37.913 47 35.4059 44.8073 34.911 41.9254M43.7622 35.4565V22.6716M8.59885 34.9445C8.12196 34.8248 7.62283 34.7612 7.10888 34.7612C6.08726 34.7612 5.12421 35.0124 4.27794 35.4565M8.59885 34.9445C10.1914 35.3443 11.536 36.3704 12.3567 37.7463M8.59885 34.9445V22.6716M4.27794 35.4565C2.32944 36.4791 1 38.5243 1 40.8806C1 44.2602 3.73504 47 7.10888 47C10.1272 47 12.6342 44.8073 13.1291 41.9254M4.27794 35.4565V17.1045C4.27794 16.5522 4.72565 16.1045 5.27794 16.1045H7.59885C8.15114 16.1045 8.59885 16.5522 8.59885 17.1045V18.6418M12.3567 37.7463C12.9035 38.663 13.2178 39.735 13.2178 40.8806C13.2178 41.2368 13.1874 41.5859 13.1291 41.9254M12.3567 37.7463H35.6834M35.6834 37.7463C35.1366 38.663 34.8224 39.735 34.8224 40.8806C34.8224 41.2368 34.8527 41.5859 34.911 41.9254M13.1291 41.9254H34.911M48.9771 22.6716V26.7796C48.9771 27.8905 49.8776 28.791 50.9885 28.791V28.791C52.0994 28.791 53 27.8905 53 26.7796V13.4891C53 12.3782 52.0994 11.4776 50.9885 11.4776V11.4776C49.8776 11.4776 48.9771 12.3782 48.9771 13.4891V18.6418M48.9771 22.6716H43.7622M48.9771 22.6716V18.6418M43.7622 22.6716V18.6418M48.9771 18.6418H43.7622M43.7622 18.6418V17.1045C43.7622 16.5522 43.3145 16.1045 42.7622 16.1045H40.1433C39.591 16.1045 39.1433 16.5522 39.1433 17.1045V18.6418M36.1633 16.1045H11.7278M36.1633 16.1045L33.4983 8.34998C33.2208 7.5423 32.461 7 31.6069 7H16.2842C15.4302 7 14.6704 7.5423 14.3928 8.34998L11.7278 16.1045M36.1633 16.1045V18.6418M11.7278 16.1045V18.6418M8.59885 18.6418H11.7278M8.59885 18.6418V22.6716M11.7278 18.6418V22.6716M11.7278 22.6716V22.6716C11.7278 29.3485 17.1405 34.7612 23.8173 34.7612H24.0738C30.7507 34.7612 36.1633 29.3485 36.1633 22.6716V22.6716M11.7278 22.6716H8.59885M39.1433 22.6716H36.1633M39.1433 22.6716V18.6418M36.1633 22.6716V18.6418M36.1633 18.6418H39.1433M9.64183 40.8806C9.64183 42.2819 8.50779 43.4179 7.10888 43.4179C5.70997 43.4179 4.57593 42.2819 4.57593 40.8806C4.57593 39.4793 5.70997 38.3433 7.10888 38.3433C8.50779 38.3433 9.64183 39.4793 9.64183 40.8806ZM43.4642 40.8806C43.4642 42.2819 42.3301 43.4179 40.9312 43.4179C39.5323 43.4179 38.3983 42.2819 38.3983 40.8806C38.3983 39.4793 39.5323 38.3433 40.9312 38.3433C42.3301 38.3433 43.4642 39.4793 43.4642 40.8806Z" stroke="#4D5858"/>
</svg>
