<svg width="54" height="54" viewBox="0 0 54 54" fill="none" xmlns="http://www.w3.org/2000/svg">
<path d="M15.782 33.4156L15.1564 32.7901C13.2346 34.3992 8.81182 38.1339 6.49514 40.2004C3.59929 42.7835 3.33677 46.1736 5.21332 48.0501C7.08988 49.9267 10.48 49.6642 13.0631 46.7683C15.1296 44.4516 18.8643 40.0288 20.4734 38.107L19.8478 37.4815M15.782 33.4156L17.8149 35.4486L19.8478 37.4815M15.782 33.4156C16.4516 32.746 18.0466 31.151 19.0693 30.1283C19.7544 29.4432 20.4019 29.2448 21.0478 29.4009M21.0478 29.4009C21.6071 29.536 22.1653 29.9369 22.7459 30.5175C23.3266 31.0981 23.7274 31.6563 23.8626 32.2157M21.0478 29.4009L21.3385 29.1101M21.3385 29.1101L28.4846 21.964C28.8751 21.5735 29.5083 21.5735 29.8988 21.964L30.5991 22.6644L31.2994 23.3647C31.6899 23.7552 31.6899 24.3883 31.2994 24.7789L24.1534 31.9249M21.3385 29.1101C16.9599 24.7315 16.6232 20.3768 22.1021 14.8979C27.5811 9.41894 45.786 2.78603 48.1317 5.13173C50.4774 7.47743 43.8445 25.6824 38.3656 31.1613C32.8866 36.6403 28.532 36.3035 24.1534 31.9249M19.8478 37.4815C20.5175 36.8118 22.1125 35.2169 23.1352 34.1941C23.8203 33.509 24.0186 32.8616 23.8626 32.2157M23.8626 32.2157L24.1534 31.9249" stroke="#4D5858"/>
</svg>
