<svg width="54" height="54" viewBox="0 0 54 54" fill="none" xmlns="http://www.w3.org/2000/svg">
<path d="M47.1558 14.3423L30.5728 22.5776L30.2954 22.7153V30.1479L30.5698 30.2866L35.9165 32.9868V35.7778L30.5698 38.48L30.2954 38.6187V47.4683L30.5698 47.6069L36.1909 50.4468L36.4224 50.563L36.6509 50.4419L53.2349 41.6392L53.4995 41.4985V17.0239L53.2065 16.8911L47.5854 14.3354L47.3687 14.2368L47.1558 14.3423ZM35.9165 41.8032V49.187L31.2954 46.8521V39.7026L35.9165 41.8032ZM52.4995 40.897L36.9165 49.1685V41.7808L41.4312 39.3677L41.6948 39.2261V29.2896L40.9595 29.6831L36.9165 31.8452V26.4487L52.4995 18.1772V40.897ZM40.1782 38.9028L36.3979 40.9243L31.9507 38.9019L36.396 36.6558L40.1782 38.9028ZM7.01025 3.53076L0.82666 5.80322L0.499512 5.92334V30.981L0.750488 31.1255L15.0854 39.3599L15.3188 39.4946L15.5591 39.3726L21.1812 36.5327L21.4556 36.394V32.9653L26.5483 29.9878L26.7954 29.8433V22.1704L26.5483 22.0259L21.4556 19.0464V11.3735L21.1987 11.23L7.42627 3.56396L7.22607 3.45166L7.01025 3.53076ZM20.4556 32.9731V35.7778L15.8345 38.1128V30.4048L20.4556 32.9731ZM14.8345 14.7954V22.7515L15.0913 22.894L20.4556 25.8745V31.8296L15.5767 29.1187L14.8345 28.7065V38.062L1.49951 30.4019V7.13525L14.8345 14.7954ZM40.6948 38.0464L36.9165 35.8013V32.979L40.6948 30.9585V38.0464ZM35.9165 26.4419V31.8657L31.2954 29.5317V23.8745L35.9165 26.4419ZM25.7954 29.269L21.4556 31.8071V25.8667L25.7954 23.3286V29.269ZM51.8677 17.3804L36.4214 25.5786L31.8696 23.0493L47.3882 15.3442L51.8677 17.3804ZM25.3052 22.4565L20.9478 25.0044L16.3628 22.4565L20.9487 19.9087L25.3052 22.4565ZM20.4556 19.0396L15.8345 21.6069V14.813L20.4556 12.48V19.0396ZM19.8892 11.645L15.3491 13.938L2.17725 6.37158L7.14111 4.54834L19.8892 11.645Z" fill="#4D5858"/>
</svg>
