<svg width="54" height="54" viewBox="0 0 54 54" fill="none" xmlns="http://www.w3.org/2000/svg">
<path d="M12.7158 5.46535C11.6658 5.47012 10.8156 6.32411 10.8203 7.37453L10.8564 15.1695L4.77635 27.3286C4.27767 28.326 5.00307 29.4995 6.11814 29.4995H10.9199L10.9951 46.5728C10.9998 47.6232 11.8573 48.4699 12.9072 48.4654L43.7861 48.3277C44.8359 48.3227 45.6853 47.4688 45.6806 46.4185L45.5058 7.21926C45.501 6.169 44.6436 5.32311 43.5937 5.32765L12.7158 5.46535ZM43.5986 6.32765C44.0986 6.32563 44.5036 6.72847 44.5058 7.22414L44.6806 46.4224C44.6829 46.9181 44.2813 47.3253 43.7812 47.3277L12.9033 47.4654C12.4033 47.4675 11.9974 47.0645 11.9951 46.5689L11.9199 29.4995H13.7265L13.7392 32.5611C13.7412 32.9773 13.9559 33.3415 14.2783 33.5552C14.4703 33.683 14.7007 33.7574 14.9482 33.7564L41.6172 33.6372C42.2793 33.6339 42.8152 33.0957 42.8125 32.4321L42.8115 31.9995V10.5445L42.8476 10.4546C43.1528 9.50859 42.4506 8.49956 41.4179 8.49953H15.1181C14.6212 8.49953 14.1612 8.74539 13.8838 9.14699L13.7763 9.32863L11.8467 13.189L11.8203 7.36965C11.8182 6.87406 12.2198 6.46777 12.7197 6.46535L43.5986 6.32765ZM14.9551 35.4839C14.2929 35.4869 13.7548 36.0259 13.7578 36.69L13.7929 44.4614C13.7962 45.125 14.3378 45.6586 15 45.6558L41.6679 45.5366C42.3306 45.5336 42.867 44.9951 42.8642 44.3316L42.8291 36.5601C42.8261 35.8964 42.2852 35.3621 41.623 35.3648L14.9551 35.4839ZM41.6269 36.3648C41.7393 36.3643 41.8284 36.455 41.8291 36.564L41.8642 44.3355C41.8646 44.4452 41.7752 44.5361 41.6631 44.5366L14.9961 44.6558C14.884 44.6563 14.7935 44.5662 14.7929 44.4566L14.7578 36.6851C14.7574 36.5761 14.8467 36.4846 14.959 36.4839L41.6269 36.3648ZM23.7392 32.7154L14.9424 32.7554C14.8956 32.7555 14.8545 32.7376 14.8203 32.7114C14.7737 32.6748 14.7426 32.62 14.7422 32.5571L14.7285 29.4995H20.4853L23.7392 32.7154ZM41.7685 22.5845L41.8115 32.0025L41.8105 32.4331V32.4351C41.811 32.5446 41.7228 32.6357 41.6103 32.6362L25.1553 32.7095L21.9082 29.4995H32.8681C33.4471 29.4994 33.9742 29.1661 34.2226 28.6431L38.6045 19.4185L41.7685 22.5845ZM41.4179 9.49953C41.762 9.49956 41.9958 9.83573 41.8945 10.1509L41.8691 10.2144L33.3193 28.2144C33.2365 28.3885 33.061 28.4994 32.8681 28.4995H6.11814C5.74645 28.4995 5.50465 28.1083 5.67088 27.7759L14.6709 9.7759L14.707 9.71535C14.7995 9.58171 14.9527 9.49953 15.1181 9.49953H41.4179ZM16.6103 11.0484C16.2079 11.0506 15.8368 11.2533 15.6172 11.5825L15.5322 11.732L9.17088 25.0601C8.99315 25.4325 9.02043 25.8701 9.24119 26.2183L9.24022 26.2193C9.46136 26.5679 9.84764 26.7787 10.2607 26.7769L30.6972 26.6861C31.158 26.6839 31.5778 26.4179 31.7763 26.0025L38.1377 12.6734V12.6724C38.3148 12.3001 38.2883 11.8629 38.0664 11.5142H38.0654C37.8716 11.2095 37.554 11.0103 37.2012 10.9663L37.0478 10.9566L16.6103 11.0484ZM37.1025 11.9634C37.1517 11.976 37.195 12.0069 37.2226 12.0503L37.2236 12.0513C37.2599 12.1086 37.2638 12.1808 37.2344 12.2427L30.874 25.5708C30.8408 25.6402 30.7696 25.6857 30.6924 25.6861L10.2558 25.7769C10.204 25.777 10.1549 25.7572 10.1181 25.7232L10.0859 25.6841L10.0849 25.6831L10.0644 25.6372C10.0492 25.5896 10.0515 25.5376 10.0732 25.4917L16.4346 12.1626L16.4658 12.1148C16.4907 12.087 16.5236 12.0668 16.5596 12.0562L16.6162 12.0484L37.0517 11.9566L37.1025 11.9634ZM41.8115 21.2114L39.0596 18.4605L41.8115 12.6655V21.2114Z" fill="#4D5858"/>
</svg>
