<svg width="85" height="34" viewBox="0 0 85 34" fill="none" xmlns="http://www.w3.org/2000/svg">
<g clip-path="url(#clip0_4004_5436)">
<path d="M34.6713 9.30446V9.28649C34.7508 9.21609 34.8393 9.15686 34.9349 9.11043L34.4005 8.57871C34.3333 8.512 34.2802 8.43274 34.2437 8.34551C34.2075 8.25828 34.1889 8.1648 34.1889 8.07037C34.1889 7.97594 34.2075 7.88246 34.2437 7.79523C34.2802 7.708 34.3333 7.62874 34.4005 7.562L41.467 0.5312C41.5342 0.463957 41.614 0.4106 41.7022 0.37422C41.79 0.33784 41.8845 0.319149 41.9799 0.319226C42.1708 0.320026 42.354 0.396266 42.489 0.5312L49.5589 7.562C49.6261 7.62874 49.6792 7.708 49.7157 7.79523C49.7522 7.88246 49.7709 7.97594 49.7709 8.07037C49.7709 8.1648 49.7522 8.25828 49.7157 8.34551C49.6792 8.43274 49.6261 8.512 49.5589 8.57871L49.0245 9.11043C49.1201 9.15686 49.2089 9.21609 49.2881 9.28649V9.30446L49.7792 8.81586C49.8777 8.71837 49.9558 8.60249 50.0092 8.47486C50.0623 8.34723 50.0899 8.21037 50.0899 8.07217C50.0899 7.93397 50.0623 7.79709 50.0092 7.66946C49.9558 7.54183 49.8777 7.42597 49.7792 7.32849L42.7127 0.297669C42.5114 0.106588 42.2438 0 41.9652 0C41.687 0 41.4193 0.106588 41.2177 0.297669L34.1515 7.32849C34.053 7.42597 33.9749 7.54183 33.9215 7.66946C33.8681 7.79709 33.8408 7.93397 33.8408 8.07217C33.8408 8.21037 33.8681 8.34723 33.9215 8.47486C33.9749 8.60249 34.053 8.71837 34.1515 8.81586L34.6713 9.30446Z" fill="#DBE2EA"/>
<path d="M49.0388 10.3643C49.0796 10.2503 49.0905 10.128 49.071 10.0087C49.0515 9.88935 49.0018 9.77689 48.9268 9.68166C48.8367 9.59849 48.721 9.54786 48.5983 9.53795C48.4774 9.52966 48.3557 9.53935 48.2374 9.56669C48.0318 9.61621 47.8322 9.68729 47.6415 9.77869C47.3147 9.93549 46.9965 10.1094 46.6881 10.2996L45.9338 9.70324C45.86 9.63409 45.764 9.59335 45.6627 9.58826C45.6245 9.58281 45.5854 9.58281 45.5472 9.58826V9.05295V5.70821C45.5467 5.47218 45.4516 5.24604 45.2836 5.07949L42.6116 2.42092C42.5286 2.3376 42.4301 2.27146 42.3213 2.22633C42.2124 2.1812 42.0958 2.15796 41.9778 2.15796C41.8601 2.15796 41.7435 2.1812 41.6346 2.22633C41.5258 2.27146 41.427 2.3376 41.344 2.42092L38.6757 5.07949C38.5077 5.24604 38.413 5.47218 38.4121 5.70821V9.59186C38.3751 9.58641 38.3375 9.58641 38.3001 9.59186C38.249 9.59429 38.1988 9.60649 38.1522 9.62778C38.127 9.63466 38.1037 9.64695 38.0836 9.66372C38.0621 9.67484 38.0425 9.68938 38.0259 9.70684L37.2747 10.3032C36.9683 10.11 36.6498 9.93604 36.3216 9.78226C36.1309 9.69086 35.9313 9.61981 35.7257 9.57029C35.6074 9.54295 35.4856 9.53326 35.3648 9.54155C35.2421 9.55146 35.1264 9.60209 35.036 9.68526C34.963 9.78138 34.9145 9.89381 34.895 10.0127C34.8754 10.1317 34.8855 10.2536 34.9242 10.3679C34.9756 10.5719 35.0469 10.7704 35.137 10.9607C35.2912 11.2881 35.4647 11.606 35.6571 11.9127L35.0578 12.6564C34.9851 12.7326 34.9418 12.8318 34.9349 12.9366C34.932 13.0283 34.9466 13.1198 34.9782 13.2061C35.0124 13.2911 35.065 13.3674 35.1324 13.4296C35.1999 13.4917 35.2803 13.5381 35.3682 13.5653H36.7693L36.2168 14.5677L36.17 14.6539C36.1088 14.7516 36.07 14.8614 36.0565 14.9757C36.0427 15.0899 36.0542 15.2057 36.0904 15.3149C36.1338 15.4271 36.2047 15.5267 36.2969 15.6046C36.3891 15.6824 36.4993 15.736 36.6176 15.7604H38.7587L38.73 15.8323C38.7053 15.8826 38.6872 15.9357 38.6757 15.9904C38.653 16.1031 38.6645 16.2201 38.709 16.3264C38.7533 16.4326 38.8285 16.5233 38.925 16.5867C39.0154 16.6498 39.1217 16.6871 39.232 16.6945H39.4918H39.9901H43.9621H44.4603H44.7205C44.8308 16.6871 44.9367 16.6498 45.0272 16.5867C45.1237 16.5233 45.1989 16.4326 45.2434 16.3264C45.2876 16.2201 45.2991 16.1031 45.2764 15.9904C45.2684 15.9348 45.25 15.8812 45.2222 15.8323L45.1935 15.7604H47.3345C47.4528 15.736 47.5631 15.6824 47.6553 15.6046C47.7475 15.5267 47.8184 15.4271 47.8618 15.3149C47.8974 15.2058 47.9091 15.0903 47.8962 14.9762C47.883 14.8622 47.8454 14.7523 47.786 14.6539L47.7391 14.5605L47.1829 13.5653H48.5877C48.6747 13.5376 48.7546 13.4911 48.8215 13.429C48.8881 13.3668 48.9403 13.2907 48.9739 13.2061C49.0073 13.1203 49.0219 13.0285 49.0173 12.9366C49.013 12.8568 48.9869 12.7798 48.9415 12.7139C48.9323 12.6944 48.9185 12.6771 48.9019 12.6636L48.3132 11.945C48.5056 11.6383 48.679 11.3204 48.8332 10.993C48.9234 10.8028 48.9946 10.6042 49.0463 10.4002M38.7986 5.75132C38.7983 5.68469 38.8113 5.61866 38.8365 5.55701C38.8621 5.49535 38.8994 5.43929 38.9465 5.39204L39.6073 4.73458L39.7698 7.20992L39.9539 4.39329L40.8171 3.52746L40.9831 6.04232L41.1637 3.18975L41.6186 2.73707C41.7151 2.64319 41.8446 2.59038 41.9798 2.58978C42.0467 2.5895 42.1131 2.60236 42.1751 2.62763C42.2368 2.65291 42.2934 2.6901 42.3408 2.73707L42.7994 3.19335L42.98 5.95609L43.146 3.53824L44.0055 4.39686L44.1933 7.21712L44.3521 4.74178L45.0166 5.39924C45.0637 5.44649 45.101 5.50255 45.1265 5.56421C45.1518 5.62586 45.1647 5.69186 45.1644 5.75849V8.59669L42.6116 6.04952C42.4396 5.88861 42.2121 5.79901 41.9761 5.79901C41.74 5.79901 41.5126 5.88861 41.3406 6.04952L38.7877 8.59669L38.7986 5.75132ZM39.6397 13.824L39.611 13.9821L39.037 13.4072C38.6757 13.0767 38.3581 12.7498 38.015 12.4301V12.2145L38.0799 10.7774L37.7585 11.9666L37.708 12.157C37.6213 12.0708 37.5383 11.9918 37.4518 11.9163C36.9174 11.4313 36.3684 10.9499 35.8087 10.4792C36.2673 11.0469 36.7549 11.5786 37.2531 12.1067C37.3327 12.1929 37.4119 12.2792 37.4987 12.3654L36.0941 12.7426L37.7766 12.6671C38.1054 13.0049 38.4339 13.3318 38.7625 13.6623L39.3618 14.2443L37.5058 14.6036L39.6725 14.5605C40.0553 14.9197 40.4452 15.279 40.8458 15.6383L39.7988 15.9005L41.1166 15.9544H41.2071C41.384 16.1053 41.568 16.2562 41.7449 16.3999L41.8606 16.5149L40.0119 16.4179H39.5134C39.4353 16.4218 39.3569 16.4218 39.2788 16.4179C39.2228 16.4151 39.1694 16.3936 39.1272 16.3568C39.0872 16.3263 39.0574 16.2849 39.0407 16.2377C39.0241 16.1905 39.0215 16.1396 39.0332 16.091C39.0424 16.0652 39.0533 16.04 39.0657 16.0155L39.1234 15.9077L39.2426 15.6922L39.3945 15.4155H36.6935C36.642 15.4028 36.5944 15.3783 36.5545 15.344C36.5143 15.3097 36.4827 15.2665 36.4623 15.2179C36.4402 15.1478 36.4402 15.0725 36.4623 15.0024C36.4675 14.9802 36.4746 14.9585 36.4841 14.9377C36.4933 14.9143 36.5042 14.8915 36.5166 14.8695L37.2712 13.5007L37.4263 13.224H35.4693C35.4406 13.2107 35.415 13.1917 35.394 13.1682C35.3728 13.1448 35.3567 13.1173 35.3467 13.0875C35.3177 13.0121 35.3467 12.9438 35.3467 12.933L36.029 12.0851L36.1266 11.963L36.0327 11.8588C35.7817 11.5567 35.5615 11.2306 35.3754 10.8852C35.2829 10.7177 35.2123 10.539 35.166 10.3535C35.135 10.2807 35.1221 10.2016 35.1284 10.1228C35.1347 10.044 35.16 9.96784 35.2022 9.90081C35.2645 9.86046 35.3355 9.83524 35.4095 9.82712C35.4836 9.81901 35.5586 9.82826 35.6281 9.85412H35.6536C35.8406 9.89992 36.0203 9.97126 36.188 10.0661C36.5367 10.2487 36.8646 10.4679 37.1664 10.7199L37.2784 10.8062L37.3976 10.7163L38.2496 10.0337C38.2496 10.0158 38.3148 10.0086 38.3868 10.0337H38.4049C38.4673 10.0579 38.5187 10.1039 38.5494 10.1631L38.8093 11.6612L38.8526 11.9235L39.0838 11.7941L40.1021 11.2445C40.1586 11.1978 40.2247 11.1637 40.2959 11.1445C40.3668 11.1253 40.4412 11.1214 40.5136 11.1331C40.5727 11.1489 40.6264 11.1803 40.6689 11.2239C40.7114 11.2676 40.7416 11.3218 40.7556 11.381V14.0755L41.0302 13.9174L41.4526 13.6767C41.4985 13.6566 41.5496 13.6506 41.5993 13.6596C41.6487 13.6685 41.6947 13.692 41.7306 13.727C41.7553 13.7492 41.7748 13.7764 41.7877 13.8068C41.8009 13.8372 41.8072 13.87 41.8064 13.903C41.8124 13.9663 41.8124 14.0301 41.8064 14.0935V14.5928L41.8535 16.0874V16.5221C41.6619 16.2849 41.4598 16.0514 41.2576 15.8251L41.2323 15.4658L41.1924 14.4743L41.0012 15.2395L40.9435 15.4623C40.5822 15.0671 40.2212 14.6791 39.86 14.2946V14.097L39.8962 12.1786L39.6397 13.824ZM41.987 13.4971C41.9092 13.4104 41.8067 13.3493 41.6932 13.3217C41.5798 13.2941 41.4606 13.3014 41.3515 13.3426C41.2791 13.3713 41.218 13.4037 41.16 13.4324V11.2768C41.1313 11.1482 41.0678 11.0299 40.9759 10.9348C40.8843 10.8398 40.768 10.7717 40.6402 10.7379C40.4001 10.6929 40.152 10.7446 39.9504 10.8816L39.1705 11.3092L38.9503 10.0517V10.0337C38.9241 9.94332 38.8742 9.86146 38.8058 9.79664V9.10326L40.1741 7.74164L40.3332 10.12L40.5136 7.40035L41.6257 6.29021C41.6771 6.23966 41.7386 6.20049 41.8064 6.17524L41.987 12.8432L42.1602 6.17524C42.2305 6.19946 42.2945 6.23869 42.348 6.29021L43.4601 7.40035L43.6408 10.12L43.7996 7.74164L45.1682 9.10326V9.79664C45.0996 9.86146 45.0499 9.94332 45.0237 10.0337V10.0517L44.8035 11.3092L44.0236 10.8816C43.8217 10.7446 43.5739 10.6929 43.3338 10.7379C43.2057 10.7717 43.0897 10.8398 42.9978 10.9348C42.9062 11.0299 42.8425 11.1482 42.8137 11.2768V13.4324C42.756 13.4037 42.6946 13.3713 42.6225 13.3426C42.5134 13.3014 42.3942 13.2941 42.2805 13.3217C42.167 13.3493 42.0648 13.4104 41.987 13.4971ZM48.797 10.3427C48.7505 10.5282 48.6802 10.707 48.5877 10.8744C48.4028 11.2206 48.1825 11.5469 47.9304 11.8481L47.8365 11.9522L47.9376 12.0744L48.6164 12.9223C48.6417 12.9223 48.6526 13.0013 48.6164 13.0767C48.596 13.1359 48.5532 13.1849 48.4972 13.2133H46.5365L46.6919 13.4899L47.4465 14.8587C47.4698 14.9019 47.4879 14.9477 47.5008 14.9952C47.5229 15.0653 47.5229 15.1406 47.5008 15.2108C47.4804 15.2593 47.4488 15.3025 47.4086 15.3368C47.3687 15.3711 47.321 15.3956 47.2696 15.4083H44.5686L44.7205 15.685L44.8394 15.9005L44.8974 16.0083C44.9097 16.0328 44.9204 16.058 44.9298 16.0838C44.9416 16.1324 44.939 16.1833 44.9224 16.2305C44.9057 16.2777 44.8756 16.3191 44.8359 16.3496C44.7937 16.3864 44.7403 16.4079 44.6843 16.4107C44.6059 16.4146 44.5278 16.4146 44.4494 16.4107H43.9549L42.0737 16.4682L42.1639 16.3748C42.3551 16.2275 42.5249 16.0658 42.7307 15.9077L44.1318 15.8502L43.0883 15.588C43.4854 15.2287 43.8754 14.8695 44.2582 14.5102L46.4248 14.5533L44.5723 14.194L45.1716 13.612L45.327 13.4575C45.6015 13.1773 45.8829 12.9007 46.1575 12.6169L47.0278 12.6564L47.8402 12.6923L46.4392 12.3151L46.681 12.0564C47.1757 11.5283 47.6633 10.9966 48.1254 10.429C47.5548 10.8852 47.0169 11.3666 46.4825 11.866C46.3958 11.9415 46.3128 12.0205 46.2261 12.1067L46.1755 11.9163L45.8542 10.7271L45.9228 12.1642V12.3797C45.634 12.6492 45.3451 12.9294 45.0562 13.2061C45.0019 13.2563 44.9551 13.3102 44.9008 13.3569L44.3268 13.9318L44.2978 13.7737L43.9911 12.1462L44.0236 14.0503V14.2443C43.6623 14.6287 43.2795 15.0167 42.9401 15.4119L42.8824 15.1892L42.6911 14.424L42.6515 15.4155V15.7533C42.4419 15.9868 42.2397 16.2203 42.041 16.4718V16.0299L42.0881 14.5353V14.036C42.0881 13.9713 42.0881 13.9174 42.0881 13.8456C42.0872 13.8125 42.0935 13.7797 42.1067 13.7493C42.1197 13.7189 42.1392 13.6917 42.1639 13.6695C42.1998 13.6345 42.2457 13.6111 42.2951 13.6021C42.3448 13.5931 42.3959 13.5991 42.4419 13.6192L42.8643 13.8599L43.146 14.018V11.3163C43.1615 11.2605 43.1911 11.2096 43.2324 11.1687C43.2735 11.1278 43.3246 11.0982 43.3806 11.0828C43.4532 11.0711 43.5276 11.075 43.5986 11.0942C43.6698 11.1134 43.7358 11.1475 43.7924 11.1942L44.8107 11.7439L45.0418 11.8732L45.0852 11.6109L45.3451 10.1128C45.3758 10.0536 45.4272 10.0076 45.4895 9.98346H45.5076C45.5797 9.96192 45.634 9.98346 45.6446 9.98346L46.4969 10.6661L46.6198 10.7559L46.728 10.6697C47.031 10.4192 47.3589 10.2001 47.7067 10.0158C47.8741 9.92098 48.0539 9.84964 48.2408 9.80384H48.2661C48.3359 9.77769 48.4108 9.76829 48.4849 9.77641C48.559 9.78452 48.6299 9.80989 48.6922 9.85052C48.7344 9.91755 48.7597 9.99366 48.766 10.0725C48.7724 10.1513 48.7594 10.2304 48.7284 10.3032" fill="#DBE2EA"/>
<path d="M6.56094 23.1109C6.72419 22.7361 6.79868 22.329 6.77864 21.9209C6.75862 21.5129 6.64462 21.1149 6.44541 20.7577C6.21405 20.3902 5.87861 20.099 5.48129 19.9207C4.96834 19.7032 4.41368 19.6001 3.85642 19.6189H0.0108432V19.741H0.162515C0.266412 19.7409 0.369296 19.7611 0.465329 19.8006C0.561362 19.84 0.648636 19.8979 0.722173 19.9709C0.797277 20.0423 0.856875 20.1282 0.89725 20.2233C0.937622 20.3185 0.957916 20.4209 0.956885 20.5242V27.3826C0.952003 27.5903 0.865116 27.7878 0.714988 27.9323C0.643542 28.0061 0.557652 28.0645 0.462641 28.1041C0.367631 28.1436 0.265497 28.1634 0.162515 28.1622H0V28.2736H3.43391V28.1478H3.27147C3.16835 28.1499 3.06594 28.1305 2.97081 28.0909C2.87567 28.0513 2.7899 27.9924 2.71899 27.9179C2.64401 27.8468 2.58399 27.7616 2.54245 27.6673C2.50092 27.5729 2.47872 27.4712 2.47709 27.3682V20.0751H3.49534C3.71869 20.0617 3.94222 20.0986 4.14918 20.1832C4.35616 20.2678 4.54124 20.3979 4.69054 20.5637C4.9872 20.9344 5.14201 21.3978 5.12745 21.8715C5.13816 21.9994 5.13816 22.128 5.12745 22.2559C5.11709 22.3777 5.09408 22.4981 5.05882 22.6151C4.98683 22.8992 4.85103 23.1633 4.66162 23.3876C4.50612 23.5675 4.31254 23.7111 4.09473 23.8079C3.90994 23.8886 3.71594 23.9465 3.51702 23.9803C3.31517 24.0116 3.11031 24.0188 2.90677 24.0019V24.1241C3.22954 24.3177 3.59033 24.4402 3.96476 24.4833C4.31714 24.5311 4.67572 24.5017 5.01549 24.3971C5.34811 24.2953 5.6573 24.1292 5.92542 23.9085C6.19616 23.6827 6.41216 23.399 6.55732 23.0786" fill="#DBE2EA"/>
<path d="M14.1438 27.9827C13.9292 27.8448 13.7598 27.6475 13.6564 27.415L10.078 19.3962H9.96609C9.95064 19.5188 9.92158 19.6393 9.87943 19.7555C9.82888 19.91 9.77111 20.0681 9.69889 20.2333C9.62667 20.3986 9.5653 20.5459 9.51111 20.6716C9.45695 20.7974 9.42445 20.88 9.40638 20.9124L6.54659 27.4546C6.44491 27.6741 6.282 27.8599 6.0772 27.9899C5.90028 28.1031 5.6953 28.1653 5.48501 28.1695H5.37305V28.2737H7.98734V28.148H7.87541C7.76847 28.1465 7.66434 28.1141 7.5757 28.0546C7.47697 27.9928 7.40291 27.8988 7.36624 27.7887C7.32572 27.649 7.33859 27.4992 7.40234 27.3683L9.67721 21.8213L11.8437 27.3791C11.89 27.4682 11.9098 27.5686 11.9008 27.6685C11.8919 27.7684 11.8546 27.8636 11.7932 27.9432C11.7416 28.0054 11.6772 28.0558 11.6043 28.0912C11.5314 28.1265 11.4518 28.1459 11.3707 28.148H11.2588V28.2737H14.8299V28.148H14.736C14.5268 28.1438 14.323 28.0816 14.1475 27.9683" fill="#DBE2EA"/>
<path d="M23.8497 28.1623C23.6451 28.1653 23.4417 28.13 23.2502 28.0581C23.07 27.9838 22.9039 27.8793 22.7592 27.7491C22.5785 27.585 22.4096 27.4085 22.2536 27.221C22.1381 27.0809 22.0045 26.9084 21.8492 26.7036C21.694 26.4989 21.5495 26.2905 21.4087 26.0821C21.2679 25.8737 21.1487 25.7013 21.0476 25.5576L20.8924 25.3277C20.7436 25.112 20.5743 24.9111 20.3869 24.7277C20.21 24.5404 19.9909 24.3976 19.7477 24.3109C20.1566 24.293 20.5505 24.1528 20.8779 23.9085C21.1831 23.6788 21.4232 23.3743 21.5748 23.0248C21.7299 22.6863 21.8111 22.3189 21.8131 21.947C21.8235 21.5861 21.748 21.2279 21.5929 20.9015C21.4529 20.6172 21.246 20.3708 20.9898 20.183C20.7234 19.9877 20.4219 19.8451 20.1016 19.7626C19.7483 19.6691 19.3839 19.6231 19.0183 19.6261H15.0464V19.7483H15.2053C15.3088 19.7474 15.4113 19.7673 15.5069 19.8068C15.6024 19.8463 15.6889 19.9046 15.7613 19.9782C15.911 20.1244 15.9978 20.3228 16.0033 20.5315V27.3898C15.9984 27.5976 15.9115 27.7951 15.7613 27.9395C15.6895 28.0138 15.603 28.0725 15.5073 28.112C15.4117 28.1516 15.3089 28.1711 15.2053 28.1695H15.0464V28.2736H18.4659V28.1479H18.3467C18.2426 28.1492 18.1394 28.1295 18.0432 28.09C17.947 28.0505 17.8598 27.992 17.787 27.918C17.7106 27.8484 17.6501 27.7634 17.6096 27.6685C17.5691 27.5737 17.5496 27.4713 17.5523 27.3683V20.1147H17.7437H18.1987C18.372 20.1147 18.5381 20.1147 18.697 20.1147C18.8942 20.1169 19.0888 20.1599 19.2685 20.2409C19.4481 20.3219 19.6088 20.4392 19.7405 20.5853C20.041 20.9559 20.1997 21.4206 20.1883 21.8967C20.1992 22.0162 20.1992 22.1364 20.1883 22.2559C20.1883 22.3709 20.1557 22.4679 20.1377 22.5397C20.0799 22.8514 19.9432 23.1432 19.7405 23.3876C19.5749 23.5779 19.362 23.7217 19.1231 23.8044C18.9039 23.8776 18.6753 23.9188 18.4442 23.9265C18.3408 23.9335 18.2371 23.9335 18.1337 23.9265H17.9712V24.0523C18.1652 24.0753 18.3458 24.1626 18.4839 24.3001C18.6571 24.4713 18.8032 24.6675 18.9172 24.8822C18.9425 24.9397 18.9894 25.0367 19.0617 25.1804C19.1339 25.3241 19.2169 25.4785 19.3216 25.6546L19.6394 26.2079C19.7477 26.3983 19.8488 26.5671 19.9391 26.7216C20.0294 26.8761 20.1016 26.9875 20.1485 27.0593C20.3229 27.3233 20.543 27.5545 20.7985 27.7419C21.0625 27.9321 21.3602 28.071 21.6759 28.1515C22.0522 28.2469 22.4395 28.2928 22.8278 28.288H23.8605L23.8497 28.1623Z" fill="#DBE2EA"/>
<path d="M32.6528 28.1622C32.4162 28.1596 32.1842 28.0978 31.9777 27.9826C31.7592 27.8525 31.5671 27.6832 31.4108 27.4832L28.2188 23.3517L30.8259 20.3015C30.985 20.1283 31.178 19.989 31.3928 19.892C31.6328 19.783 31.8941 19.7278 32.1583 19.7303H32.2051V19.6189H29.432V19.7303H29.5549C29.627 19.7217 29.6999 19.7349 29.7643 19.7682C29.8286 19.8016 29.8814 19.8534 29.9159 19.9171C29.9475 19.9806 29.9598 20.052 29.9506 20.1223C29.9417 20.1926 29.9119 20.2588 29.8653 20.3123L26.9116 24.1277L27.5147 24.9181L28.0888 25.6689C28.291 25.9348 28.4896 26.1935 28.681 26.4342C28.8723 26.6749 29.042 26.8868 29.1575 27.0557C29.2732 27.2246 29.3634 27.3287 29.3887 27.3718C29.5604 27.5918 29.7769 27.773 30.0241 27.9036C30.2524 28.0223 30.4954 28.1117 30.7464 28.1694C30.9566 28.2186 31.1702 28.2523 31.3856 28.27C31.5768 28.27 31.7178 28.27 31.8117 28.27H32.6675L32.6528 28.1622Z" fill="#DBE2EA"/>
<path d="M25.0269 28.2736H27.4642V28.1479H27.3017C27.1987 28.1495 27.0964 28.1299 27.0013 28.0904C26.9063 28.0508 26.8204 27.9921 26.7493 27.9179C26.6743 27.8469 26.6143 27.7617 26.5727 27.6673C26.5312 27.5729 26.5089 27.4713 26.5073 27.3682V20.5243C26.5112 20.3153 26.5982 20.1163 26.7493 19.971C26.8209 19.8975 26.9069 19.8393 27.0018 19.7998C27.0968 19.7602 27.1988 19.7403 27.3017 19.7411H27.4642V19.6189H24.0303V19.7411H24.1928C24.2956 19.7407 24.3975 19.7608 24.4924 19.8003C24.5873 19.8398 24.6733 19.8979 24.7452 19.971C24.8962 20.1163 24.9832 20.3153 24.9872 20.5243V27.3826C24.9855 27.4856 24.9633 27.5873 24.9217 27.6817C24.8802 27.776 24.8202 27.8612 24.7452 27.9323C24.6738 28.0061 24.5879 28.0646 24.4929 28.1041C24.3979 28.1437 24.2957 28.1634 24.1928 28.1622H24.0303V28.2736H25.0269Z" fill="#DBE2EA"/>
<path d="M40.2828 28.1623H40.1708V28.2737H43.742V28.1479H43.6443C43.4341 28.1437 43.2291 28.0815 43.0522 27.9683C42.8389 27.8302 42.6706 27.6328 42.5684 27.4006L38.99 19.3818H38.878C38.8591 19.5037 38.8301 19.6239 38.7916 19.7411C38.7408 19.8956 38.6796 20.0537 38.611 20.2189L38.4232 20.6572C38.3689 20.7866 38.333 20.8656 38.3184 20.8979L35.4585 27.4401C35.3548 27.6583 35.1923 27.8435 34.9893 27.9755C34.8121 28.0883 34.6074 28.1505 34.3971 28.1551H34.2852V28.2737H36.8995V28.1479H36.7875C36.6804 28.1469 36.5761 28.1144 36.4877 28.0545C36.388 27.993 36.3128 27.899 36.2746 27.7887C36.2356 27.6484 36.2496 27.4988 36.3145 27.3683L38.5929 21.8212L40.7592 27.3791C40.8052 27.4685 40.8244 27.5691 40.8146 27.669C40.8052 27.7688 40.7673 27.864 40.7052 27.9432C40.6544 28.0061 40.5901 28.057 40.5169 28.0924C40.4439 28.1278 40.3641 28.1468 40.2828 28.1479" fill="#DBE2EA"/>
<path d="M46.7716 27.2389C46.8293 27.1132 46.8655 27.0306 46.8836 26.9982L49.8408 20.456C49.9459 20.2365 50.111 20.051 50.3175 19.9207C50.4932 19.8115 50.6951 19.7507 50.9024 19.7447H51.0141V19.6189H48.4001V19.7447H48.5121C48.5948 19.7448 48.6763 19.7624 48.7519 19.7965C48.8271 19.8306 48.8943 19.8803 48.9489 19.9422C49.0092 20.0197 49.0454 20.113 49.0531 20.2106C49.0606 20.3083 49.0396 20.4061 48.9922 20.4919L46.6125 26.0857L44.3451 20.5099C44.2974 20.4209 44.2762 20.3203 44.2839 20.2198C44.2917 20.1193 44.3279 20.023 44.3884 19.9422C44.4393 19.8807 44.5033 19.8311 44.5757 19.797C44.648 19.7628 44.727 19.745 44.8071 19.7447H44.9191V19.6189H41.3442V19.7447H41.4456C41.6552 19.7496 41.8597 19.8104 42.0377 19.9207C42.2611 20.0683 42.4357 20.2783 42.5397 20.5243L46.1938 28.5107H46.3058C46.3219 28.3882 46.3509 28.2678 46.3923 28.1514C46.4394 28.0006 46.5008 27.8425 46.5657 27.6772C46.6306 27.512 46.6958 27.3647 46.7535 27.2353" fill="#DBE2EA"/>
<path d="M57.2538 26.9193C57.0542 27.1972 56.7889 27.4218 56.4811 27.5731C56.1431 27.7328 55.7721 27.8116 55.3979 27.8031H53.7332V20.1004H56.044C56.2984 20.12 56.5373 20.2281 56.7194 20.4058C56.8196 20.5074 56.8977 20.6284 56.9494 20.7612C57.0008 20.894 57.0247 21.0359 57.0189 21.1782V21.3542H57.1456V19.3962C57.0281 19.4398 56.9072 19.4735 56.7843 19.4968C56.6111 19.5292 56.4233 19.5579 56.2174 19.5831C56.0259 19.607 55.8329 19.619 55.6397 19.619H51.2705V19.7412H51.433C51.5364 19.7403 51.6392 19.7602 51.7346 19.7997C51.8302 19.8392 51.9169 19.8975 51.9893 19.9711C52.1372 20.1184 52.2236 20.3161 52.2311 20.5244V27.3827C52.2242 27.59 52.1377 27.7868 51.9893 27.9324C51.9172 28.0066 51.8308 28.0654 51.7351 28.1049C51.6395 28.1445 51.5367 28.164 51.433 28.1623H51.2705V28.2737H57.2972L57.918 25.9205H57.7917C57.6705 26.2713 57.4991 26.6029 57.2825 26.9049" fill="#DBE2EA"/>
<path d="M84.5989 25.9349C84.4766 26.2858 84.3037 26.6174 84.086 26.9193C83.8879 27.1971 83.6237 27.4217 83.317 27.5731C82.9788 27.7327 82.608 27.8115 82.2339 27.8031H80.5692V20.1004H82.8765C83.1493 20.1153 83.4049 20.237 83.5875 20.439C83.7705 20.641 83.8652 20.9068 83.8514 21.1782V21.3542H83.9778V19.3962C83.8609 19.4401 83.74 19.4726 83.6168 19.4932C83.4397 19.5292 83.2556 19.5579 83.0497 19.5831C82.8567 19.6051 82.6626 19.6171 82.4685 19.619H78.103V19.7412H78.2618C78.3652 19.7403 78.468 19.7602 78.5633 19.7997C78.659 19.8392 78.7454 19.8975 78.8178 19.9711C78.9677 20.1173 79.0544 20.3157 79.0599 20.5244V27.3827C79.055 27.5905 78.968 27.7879 78.8178 27.9324C78.746 28.0066 78.6596 28.0654 78.5639 28.1049C78.4683 28.1445 78.3655 28.164 78.2618 28.1623H78.103V28.2737H84.126L84.7468 25.9205L84.5989 25.9349Z" fill="#DBE2EA"/>
<path d="M66.8409 19.6189H64.5155V19.7411H64.7501C64.8509 19.738 64.9508 19.7559 65.0442 19.7937C65.1375 19.8314 65.2219 19.8882 65.2917 19.9602C65.4356 20.1036 65.5186 20.2966 65.5229 20.4991V25.7875L59.0631 19.4321H58.9365C59.0229 19.9439 59.0689 20.4616 59.0738 20.9806V27.4078C59.0755 27.507 59.0563 27.6054 59.0178 27.697C58.9793 27.7885 58.9222 27.8711 58.8501 27.9395C58.7812 28.0113 58.6982 28.0682 58.6063 28.1065C58.5141 28.1449 58.4153 28.1638 58.3157 28.1622H58.0664V28.2736H61.4388V28.1479H61.2008C61.0001 28.146 60.8082 28.0659 60.6667 27.9248C60.5248 27.7838 60.4441 27.5929 60.4424 27.3934V22.105L66.8987 28.4461H67.0106C66.9707 28.1658 66.9383 27.9036 66.913 27.6665C66.8857 27.3991 66.8725 27.1305 66.8734 26.8617V20.4991C66.8788 20.2954 66.9644 20.102 67.1117 19.9602C67.1815 19.8901 67.2648 19.8345 67.3564 19.7969C67.4483 19.7592 67.5468 19.7403 67.6461 19.7411H67.8698V19.6189H66.8372H66.8409Z" fill="#DBE2EA"/>
<path d="M76.6006 19.6189H74.9827V19.7411H75.1814C75.3537 19.7378 75.5206 19.8008 75.6472 19.9171C75.711 19.9724 75.7615 20.041 75.7951 20.118C75.8287 20.1951 75.8448 20.2786 75.8422 20.3626V25.227C75.8545 25.7304 75.7457 26.2293 75.5246 26.6821C75.3247 27.0786 75.0155 27.4102 74.6327 27.6377C74.216 27.8727 73.7428 27.9895 73.2641 27.9754C72.8057 27.9914 72.3535 27.8688 71.9667 27.6238C71.5798 27.3788 71.2769 27.0229 71.0977 26.603C70.8832 26.1203 70.7784 25.5966 70.7907 25.069V20.3698C70.7879 20.2858 70.8042 20.2022 70.8378 20.1252C70.8714 20.0482 70.922 19.9796 70.9857 19.9243C71.1123 19.808 71.2792 19.745 71.4515 19.7482H71.6499V19.6261H68.4004V19.7482H68.5988C68.7711 19.745 68.938 19.808 69.0646 19.9243C69.1283 19.9796 69.1789 20.0482 69.2125 20.1252C69.2461 20.2022 69.2624 20.2858 69.2596 20.3698V25.1983C69.2446 25.8045 69.3997 26.4029 69.7073 26.9264C70.02 27.4292 70.4783 27.8262 71.0219 28.0652C71.6781 28.3503 72.3894 28.4877 73.1053 28.4676C73.754 28.4841 74.3972 28.3435 74.9793 28.0581C75.4867 27.8009 75.908 27.4028 76.1925 26.912C76.4834 26.3842 76.6293 25.7893 76.6149 25.1875V20.3698C76.6124 20.2861 76.6282 20.2029 76.6612 20.126C76.6942 20.049 76.7439 19.9802 76.8065 19.9243C76.9346 19.8084 77.1025 19.7455 77.2757 19.7482H77.4744V19.6261H76.5897L76.6006 19.6189Z" fill="#DBE2EA"/>
<path d="M81.2549 24.0845C81.2549 24.0845 83.2624 24.4186 83.2624 25.2916H83.3782V22.8845H83.2624C83.2624 23.8402 81.2549 24.0845 81.2549 24.0845Z" fill="#DBE2EA"/>
<path d="M54.4194 24.0845C54.4194 24.0845 56.4307 24.4186 56.4307 25.2916H56.5462V22.8845H56.4307C56.4307 23.8402 54.4194 24.0845 54.4194 24.0845Z" fill="#DBE2EA"/>
<path d="M38.5459 27.1562C38.5459 27.1562 38.8637 25.4318 39.7014 25.4318L39.6546 25.324H37.4374L37.394 25.4318C38.3112 25.4318 38.5459 27.1562 38.5459 27.1562Z" fill="#DBE2EA"/>
<path d="M9.62283 27.1562C9.62283 27.1562 9.94422 25.4318 10.7783 25.4318L10.7314 25.324H8.51791L8.47461 25.4318C9.39175 25.4318 9.62283 27.1562 9.62283 27.1562Z" fill="#DBE2EA"/>
<path d="M32.2559 31.1476H33.0467C33.1777 31.1454 33.3083 31.1648 33.4329 31.2051C33.5426 31.2405 33.6446 31.2965 33.7327 31.3705C33.8146 31.4445 33.8798 31.5351 33.924 31.6362C33.9731 31.7496 33.9964 31.8722 33.9926 31.9954V32.0422C33.9969 32.1651 33.9748 32.2876 33.9277 32.4014C33.8844 32.5019 33.8189 32.5916 33.7365 32.6636C33.6492 32.7379 33.5487 32.7951 33.4404 32.8325C33.3155 32.8728 33.1848 32.8922 33.0539 32.8899H32.4905V33.9211H32.2559V31.1476ZM33.0467 32.6456C33.1458 32.6471 33.2446 32.6325 33.339 32.6028C33.4192 32.5794 33.4932 32.5388 33.5558 32.4842C33.6173 32.4342 33.6655 32.3699 33.6966 32.2974C33.7299 32.2151 33.7457 32.1271 33.7436 32.0385V31.9919C33.7454 31.9022 33.7293 31.8131 33.6966 31.7296C33.665 31.6554 33.6167 31.5891 33.5558 31.5356C33.4915 31.4805 33.4166 31.4388 33.3356 31.4134C33.2423 31.3836 33.1446 31.3691 33.0467 31.3705H32.4905V32.6456H33.0467Z" fill="#DBE2EA"/>
<path d="M35.2128 31.1478H36.0398C36.1719 31.1461 36.3031 31.1644 36.4298 31.2018C36.5377 31.2364 36.6382 31.2912 36.7258 31.3635C36.8054 31.4338 36.8683 31.521 36.9099 31.6184C36.9556 31.7327 36.9765 31.855 36.9714 31.9778V32.0172C36.9777 32.193 36.9228 32.3655 36.816 32.5058C36.7046 32.6415 36.5509 32.7364 36.3792 32.7752L37.1807 33.9178H36.8775L36.1265 32.8401H35.4405V33.9178H35.2021L35.2128 31.1478ZM36.0435 32.585C36.2288 32.5975 36.4123 32.5427 36.5599 32.4304C36.6196 32.3778 36.6667 32.3121 36.6974 32.2387C36.7278 32.1652 36.7413 32.0858 36.7367 32.0067V31.967C36.7416 31.8855 36.7281 31.8038 36.6977 31.7281C36.667 31.6524 36.6199 31.5844 36.5599 31.5287C36.4123 31.4167 36.2288 31.3618 36.0435 31.3741H35.4511V32.585H36.0435Z" fill="#DBE2EA"/>
<path d="M38.3618 31.1296H39.8749V31.3559H38.6002V32.3585H39.7953V32.5811H38.6002V33.6588H39.9145V33.8816H38.3618V31.1296Z" fill="#DBE2EA"/>
<path d="M41.1675 31.1296H41.5396L42.4278 33.1668H42.4531L43.3379 31.1296H43.7132V33.8816H43.4748V31.4171H43.4533L42.5651 33.4614H42.3196L41.4277 31.4171H41.4058V33.8816H41.1675V31.1296Z" fill="#DBE2EA"/>
<path d="M45.4136 31.1296H45.1753V33.8816H45.4136V31.1296Z" fill="#DBE2EA"/>
<path d="M47.4355 33.8494C47.3175 33.8069 47.2095 33.7409 47.1179 33.6554C47.0292 33.5666 46.9623 33.4583 46.9229 33.3391C46.8744 33.2031 46.8511 33.0597 46.8543 32.9154V31.1191H47.0926V32.8757C47.0878 32.9977 47.105 33.1191 47.1432 33.2351C47.1725 33.3277 47.2247 33.4117 47.2948 33.4794C47.3634 33.5466 47.4458 33.5983 47.5366 33.6303C47.6417 33.6643 47.7514 33.6814 47.8617 33.6806C47.9722 33.682 48.0819 33.6649 48.1867 33.6303C48.2769 33.5974 48.3593 33.546 48.4285 33.4794C48.4966 33.4106 48.5471 33.3269 48.5767 33.2351C48.616 33.1194 48.6344 32.9977 48.6307 32.8757V31.1477H48.8656V32.944C48.8679 33.088 48.846 33.2314 48.8004 33.368C48.7582 33.4857 48.6918 33.5934 48.6057 33.6843C48.5152 33.7711 48.4067 33.8374 48.2878 33.8783C48.1505 33.9237 48.0064 33.9454 47.8617 33.9429C47.7169 33.9451 47.5731 33.9234 47.4355 33.8783" fill="#DBE2EA"/>
<path d="M50.3027 31.1296H50.6746L51.5631 33.1668H51.5884L52.4728 31.1296H52.8484V33.8816H52.6101V31.4171H52.5885L51.6966 33.4614H51.4511L50.5629 31.4171H50.5411V33.8816H50.3027V31.1296Z" fill="#DBE2EA"/>
</g>
<defs>
<clipPath id="clip0_4004_5436">
<rect width="85" height="34" fill="white"/>
</clipPath>
</defs>
</svg>
