<svg width="109" height="32" viewBox="0 0 109 32" fill="none" xmlns="http://www.w3.org/2000/svg">
<mask id="mask0_4004_5584" style="mask-type:luminance" maskUnits="userSpaceOnUse" x="0" y="0" width="109" height="32">
<path d="M109 0H0V32H109V0Z" fill="white"/>
</mask>
<g mask="url(#mask0_4004_5584)">
<path d="M13.7895 0.899388C14.9821 -0.296871 16.9162 -0.296862 18.1088 0.899388L31.0033 13.834C32.196 15.0302 32.196 16.9697 31.0033 18.166L18.1088 31.1006C16.9162 32.2968 14.9821 32.2968 13.7895 31.1006L0.894951 18.166C-0.297666 16.9697 -0.297666 15.0302 0.894951 13.834L13.7895 0.899388ZM17.0815 17.1367C16.4561 16.5094 15.4422 16.5094 14.8168 17.1367L9.78558 22.1836C9.16022 22.8108 9.16022 23.8279 9.78558 24.4551L14.8168 29.5019C15.4422 30.1291 16.4562 30.1292 17.0815 29.5019L22.1127 24.4551C22.738 23.8279 22.7381 22.8108 22.1127 22.1836L17.0815 17.1367ZM15.934 9.78611C15.6537 9.78647 15.3851 9.89872 15.1869 10.0976L9.03558 16.2676C8.83709 16.4666 8.72507 16.737 8.72503 17.0185C8.72503 17.3001 8.83705 17.5704 9.03558 17.7695C9.23404 17.9685 9.50301 18.08 9.78362 18.0801C10.0644 18.0801 10.3341 17.9686 10.5326 17.7695L15.4877 12.7988C15.6058 12.6807 15.7662 12.6142 15.933 12.6142C16.0996 12.6143 16.2594 12.6809 16.3774 12.7988L21.3657 17.7754C21.5643 17.9736 21.8335 18.0842 22.1137 18.084C22.3939 18.0836 22.6625 17.972 22.8608 17.7734C22.9592 17.6749 23.0379 17.5576 23.0912 17.4287C23.1446 17.2997 23.1723 17.1611 23.1723 17.0215C23.1723 16.882 23.1445 16.744 23.0912 16.6152C23.0379 16.4863 22.9593 16.3691 22.8608 16.2705L16.6821 10.0957C16.4835 9.89735 16.2142 9.78584 15.934 9.78611ZM5.03069 15.2529C4.61921 14.8403 3.9519 14.8402 3.54046 15.2529C3.12911 15.6656 3.12903 16.3353 3.54046 16.748C3.95196 17.1605 4.61932 17.1606 5.03069 16.748C5.44217 16.3353 5.44217 15.6656 5.03069 15.2529ZM28.2758 15.2529C27.8644 14.8402 27.1971 14.8403 26.7856 15.2529C26.3741 15.6656 26.3731 16.3353 26.7846 16.748C27.196 17.1606 27.8634 17.1605 28.2748 16.748C28.6863 16.3353 28.6871 15.6656 28.2758 15.2529ZM15.9653 3.2324C15.6846 3.23249 15.4157 3.34487 15.2172 3.54392L10.2563 8.51951C10.0578 8.71863 9.94671 8.98891 9.94671 9.27048C9.94674 9.55204 10.0578 9.82235 10.2563 10.0215C10.4548 10.2206 10.7245 10.332 11.0053 10.332C11.2859 10.3319 11.5549 10.2204 11.7533 10.0215L15.52 6.24314C15.638 6.12475 15.7983 6.05866 15.9653 6.05857C16.1324 6.05857 16.2933 6.12465 16.4116 6.24314L20.1782 10.0215C20.3766 10.2204 20.6456 10.332 20.9262 10.332C21.2069 10.332 21.4766 10.2206 21.6752 10.0215C21.7735 9.92288 21.8515 9.80556 21.9047 9.67673C21.9579 9.548 21.9848 9.40986 21.9848 9.27048C21.9848 9.13113 21.9579 8.99301 21.9047 8.86423C21.8515 8.73551 21.7735 8.618 21.6752 8.51951L16.7143 3.54392C16.5156 3.34479 16.2461 3.2324 15.9653 3.2324Z" fill="#DBE2EA"/>
<path d="M15.4146 19.6612L12.2874 22.7979C12.0006 23.0857 12.0006 23.5522 12.2874 23.84L15.4146 26.9768C15.7016 27.2646 16.1667 27.2646 16.4536 26.9768L19.5808 23.84C19.8677 23.5522 19.8677 23.0857 19.5808 22.7979L16.4536 19.6612C16.1667 19.3734 15.7016 19.3734 15.4146 19.6612Z" fill="#DBE2EA"/>
<path d="M36.3047 9.14836C36.3047 6.8311 37.9592 5.18213 40.3768 5.18213C42.8584 5.18213 44.4702 6.8511 44.4702 9.14836C44.4702 11.4762 42.8479 13.1143 40.3873 13.1143C38.0236 13.1143 36.3047 11.5085 36.3047 9.14836ZM37.8626 9.14836C37.8626 10.5706 38.8081 11.9395 40.3768 11.9395C41.9882 11.9395 42.9123 10.5706 42.9123 9.14836C42.9123 7.68263 41.9882 6.35692 40.3873 6.35692C38.7864 6.35692 37.8626 7.68263 37.8626 9.14836Z" fill="#DBE2EA"/>
<path d="M49.6542 12.9847V8.53369H47.2261V12.9847H45.7861V7.42383H51.0942V12.9847H49.6542Z" fill="#DBE2EA"/>
<path d="M55.9313 13.1141C55.1792 13.1141 54.4378 12.8014 54.0941 12.3272H54.0724V15.0755H52.6328V7.42381H53.9758V8.13494H53.9972C54.2866 7.75761 54.9535 7.29468 55.8669 7.29468C57.5643 7.29468 58.639 8.56454 58.639 10.2149C58.639 11.7885 57.6074 13.1141 55.9313 13.1141ZM55.5981 8.42594C54.8353 8.42594 54.3625 8.86781 54.0724 9.25568V11.1423C54.352 11.5733 54.8353 11.9829 55.5981 11.9829C56.5436 11.9829 57.1346 11.1847 57.1346 10.2153C57.1346 9.20194 56.5436 8.42594 55.5981 8.42594Z" fill="#DBE2EA"/>
<path d="M63.9172 12.9847V9.14829H63.8958L61.6073 12.9847H59.9312V7.42383H61.3494V11.2602H61.3707L63.6603 7.42383H65.3365V12.9847H63.9172Z" fill="#DBE2EA"/>
<path d="M66.8662 12.9847V7.42383H68.3058V11.8748H70.2725V7.42383H71.7121V11.8748H73.6887V7.42383H75.1283V12.9847H66.8662Z" fill="#DBE2EA"/>
<path d="M76.7036 6.57229V5.31152H78.1439V6.57229H76.7036ZM76.7036 12.9846V7.4238H78.1439V12.9846H76.7036Z" fill="#DBE2EA"/>
<path d="M82.6894 12.9847H79.6919V7.42383H82.5053C83.6764 7.42383 84.4075 7.89803 84.4075 8.81416C84.4075 9.56843 83.8811 9.95629 83.4836 10.0426V10.064C83.9901 10.1072 84.6773 10.4736 84.6773 11.3789C84.6773 12.4673 83.8179 12.9847 82.6894 12.9847ZM81.1308 8.40456V9.65476H82.0872C82.5173 9.65476 82.9579 9.52529 82.9579 9.00789C82.9579 8.56596 82.5711 8.40456 82.1085 8.40456H81.1308ZM81.1308 10.5814V12.0149H82.3451C82.7858 12.0149 83.2264 11.8531 83.2264 11.2711C83.2264 10.7214 82.8177 10.5818 82.3345 10.5818L81.1308 10.5814Z" fill="#DBE2EA"/>
<path d="M88.805 13.1141C87.043 13.1141 85.7104 11.9169 85.7104 10.2149C85.7104 8.41501 87.0105 7.29468 88.805 7.29468C89.2855 7.29541 89.7607 7.39414 90.202 7.58494V8.78221C89.8365 8.59861 89.4171 8.41541 88.912 8.41541C87.9024 8.41541 87.2039 9.10474 87.2039 10.2262C87.2039 11.2715 87.9237 11.9935 88.9446 11.9935C89.3958 11.9935 89.9209 11.7997 90.2552 11.6165V12.8435C89.7906 13.0165 89.3001 13.108 88.805 13.1141Z" fill="#DBE2EA"/>
<path d="M94.4381 12.9847H91.5376V7.42383H92.9772V9.40663H94.5351C95.5879 9.40663 96.4685 9.98709 96.4685 11.1844C96.4685 12.4136 95.5447 12.9847 94.4381 12.9847ZM94.1589 10.4414H92.9772V11.9503H94.1483C94.7265 11.9503 95.0077 11.6162 95.0077 11.2066C95.0077 10.6246 94.5989 10.4414 94.1589 10.4414Z" fill="#DBE2EA"/>
<path d="M101.192 12.9847L99.0117 10.1184H98.9791V12.9847H97.5396V7.42383H98.9791V10.0209H99.0004L101.085 7.42383H102.74L100.473 10.0426L102.966 12.9847H101.192Z" fill="#DBE2EA"/>
<path d="M107.246 12.9848V12.1659H107.225C106.816 12.7047 106.279 13.1143 105.483 13.1143C104.302 13.1143 103.442 12.5 103.442 11.3681C103.442 9.7409 105.204 9.4717 106.096 9.4717C106.515 9.4717 106.934 9.5805 107.138 9.64403V9.3969C107.138 8.67497 106.591 8.3513 105.838 8.3513C105.22 8.35297 104.617 8.54023 104.106 8.88897V7.81143C104.569 7.58503 105.278 7.29443 106.105 7.29443C107.588 7.29443 108.512 7.97323 108.512 9.58017V12.9858L107.246 12.9848ZM107.149 10.4738C106.956 10.4415 106.623 10.3337 106.3 10.3337C105.731 10.3337 104.85 10.506 104.85 11.293C104.85 11.7886 105.301 12.0796 105.774 12.0796C106.225 12.0796 106.881 11.724 107.148 11.4004L107.149 10.4738Z" fill="#DBE2EA"/>
<path d="M36.3159 21.3219C36.3159 18.8109 38.1748 17.3452 40.6029 17.3452C41.3007 17.3528 41.993 17.4691 42.6552 17.6899V19.0479C42.0859 18.7246 41.3013 18.52 40.6781 18.52C39.045 18.52 37.8742 19.7173 37.8742 21.3219C37.8742 23.0137 39.1419 24.1025 40.7317 24.1025C41.3332 24.1025 42.1712 23.8975 42.6657 23.6607V24.9646C42.096 25.1583 41.344 25.277 40.6134 25.277C38.3777 25.277 36.3159 23.9839 36.3159 21.3219Z" fill="#DBE2EA"/>
<path d="M47.7248 25.1477V20.6967H46.1134V22.1948C46.1134 23.5734 45.8241 25.234 44.2655 25.234C44.0118 25.2309 43.7594 25.1983 43.5132 25.1368V24.0161C43.6635 24.0606 43.8188 24.086 43.9754 24.0916C44.5983 24.0916 44.6627 23.3264 44.6627 21.8283V19.5869H49.1644V25.1477H47.7248Z" fill="#DBE2EA"/>
<path d="M53.5515 25.2771C51.7571 25.2771 50.4463 24.0798 50.4463 22.3782C50.4463 20.5677 51.7357 19.4575 53.5515 19.4575C55.3673 19.4575 56.6564 20.6001 56.6564 22.3673C56.6564 24.0809 55.3564 25.2771 53.5515 25.2771ZM53.5515 20.5569C52.563 20.5569 51.9506 21.3221 51.9506 22.3673C51.9506 23.3911 52.5091 24.1777 53.5515 24.1777C54.5828 24.1777 55.1524 23.3589 55.1524 22.3673C55.1524 21.3337 54.5505 20.5569 53.5515 20.5569Z" fill="#DBE2EA"/>
<path d="M60.7637 25.2768C58.8514 25.2768 57.7124 23.9083 57.7124 21.9574C57.7124 20.2334 58.0238 19.3173 58.4753 18.6812C58.9371 18.0452 59.8396 17.4742 61.43 17.4528C61.7953 17.4419 62.6978 17.3878 63.0523 17.2373V18.4766C62.6009 18.6381 61.7201 18.658 61.3653 18.6704C59.8291 18.7027 58.8945 19.2309 58.7545 20.8044H58.7975C59.0554 20.2116 59.7969 19.5651 60.8712 19.5651C62.5473 19.5651 63.826 20.6858 63.826 22.4211C63.826 24.1024 62.5365 25.2768 60.7637 25.2768ZM60.7637 20.6212C59.8074 20.6212 59.2059 21.3864 59.2059 22.4211C59.2059 23.4232 59.7647 24.2098 60.7637 24.2098C61.7628 24.2098 62.3107 23.38 62.3107 22.4211C62.3107 21.5373 61.8489 20.6212 60.7637 20.6212Z" fill="#DBE2EA"/>
<path d="M67.9464 25.2771C66.1521 25.2771 64.8413 24.0798 64.8413 22.3782C64.8413 20.5677 66.1304 19.4575 67.9464 19.4575C69.7622 19.4575 71.0516 20.6001 71.0516 22.3673C71.0516 24.0809 69.7516 25.2771 67.9464 25.2771ZM67.9464 20.5569C66.9574 20.5569 66.3452 21.3221 66.3452 22.3673C66.3452 23.3911 66.9043 24.1777 67.9464 24.1777C68.9779 24.1777 69.5469 23.3589 69.5469 22.3673C69.5469 21.3337 68.9454 20.5569 67.9464 20.5569Z" fill="#DBE2EA"/>
<path d="M76.8669 26.8181V25.1492H73.1376V26.8181H71.7632V24.0376H72.4072C72.687 23.6929 72.9987 22.5181 73.0526 21.2573L73.1277 19.5884H77.6292V24.0376H78.2307V26.8181H76.8669ZM76.1896 20.6866H74.4596L74.4171 21.4518C74.3626 22.4434 74.1805 23.5858 73.9013 24.0383H76.1896V20.6866Z" fill="#DBE2EA"/>
<path d="M82.9495 25.1479V24.3287H82.9283C82.5202 24.8675 81.9831 25.2771 81.1876 25.2771C80.0059 25.2771 79.1465 24.6628 79.1465 23.5312C79.1465 21.904 80.9084 21.6344 81.8004 21.6344C82.2191 21.6344 82.6385 21.7433 82.8425 21.8067V21.5593C82.8425 20.837 82.2942 20.5137 81.5425 20.5137C80.925 20.5161 80.3222 20.7037 79.8124 21.0525V19.9749C80.2744 19.7485 80.9835 19.4575 81.811 19.4575C83.2938 19.4575 84.2176 20.1364 84.2176 21.7433V25.149L82.9495 25.1479ZM82.8531 22.6369C82.6597 22.6046 82.3268 22.4965 82.0044 22.4965C81.4348 22.4965 80.5542 22.6692 80.5542 23.4557C80.5542 23.9517 81.0048 24.2427 81.478 24.2427C81.9293 24.2427 82.5846 23.8871 82.8525 23.5635L82.8531 22.6369Z" fill="#DBE2EA"/>
</g>
</svg>
