<svg width="56" height="24" viewBox="0 0 56 24" fill="none" xmlns="http://www.w3.org/2000/svg">
<g clip-path="url(#clip0_4004_5531)">
<path d="M56 24H0V15.5459H56V24ZM8.27441 21.5723H11.2891V22.333H12.0576V20.8936H11.542V17.9756H10.7119V20.8936H9.10449V17.9756H8.27441V21.5723ZM17.8652 21.5723H20.6592V20.9043H18.6953V20.0723H20.3701V19.4248H18.6953V18.6436H20.5918V17.9756H17.8652V21.5723ZM26.5898 21.5723H27.4248V20.0967H29.0645V21.5723H29.8994V17.9756H29.0645V19.3945H27.4248V17.9756H26.5898V21.5723ZM35.6865 18.6533H36.8359V21.5723H37.6602V18.6533H38.8145V17.9756H35.6865V18.6533ZM44.5967 17.9756V21.5723H45.4316V20.5801H46.1592C46.4784 20.5802 46.756 20.5284 46.9912 20.4238C47.2263 20.3194 47.407 20.1684 47.5342 19.9717C47.6614 19.7748 47.7256 19.5442 47.7256 19.2803C47.7256 19.013 47.6614 18.7821 47.5342 18.5869C47.4071 18.3919 47.2263 18.2411 46.9912 18.1348C46.756 18.0287 46.4784 17.9756 46.1592 17.9756H44.5967ZM46.1133 18.6533C46.3641 18.6531 46.555 18.7074 46.6855 18.8154C46.8158 18.9235 46.8809 19.0783 46.8809 19.2803C46.8809 19.4789 46.816 19.6323 46.6855 19.7402C46.5544 19.8482 46.3635 19.9025 46.1133 19.9023H45.4326V18.6533H46.1133Z" fill="#DBE2EA"/>
<path d="M1.27911 0.364441C0.896146 0.588469 0.575684 0.904736 0.347084 1.28427C0.115741 1.66706 7.02467e-05 2.08926 7.02467e-05 2.55085V6.08516C-0.00332885 6.53396 0.116689 6.97511 0.347084 7.36067C0.572182 7.74298 0.893442 8.0601 1.27911 8.28069C1.66738 8.5048 2.10878 8.62113 2.5574 8.61757L3.28391 8.61925L0.0374036 12.4437V13.1177H2.6694L6.44175 8.62632L10.744 8.63581V13.1177H13.156V0.0186221H2.5574C2.10762 0.0152994 1.66553 0.134901 1.27911 0.364441ZM10.5249 2.42316C10.5537 2.42309 10.5823 2.4287 10.6089 2.43966C10.6355 2.45063 10.6597 2.46674 10.6801 2.48707C10.7005 2.50739 10.7166 2.53153 10.7276 2.5581C10.7385 2.58466 10.7441 2.61313 10.744 2.64186V5.99415C10.7452 6.02169 10.74 6.04914 10.7289 6.07439C10.7178 6.09965 10.7011 6.12205 10.68 6.13988C10.6369 6.17658 10.5816 6.19602 10.5249 6.19442H2.66772C2.60836 6.19493 2.55051 6.17574 2.50327 6.13988C2.48007 6.12341 2.46128 6.1015 2.44855 6.07609C2.43583 6.05068 2.42955 6.02254 2.43028 5.99415V2.64186C2.43017 2.61227 2.43666 2.58302 2.44928 2.55624C2.46191 2.52945 2.48035 2.5058 2.50327 2.487C2.54821 2.44606 2.60685 2.42329 2.66772 2.42316H10.5249Z" fill="#DBE2EA"/>
<path d="M26.5953 0.364444C26.2086 0.134837 25.7662 0.0152363 25.3161 0.0186247H14.7183V13.1181H17.1302V8.63619L25.3161 8.61757C25.765 8.62124 26.2067 8.50491 26.5953 8.28069C26.9809 8.06009 27.302 7.74297 27.527 7.36067C27.7575 6.97516 27.8776 6.53399 27.8742 6.08516V2.55085C27.8742 2.08926 27.7584 1.66738 27.527 1.2852C27.2986 0.905345 26.9783 0.588743 26.5953 0.364444ZM25.4441 5.99415C25.4448 6.02256 25.4385 6.05071 25.4258 6.07612C25.413 6.10153 25.3942 6.12343 25.371 6.13988C25.3237 6.17577 25.2659 6.19496 25.2065 6.19442H17.3495C17.2928 6.19599 17.2374 6.17657 17.1942 6.13988C17.1731 6.12205 17.1564 6.09965 17.1453 6.07439C17.1342 6.04914 17.129 6.0217 17.1302 5.99415V2.64186C17.1301 2.61312 17.1357 2.58463 17.1467 2.55805C17.1577 2.53148 17.1738 2.50733 17.1942 2.487C17.2146 2.46667 17.2388 2.45057 17.2655 2.43961C17.2921 2.42866 17.3207 2.42307 17.3495 2.42317H25.2065C25.2674 2.42326 25.326 2.44603 25.371 2.48701C25.3939 2.5058 25.4124 2.52944 25.425 2.55622C25.4377 2.583 25.4442 2.61226 25.4441 2.64186V5.99415Z" fill="#DBE2EA"/>
<path d="M41.8083 0.692383V0H39.177L34.6821 5.33824H31.5941V0H29.1641V13.1177H31.5941V7.77963H34.6821L39.177 13.1177H41.8266V12.4253L36.8747 6.55903L41.8083 0.692383Z" fill="#DBE2EA"/>
<path d="M55.6529 1.26565C55.4263 0.888035 55.1095 0.572173 54.7308 0.346191C54.3468 0.115397 53.9233 0 53.4603 0H45.384C44.9208 0 44.4977 0.115397 44.1147 0.346191C43.7355 0.572003 43.4183 0.887879 43.1913 1.26565C42.9598 1.64819 42.8441 2.07008 42.8442 2.53129V10.5853C42.8442 11.047 42.9599 11.4689 43.1913 11.8509C43.418 12.2289 43.735 12.5451 44.1141 12.7711C44.4978 13.0019 44.9209 13.1172 45.3835 13.1171H53.4598C53.9225 13.1171 54.3456 13.0018 54.7291 12.7711C55.1082 12.5451 55.4253 12.2289 55.652 11.8509C55.8832 11.4685 55.9989 11.0466 55.9992 10.5853V2.53241C55.9998 2.07107 55.8844 1.64881 55.6529 1.26565ZM53.5699 10.476C53.5701 10.5056 53.5636 10.5349 53.551 10.5617C53.5383 10.5885 53.5199 10.6121 53.4969 10.6309C53.4521 10.6719 53.3934 10.6946 53.3325 10.6945H45.4753C45.4465 10.6947 45.4179 10.6891 45.3913 10.6782C45.3646 10.6673 45.3404 10.6512 45.32 10.6309C45.2996 10.6105 45.2835 10.5864 45.2725 10.5598C45.2616 10.5332 45.256 10.5047 45.2562 10.476V2.64185C45.256 2.6131 45.2616 2.58462 45.2725 2.55803C45.2835 2.53144 45.2996 2.50728 45.32 2.48695C45.3404 2.46661 45.3646 2.4505 45.3913 2.43955C45.4179 2.4286 45.4465 2.42303 45.4753 2.42315H53.3325C53.3934 2.42328 53.452 2.44605 53.4969 2.48699C53.5198 2.50582 53.5382 2.52947 53.5509 2.55625C53.5635 2.58303 53.57 2.61226 53.5699 2.64185V10.476Z" fill="#DBE2EA"/>
</g>
<defs>
<clipPath id="clip0_4004_5531">
<rect width="56" height="24" fill="white"/>
</clipPath>
</defs>
</svg>
